<svg width="339" height="574" viewBox="0 0 339 574" fill="none" xmlns="http://www.w3.org/2000/svg">
<g opacity="0.15" clip-path="url(#clip0_2008_14744)">
<path d="M112.095 35.8821C111.762 39.2541 112.587 42.6981 115.155 45.1941C115.527 45.5541 115.9 45.9141 116.272 46.2741C118.228 48.1221 120.596 49.3221 123.376 49.8861C124.374 50.0901 126.01 50.1861 128.285 50.1741C139.567 50.1501 158.391 50.1501 169.699 50.1621C169.699 50.1621 169.726 50.1621 169.739 50.1621C169.739 50.1621 169.766 50.1621 169.766 50.1741C169.766 50.1741 169.779 50.1861 169.779 50.1981C169.779 50.1981 169.779 50.2221 169.779 50.2341V59.0301C169.779 59.0301 169.779 59.0541 169.766 59.0661C169.766 59.0661 169.739 59.0781 169.726 59.0781C158.205 59.0781 139.048 59.0781 127.301 59.0781C125.119 59.0781 123.43 58.9821 122.259 58.8021C114.223 57.5661 107.691 52.6101 104.419 45.9141C103.86 44.7621 103.448 43.4901 103.168 42.0981C102.663 39.4821 102.516 36.8541 102.703 34.2261C102.756 33.4461 102.916 32.6181 103.182 31.7301C104.778 26.3781 107.997 22.1661 112.84 19.0941C116.286 16.9101 120.13 15.6621 124.334 15.3381C125.438 15.2541 126.543 15.2061 127.647 15.2061C132.183 15.2061 136.72 15.2061 141.216 15.2061C141.376 15.2061 141.509 15.2661 141.602 15.3741C143.731 17.7141 144.383 21.2181 143.85 24.1341C143.85 24.1701 143.824 24.1821 143.797 24.1821C138.463 24.2061 133.194 24.2061 128.006 24.1701C126.037 24.1581 124.507 24.2661 123.416 24.4821C119.039 25.3821 115.447 27.9141 113.518 31.6341C113.332 31.9821 113.159 32.3301 112.973 32.6781C112.494 33.5901 112.188 34.6581 112.068 35.8821H112.095Z" fill="#508FFF"/>
<path d="M169.917 15.3118V24.1078C169.917 24.1078 169.917 24.1558 169.89 24.1678C169.877 24.1798 169.85 24.1918 169.823 24.1918H157.77C157.677 24.1918 157.637 24.1558 157.637 24.0718C157.904 21.0238 157.611 18.1198 156.759 15.3478C156.733 15.2638 156.759 15.2158 156.879 15.2158H169.797C169.797 15.2158 169.85 15.2278 169.877 15.2518C169.903 15.2758 169.903 15.2998 169.903 15.3238L169.917 15.3118Z" fill="#508FFF"/>
<path d="M150.626 35.5931C146.235 40.6811 139.477 43.8371 132.253 43.8731C126.998 43.8971 121.823 43.9091 116.728 43.8971C116.608 43.8971 116.515 43.8611 116.436 43.7771C114.214 41.5091 113.722 38.3171 114.214 35.1371C114.227 35.0411 114.294 34.9931 114.4 34.9931C119.548 34.9691 124.631 34.9691 129.646 34.9931C131.828 35.0051 133.491 34.9091 134.635 34.6931C138.147 34.0451 140.994 32.4251 143.162 29.8331C146.382 25.9811 146.954 20.9891 144.759 16.5971C142.816 12.6971 139.504 10.2491 134.821 9.25311C133.823 9.03711 132.386 8.94111 130.537 8.94111C118.71 8.96511 97.1321 8.96511 85.9837 8.94111C85.9571 8.94111 85.9305 8.94111 85.9172 8.91711C85.9039 8.90511 85.8906 8.88111 85.8906 8.85711V0.13311C85.8906 0.0731094 85.9172 0.0371094 85.9971 0.0371094C97.3183 0.0491094 118.79 0.0371094 130.231 0.0371094C132.36 0.0371094 134.009 0.0971094 135.153 0.24111C144.413 1.36911 151.85 7.33311 154.683 15.3371C155.388 17.3411 155.747 19.5611 155.747 22.0211C155.761 27.0971 154.058 31.6211 150.626 35.6051V35.5931Z" fill="#508FFF"/>
<path d="M101.544 43.7505C101.544 43.7505 101.544 43.7865 101.544 43.7985C101.544 43.8105 101.531 43.8345 101.518 43.8465C101.518 43.8585 101.491 43.8705 101.478 43.8825C101.464 43.8825 101.438 43.8825 101.425 43.8825H85.8993C85.8993 43.8825 85.886 43.8825 85.8727 43.8825H85.8594C85.8594 43.8825 85.8594 43.8825 85.8594 43.8705C85.8594 43.8705 85.8594 43.8585 85.8594 43.8465V35.0625C85.8594 35.0625 85.8594 35.0145 85.886 35.0025C85.8993 34.9905 85.9259 34.9785 85.9525 34.9785H100.52C100.52 34.9785 100.56 34.9785 100.586 34.9905C100.613 34.9905 100.626 35.0145 100.64 35.0265C100.653 35.0385 100.666 35.0625 100.68 35.0745C100.68 35.0985 100.68 35.1105 100.68 35.1345C100.547 37.9425 100.826 40.8105 101.558 43.7505H101.544Z" fill="#508FFF"/>
</g>
<g opacity="0.15" clip-path="url(#clip1_2008_14744)">
<path d="M112.095 96.4796C111.762 99.9078 112.587 103.409 115.155 105.947C115.527 106.313 115.9 106.679 116.272 107.045C118.228 108.924 120.596 110.144 123.376 110.717C124.374 110.924 126.01 111.022 128.285 111.01C139.567 110.985 158.391 110.985 169.699 110.998C169.699 110.998 169.726 110.998 169.739 110.998C169.739 110.998 169.766 110.998 169.766 111.01C169.766 111.01 169.779 111.022 169.779 111.034C169.779 111.034 169.779 111.059 169.779 111.071V120.013C169.779 120.013 169.779 120.038 169.766 120.05C169.766 120.05 169.739 120.062 169.726 120.062C158.205 120.062 139.048 120.062 127.301 120.062C125.119 120.062 123.43 119.965 122.259 119.782C114.223 118.525 107.691 113.486 104.419 106.679C103.86 105.508 103.448 104.214 103.168 102.799C102.663 100.14 102.516 97.4678 102.703 94.796C102.756 94.003 102.916 93.1612 103.182 92.2584C104.778 86.8172 107.997 82.535 112.84 79.4118C116.286 77.1914 120.13 75.9226 124.334 75.5932C125.438 75.5078 126.543 75.459 127.647 75.459C132.183 75.459 136.72 75.459 141.216 75.459C141.376 75.459 141.509 75.52 141.602 75.6298C143.731 78.0088 144.383 81.5712 143.85 84.5358C143.85 84.5724 143.824 84.5846 143.797 84.5846C138.463 84.609 133.194 84.609 128.006 84.5724C126.037 84.5602 124.507 84.67 123.416 84.8896C119.039 85.8046 115.447 88.3788 113.518 92.1608C113.332 92.5146 113.159 92.8684 112.973 93.2222C112.494 94.1494 112.188 95.2352 112.068 96.4796H112.095Z" fill="#508FFF"/>
<path d="M169.917 75.5663V84.509C169.917 84.509 169.917 84.5577 169.89 84.5699C169.877 84.5821 169.85 84.5943 169.823 84.5943H157.77C157.677 84.5943 157.637 84.5577 157.637 84.4723C157.904 81.3735 157.611 78.4211 156.759 75.6029C156.733 75.5175 156.759 75.4688 156.879 75.4688H169.797C169.797 75.4688 169.85 75.4809 169.877 75.5053C169.903 75.5297 169.903 75.5542 169.903 75.5786L169.917 75.5663Z" fill="#508FFF"/>
<path d="M150.626 96.1867C146.235 101.359 139.477 104.568 132.253 104.605C126.998 104.629 121.823 104.641 116.728 104.629C116.608 104.629 116.515 104.592 116.436 104.507C114.214 102.201 113.722 98.9561 114.214 95.7231C114.227 95.6255 114.294 95.5767 114.4 95.5767C119.548 95.5523 124.631 95.5523 129.646 95.5767C131.828 95.5889 133.491 95.4913 134.635 95.2717C138.147 94.6129 140.994 92.9659 143.162 90.3307C146.382 86.4145 146.954 81.3393 144.759 76.8741C142.816 72.9091 139.504 70.4203 134.821 69.4077C133.823 69.1881 132.386 69.0905 130.537 69.0905C118.71 69.1149 97.1321 69.1149 85.9837 69.0905C85.9571 69.0905 85.9305 69.0905 85.9172 69.0661C85.9039 69.0539 85.8906 69.0295 85.8906 69.0051V60.1357C85.8906 60.0747 85.9172 60.0381 85.9971 60.0381C97.3183 60.0503 118.79 60.0381 130.231 60.0381C132.36 60.0381 134.009 60.0991 135.153 60.2455C144.413 61.3923 151.85 67.4557 154.683 75.5931C155.388 77.6305 155.747 79.8875 155.747 82.3885C155.761 87.5491 154.058 92.1485 150.626 96.1989V96.1867Z" fill="#508FFF"/>
<path d="M101.544 104.479C101.544 104.479 101.544 104.515 101.544 104.528C101.544 104.54 101.531 104.564 101.518 104.576C101.518 104.589 101.491 104.601 101.478 104.613C101.464 104.613 101.438 104.613 101.425 104.613H85.8993C85.8993 104.613 85.886 104.613 85.8727 104.613H85.8594C85.8594 104.613 85.8594 104.613 85.8594 104.601C85.8594 104.601 85.8594 104.589 85.8594 104.576V95.6459C85.8594 95.6459 85.8594 95.5971 85.886 95.5849C85.8993 95.5727 85.9259 95.5605 85.9525 95.5605H100.52C100.52 95.5605 100.56 95.5605 100.586 95.5727C100.613 95.5727 100.626 95.5971 100.64 95.6093C100.653 95.6215 100.666 95.6459 100.68 95.6581C100.68 95.6825 100.68 95.6947 100.68 95.7191C100.547 98.5739 100.826 101.49 101.558 104.479H101.544Z" fill="#508FFF"/>
</g>
<g opacity="0.15" clip-path="url(#clip2_2008_14744)">
<path d="M196.78 35.8821C196.452 39.2541 197.267 42.6981 199.804 45.1941C200.172 45.5541 200.54 45.9141 200.909 46.2741C202.841 48.1221 205.181 49.3221 207.929 49.8861C208.915 50.0901 210.532 50.1861 212.78 50.1741C223.929 50.1501 242.532 50.1501 253.707 50.1621C253.707 50.1621 253.733 50.1621 253.746 50.1621C253.746 50.1621 253.773 50.1621 253.773 50.1741C253.773 50.1741 253.786 50.1861 253.786 50.1981C253.786 50.1981 253.786 50.2221 253.786 50.2341V59.0301C253.786 59.0301 253.786 59.0541 253.773 59.0661C253.773 59.0661 253.746 59.0781 253.733 59.0781C242.348 59.0781 223.416 59.0781 211.807 59.0781C209.651 59.0781 207.982 58.9821 206.825 58.8021C198.884 57.5661 192.429 52.6101 189.195 45.9141C188.642 44.7621 188.235 43.4901 187.959 42.0981C187.459 39.4821 187.315 36.8541 187.499 34.2261C187.551 33.4461 187.709 32.6181 187.972 31.7301C189.55 26.3781 192.731 22.1661 197.517 19.0941C200.922 16.9101 204.721 15.6621 208.876 15.3381C209.967 15.2541 211.058 15.2061 212.149 15.2061C216.632 15.2061 221.116 15.2061 225.559 15.2061C225.717 15.2061 225.848 15.2661 225.94 15.3741C228.044 17.7141 228.688 21.2181 228.162 24.1341C228.162 24.1701 228.136 24.1821 228.11 24.1821C222.838 24.2061 217.632 24.2061 212.504 24.1701C210.558 24.1581 209.047 24.2661 207.968 24.4821C203.643 25.3821 200.093 27.9141 198.187 31.6341C198.003 31.9821 197.832 32.3301 197.648 32.6781C197.175 33.5901 196.872 34.6581 196.754 35.8821H196.78Z" fill="#508FFF"/>
<path d="M253.918 15.3118V24.1078C253.918 24.1078 253.918 24.1558 253.892 24.1678C253.879 24.1798 253.852 24.1918 253.826 24.1918H241.915C241.823 24.1918 241.783 24.1558 241.783 24.0718C242.046 21.0238 241.757 18.1198 240.916 15.3478C240.889 15.2638 240.916 15.2158 241.034 15.2158H253.8C253.8 15.2158 253.852 15.2278 253.879 15.2518C253.905 15.2758 253.905 15.2998 253.905 15.3238L253.918 15.3118Z" fill="#508FFF"/>
<path d="M234.848 35.5931C230.51 40.6811 223.831 43.8371 216.692 43.8731C211.499 43.8971 206.385 43.9091 201.35 43.8971C201.231 43.8971 201.139 43.8611 201.061 43.7771C198.865 41.5091 198.379 38.3171 198.865 35.1371C198.878 35.0411 198.944 34.9931 199.049 34.9931C204.137 34.9691 209.159 34.9691 214.116 34.9931C216.272 35.0051 217.915 34.9091 219.046 34.6931C222.517 34.0451 225.33 32.4251 227.473 29.8331C230.654 25.9811 231.22 20.9891 229.051 16.5971C227.131 12.6971 223.857 10.2491 219.23 9.25311C218.244 9.03711 216.824 8.94111 214.996 8.94111C203.309 8.96511 181.984 8.96511 170.967 8.94111C170.941 8.94111 170.914 8.94111 170.901 8.91711C170.888 8.90511 170.875 8.88111 170.875 8.85711V0.13311C170.875 0.0731094 170.901 0.0371094 170.98 0.0371094C182.168 0.0491094 203.387 0.0371094 214.694 0.0371094C216.797 0.0371094 218.428 0.0971094 219.558 0.24111C228.709 1.36911 236.058 7.33311 238.858 15.3371C239.555 17.3411 239.91 19.5611 239.91 22.0211C239.923 27.0971 238.24 31.6211 234.848 35.6051V35.5931Z" fill="#508FFF"/>
<path d="M186.352 43.7505C186.352 43.7505 186.352 43.7865 186.352 43.7985C186.352 43.8105 186.339 43.8345 186.326 43.8465C186.326 43.8585 186.299 43.8705 186.286 43.8825C186.273 43.8825 186.247 43.8825 186.234 43.8825H170.891C170.891 43.8825 170.878 43.8825 170.865 43.8825H170.852C170.852 43.8825 170.852 43.8825 170.852 43.8705C170.852 43.8705 170.852 43.8585 170.852 43.8465V35.0625C170.852 35.0625 170.852 35.0145 170.878 35.0025C170.891 34.9905 170.917 34.9785 170.944 34.9785H185.34C185.34 34.9785 185.379 34.9785 185.405 34.9905C185.432 34.9905 185.445 35.0145 185.458 35.0265C185.471 35.0385 185.484 35.0625 185.497 35.0745C185.497 35.0985 185.497 35.1105 185.497 35.1345C185.366 37.9425 185.642 40.8105 186.365 43.7505H186.352Z" fill="#508FFF"/>
</g>
<g opacity="0.15" clip-path="url(#clip3_2008_14744)">
<path d="M196.78 155.882C196.452 159.254 197.267 162.698 199.804 165.194C200.172 165.554 200.54 165.914 200.909 166.274C202.841 168.122 205.181 169.322 207.929 169.886C208.915 170.09 210.532 170.186 212.78 170.174C223.929 170.15 242.532 170.15 253.707 170.162C253.707 170.162 253.733 170.162 253.746 170.162C253.746 170.162 253.773 170.162 253.773 170.174C253.773 170.174 253.786 170.186 253.786 170.198C253.786 170.198 253.786 170.222 253.786 170.234V179.03C253.786 179.03 253.786 179.054 253.773 179.066C253.773 179.066 253.746 179.078 253.733 179.078C242.348 179.078 223.416 179.078 211.807 179.078C209.651 179.078 207.982 178.982 206.825 178.802C198.884 177.566 192.429 172.61 189.195 165.914C188.642 164.762 188.235 163.49 187.959 162.098C187.459 159.482 187.315 156.854 187.499 154.226C187.551 153.446 187.709 152.618 187.972 151.73C189.55 146.378 192.731 142.166 197.517 139.094C200.922 136.91 204.721 135.662 208.876 135.338C209.967 135.254 211.058 135.206 212.149 135.206C216.632 135.206 221.116 135.206 225.559 135.206C225.717 135.206 225.848 135.266 225.94 135.374C228.044 137.714 228.688 141.218 228.162 144.134C228.162 144.17 228.136 144.182 228.11 144.182C222.838 144.206 217.632 144.206 212.504 144.17C210.558 144.158 209.047 144.266 207.968 144.482C203.643 145.382 200.093 147.914 198.187 151.634C198.003 151.982 197.832 152.33 197.648 152.678C197.175 153.59 196.872 154.658 196.754 155.882H196.78Z" fill="#508FFF"/>
<path d="M253.918 135.312V144.108C253.918 144.108 253.918 144.156 253.892 144.168C253.879 144.18 253.852 144.192 253.826 144.192H241.915C241.823 144.192 241.783 144.156 241.783 144.072C242.046 141.024 241.757 138.12 240.916 135.348C240.889 135.264 240.916 135.216 241.034 135.216H253.8C253.8 135.216 253.852 135.228 253.879 135.252C253.905 135.276 253.905 135.3 253.905 135.324L253.918 135.312Z" fill="#508FFF"/>
<path d="M234.848 155.593C230.51 160.681 223.831 163.837 216.692 163.873C211.499 163.897 206.385 163.909 201.35 163.897C201.231 163.897 201.139 163.861 201.061 163.777C198.865 161.509 198.379 158.317 198.865 155.137C198.878 155.041 198.944 154.993 199.049 154.993C204.137 154.969 209.159 154.969 214.116 154.993C216.272 155.005 217.915 154.909 219.046 154.693C222.517 154.045 225.33 152.425 227.473 149.833C230.654 145.981 231.22 140.989 229.051 136.597C227.131 132.697 223.857 130.249 219.23 129.253C218.244 129.037 216.824 128.941 214.996 128.941C203.309 128.965 181.984 128.965 170.967 128.941C170.941 128.941 170.914 128.941 170.901 128.917C170.888 128.905 170.875 128.881 170.875 128.857V120.133C170.875 120.073 170.901 120.037 170.98 120.037C182.168 120.049 203.387 120.037 214.694 120.037C216.797 120.037 218.428 120.097 219.558 120.241C228.709 121.369 236.058 127.333 238.858 135.337C239.555 137.341 239.91 139.561 239.91 142.021C239.923 147.097 238.24 151.621 234.848 155.605V155.593Z" fill="#508FFF"/>
<path d="M186.352 163.751C186.352 163.751 186.352 163.787 186.352 163.799C186.352 163.811 186.339 163.835 186.326 163.847C186.326 163.859 186.299 163.871 186.286 163.883C186.273 163.883 186.247 163.883 186.234 163.883H170.891C170.891 163.883 170.878 163.883 170.865 163.883H170.852C170.852 163.883 170.852 163.883 170.852 163.871C170.852 163.871 170.852 163.859 170.852 163.847V155.063C170.852 155.063 170.852 155.015 170.878 155.003C170.891 154.991 170.917 154.979 170.944 154.979H185.34C185.34 154.979 185.379 154.979 185.405 154.991C185.432 154.991 185.445 155.015 185.458 155.027C185.471 155.039 185.484 155.063 185.497 155.075C185.497 155.099 185.497 155.111 185.497 155.135C185.366 157.943 185.642 160.811 186.365 163.751H186.352Z" fill="#508FFF"/>
</g>
<g opacity="0.15" clip-path="url(#clip4_2008_14744)">
<path d="M196.78 549.882C196.452 553.254 197.267 556.698 199.804 559.194C200.172 559.554 200.54 559.914 200.909 560.274C202.841 562.122 205.181 563.322 207.929 563.886C208.915 564.09 210.532 564.186 212.78 564.174C223.929 564.15 242.532 564.15 253.707 564.162C253.707 564.162 253.733 564.162 253.746 564.162C253.746 564.162 253.773 564.162 253.773 564.174C253.773 564.174 253.786 564.186 253.786 564.198C253.786 564.198 253.786 564.222 253.786 564.234V573.03C253.786 573.03 253.786 573.054 253.773 573.066C253.773 573.066 253.746 573.078 253.733 573.078C242.348 573.078 223.416 573.078 211.807 573.078C209.651 573.078 207.982 572.982 206.825 572.802C198.884 571.566 192.429 566.61 189.195 559.914C188.642 558.762 188.235 557.49 187.959 556.098C187.459 553.482 187.315 550.854 187.499 548.226C187.551 547.446 187.709 546.618 187.972 545.73C189.55 540.378 192.731 536.166 197.517 533.094C200.922 530.91 204.721 529.662 208.876 529.338C209.967 529.254 211.058 529.206 212.149 529.206C216.632 529.206 221.116 529.206 225.559 529.206C225.717 529.206 225.848 529.266 225.94 529.374C228.044 531.714 228.688 535.218 228.162 538.134C228.162 538.17 228.136 538.182 228.11 538.182C222.838 538.206 217.632 538.206 212.504 538.17C210.558 538.158 209.047 538.266 207.968 538.482C203.643 539.382 200.093 541.914 198.187 545.634C198.003 545.982 197.832 546.33 197.648 546.678C197.175 547.59 196.872 548.658 196.754 549.882H196.78Z" fill="#508FFF"/>
<path d="M253.918 529.312V538.108C253.918 538.108 253.918 538.156 253.892 538.168C253.879 538.18 253.852 538.192 253.826 538.192H241.915C241.823 538.192 241.783 538.156 241.783 538.072C242.046 535.024 241.757 532.12 240.916 529.348C240.889 529.264 240.916 529.216 241.034 529.216H253.8C253.8 529.216 253.852 529.228 253.879 529.252C253.905 529.276 253.905 529.3 253.905 529.324L253.918 529.312Z" fill="#508FFF"/>
<path d="M234.848 549.593C230.51 554.681 223.831 557.837 216.692 557.873C211.499 557.897 206.385 557.909 201.35 557.897C201.231 557.897 201.139 557.861 201.061 557.777C198.865 555.509 198.379 552.317 198.865 549.137C198.878 549.041 198.944 548.993 199.049 548.993C204.137 548.969 209.159 548.969 214.116 548.993C216.272 549.005 217.915 548.909 219.046 548.693C222.517 548.045 225.33 546.425 227.473 543.833C230.654 539.981 231.22 534.989 229.051 530.597C227.131 526.697 223.857 524.249 219.23 523.253C218.244 523.037 216.824 522.941 214.996 522.941C203.309 522.965 181.984 522.965 170.967 522.941C170.941 522.941 170.914 522.941 170.901 522.917C170.888 522.905 170.875 522.881 170.875 522.857V514.133C170.875 514.073 170.901 514.037 170.98 514.037C182.168 514.049 203.387 514.037 214.694 514.037C216.797 514.037 218.428 514.097 219.558 514.241C228.709 515.369 236.058 521.333 238.858 529.337C239.555 531.341 239.91 533.561 239.91 536.021C239.923 541.097 238.24 545.621 234.848 549.605V549.593Z" fill="#508FFF"/>
<path d="M186.352 557.751C186.352 557.751 186.352 557.787 186.352 557.799C186.352 557.811 186.339 557.835 186.326 557.847C186.326 557.859 186.299 557.871 186.286 557.883C186.273 557.883 186.247 557.883 186.234 557.883H170.891C170.891 557.883 170.878 557.883 170.865 557.883H170.852C170.852 557.883 170.852 557.883 170.852 557.871C170.852 557.871 170.852 557.859 170.852 557.847V549.063C170.852 549.063 170.852 549.015 170.878 549.003C170.891 548.991 170.917 548.979 170.944 548.979H185.34C185.34 548.979 185.379 548.979 185.405 548.991C185.432 548.991 185.445 549.015 185.458 549.027C185.471 549.039 185.484 549.063 185.497 549.075C185.497 549.099 185.497 549.111 185.497 549.135C185.366 551.943 185.642 554.811 186.365 557.751H186.352Z" fill="#508FFF"/>
</g>
<g opacity="0.15" clip-path="url(#clip5_2008_14744)">
<path d="M112.78 549.882C112.452 553.254 113.267 556.698 115.804 559.194C116.172 559.554 116.54 559.914 116.909 560.274C118.841 562.122 121.181 563.322 123.929 563.886C124.915 564.09 126.532 564.186 128.78 564.174C139.929 564.15 158.532 564.15 169.707 564.162C169.707 564.162 169.733 564.162 169.746 564.162C169.746 564.162 169.773 564.162 169.773 564.174C169.773 564.174 169.786 564.186 169.786 564.198C169.786 564.198 169.786 564.222 169.786 564.234V573.03C169.786 573.03 169.786 573.054 169.773 573.066C169.773 573.066 169.746 573.078 169.733 573.078C158.348 573.078 139.416 573.078 127.807 573.078C125.651 573.078 123.982 572.982 122.825 572.802C114.884 571.566 108.429 566.61 105.195 559.914C104.642 558.762 104.235 557.49 103.959 556.098C103.459 553.482 103.315 550.854 103.499 548.226C103.551 547.446 103.709 546.618 103.972 545.73C105.55 540.378 108.731 536.166 113.517 533.094C116.922 530.91 120.721 529.662 124.876 529.338C125.967 529.254 127.058 529.206 128.149 529.206C132.632 529.206 137.116 529.206 141.559 529.206C141.717 529.206 141.848 529.266 141.94 529.374C144.044 531.714 144.688 535.218 144.162 538.134C144.162 538.17 144.136 538.182 144.11 538.182C138.838 538.206 133.632 538.206 128.504 538.17C126.558 538.158 125.047 538.266 123.968 538.482C119.643 539.382 116.093 541.914 114.187 545.634C114.003 545.982 113.832 546.33 113.648 546.678C113.175 547.59 112.872 548.658 112.754 549.882H112.78Z" fill="#508FFF"/>
<path d="M169.918 529.312V538.108C169.918 538.108 169.918 538.156 169.892 538.168C169.879 538.18 169.852 538.192 169.826 538.192H157.915C157.823 538.192 157.783 538.156 157.783 538.072C158.046 535.024 157.757 532.12 156.916 529.348C156.889 529.264 156.916 529.216 157.034 529.216H169.8C169.8 529.216 169.852 529.228 169.879 529.252C169.905 529.276 169.905 529.3 169.905 529.324L169.918 529.312Z" fill="#508FFF"/>
<path d="M150.848 549.593C146.51 554.681 139.831 557.837 132.692 557.873C127.499 557.897 122.385 557.909 117.35 557.897C117.231 557.897 117.139 557.861 117.061 557.777C114.865 555.509 114.379 552.317 114.865 549.137C114.878 549.041 114.944 548.993 115.049 548.993C120.137 548.969 125.159 548.969 130.116 548.993C132.272 549.005 133.915 548.909 135.046 548.693C138.517 548.045 141.33 546.425 143.473 543.833C146.654 539.981 147.22 534.989 145.051 530.597C143.131 526.697 139.857 524.249 135.23 523.253C134.244 523.037 132.824 522.941 130.996 522.941C119.309 522.965 97.9842 522.965 86.967 522.941C86.9407 522.941 86.9144 522.941 86.9013 522.917C86.8881 522.905 86.875 522.881 86.875 522.857V514.133C86.875 514.073 86.9013 514.037 86.9802 514.037C98.1683 514.049 119.387 514.037 130.694 514.037C132.797 514.037 134.428 514.097 135.558 514.241C144.709 515.369 152.058 521.333 154.858 529.337C155.555 531.341 155.91 533.561 155.91 536.021C155.923 541.097 154.24 545.621 150.848 549.605V549.593Z" fill="#508FFF"/>
<path d="M102.352 557.751C102.352 557.751 102.352 557.787 102.352 557.799C102.352 557.811 102.339 557.835 102.326 557.847C102.326 557.859 102.299 557.871 102.286 557.883C102.273 557.883 102.247 557.883 102.234 557.883H86.891C86.891 557.883 86.8779 557.883 86.8647 557.883H86.8516C86.8516 557.883 86.8516 557.883 86.8516 557.871C86.8516 557.871 86.8516 557.859 86.8516 557.847V549.063C86.8516 549.063 86.8516 549.015 86.8779 549.003C86.891 548.991 86.9173 548.979 86.9436 548.979H101.34C101.34 548.979 101.379 548.979 101.405 548.991C101.432 548.991 101.445 549.015 101.458 549.027C101.471 549.039 101.484 549.063 101.497 549.075C101.497 549.099 101.497 549.111 101.497 549.135C101.366 551.943 101.642 554.811 102.365 557.751H102.352Z" fill="#508FFF"/>
</g>
<g opacity="0.15" clip-path="url(#clip6_2008_14744)">
<path d="M196.78 96.4796C196.452 99.9078 197.267 103.409 199.804 105.947C200.172 106.313 200.54 106.679 200.909 107.045C202.841 108.924 205.181 110.144 207.929 110.717C208.915 110.924 210.532 111.022 212.78 111.01C223.929 110.985 242.532 110.985 253.707 110.998C253.707 110.998 253.733 110.998 253.746 110.998C253.746 110.998 253.773 110.998 253.773 111.01C253.773 111.01 253.786 111.022 253.786 111.034C253.786 111.034 253.786 111.059 253.786 111.071V120.013C253.786 120.013 253.786 120.038 253.773 120.05C253.773 120.05 253.746 120.062 253.733 120.062C242.348 120.062 223.416 120.062 211.807 120.062C209.651 120.062 207.982 119.965 206.825 119.782C198.884 118.525 192.429 113.486 189.195 106.679C188.642 105.508 188.235 104.214 187.959 102.799C187.459 100.14 187.315 97.4678 187.499 94.796C187.551 94.003 187.709 93.1612 187.972 92.2584C189.55 86.8172 192.731 82.535 197.517 79.4118C200.922 77.1914 204.721 75.9226 208.876 75.5932C209.967 75.5078 211.058 75.459 212.149 75.459C216.632 75.459 221.116 75.459 225.559 75.459C225.717 75.459 225.848 75.52 225.94 75.6298C228.044 78.0088 228.688 81.5712 228.162 84.5358C228.162 84.5724 228.136 84.5846 228.11 84.5846C222.838 84.609 217.632 84.609 212.504 84.5724C210.558 84.5602 209.047 84.67 207.968 84.8896C203.643 85.8046 200.093 88.3788 198.187 92.1608C198.003 92.5146 197.832 92.8684 197.648 93.2222C197.175 94.1494 196.872 95.2352 196.754 96.4796H196.78Z" fill="#508FFF"/>
<path d="M253.918 75.5663V84.509C253.918 84.509 253.918 84.5577 253.892 84.5699C253.879 84.5821 253.852 84.5943 253.826 84.5943H241.915C241.823 84.5943 241.783 84.5577 241.783 84.4723C242.046 81.3735 241.757 78.4211 240.916 75.6029C240.889 75.5175 240.916 75.4688 241.034 75.4688H253.8C253.8 75.4688 253.852 75.4809 253.879 75.5053C253.905 75.5297 253.905 75.5542 253.905 75.5786L253.918 75.5663Z" fill="#508FFF"/>
<path d="M234.848 96.1867C230.51 101.359 223.831 104.568 216.692 104.605C211.499 104.629 206.385 104.641 201.35 104.629C201.231 104.629 201.139 104.592 201.061 104.507C198.865 102.201 198.379 98.9561 198.865 95.7231C198.878 95.6255 198.944 95.5767 199.049 95.5767C204.137 95.5523 209.159 95.5523 214.116 95.5767C216.272 95.5889 217.915 95.4913 219.046 95.2717C222.517 94.6129 225.33 92.9659 227.473 90.3307C230.654 86.4145 231.22 81.3393 229.051 76.8741C227.131 72.9091 223.857 70.4203 219.23 69.4077C218.244 69.1881 216.824 69.0905 214.996 69.0905C203.309 69.1149 181.984 69.1149 170.967 69.0905C170.941 69.0905 170.914 69.0905 170.901 69.0661C170.888 69.0539 170.875 69.0295 170.875 69.0051V60.1357C170.875 60.0747 170.901 60.0381 170.98 60.0381C182.168 60.0503 203.387 60.0381 214.694 60.0381C216.797 60.0381 218.428 60.0991 219.558 60.2455C228.709 61.3923 236.058 67.4557 238.858 75.5931C239.555 77.6305 239.91 79.8875 239.91 82.3885C239.923 87.5491 238.24 92.1485 234.848 96.1989V96.1867Z" fill="#508FFF"/>
<path d="M186.352 104.479C186.352 104.479 186.352 104.515 186.352 104.528C186.352 104.54 186.339 104.564 186.326 104.576C186.326 104.589 186.299 104.601 186.286 104.613C186.273 104.613 186.247 104.613 186.234 104.613H170.891C170.891 104.613 170.878 104.613 170.865 104.613H170.852C170.852 104.613 170.852 104.613 170.852 104.601C170.852 104.601 170.852 104.589 170.852 104.576V95.6459C170.852 95.6459 170.852 95.5971 170.878 95.5849C170.891 95.5727 170.917 95.5605 170.944 95.5605H185.34C185.34 95.5605 185.379 95.5605 185.405 95.5727C185.432 95.5727 185.445 95.5971 185.458 95.6093C185.471 95.6215 185.484 95.6459 185.497 95.6581C185.497 95.6825 185.497 95.6947 185.497 95.7191C185.366 98.5739 185.642 101.49 186.365 104.479H186.352Z" fill="#508FFF"/>
</g>
<g opacity="0.15" clip-path="url(#clip7_2008_14744)">
<path d="M281.095 35.8821C280.762 39.2541 281.587 42.6981 284.155 45.1941C284.527 45.5541 284.9 45.9141 285.272 46.2741C287.228 48.1221 289.596 49.3221 292.376 49.8861C293.374 50.0901 295.01 50.1861 297.285 50.1741C308.567 50.1501 327.391 50.1501 338.699 50.1621C338.699 50.1621 338.726 50.1621 338.739 50.1621C338.739 50.1621 338.766 50.1621 338.766 50.1741C338.766 50.1741 338.779 50.1861 338.779 50.1981C338.779 50.1981 338.779 50.2221 338.779 50.2341V59.0301C338.779 59.0301 338.779 59.0541 338.766 59.0661C338.766 59.0661 338.739 59.0781 338.726 59.0781C327.205 59.0781 308.048 59.0781 296.301 59.0781C294.119 59.0781 292.43 58.9821 291.259 58.8021C283.223 57.5661 276.691 52.6101 273.419 45.9141C272.86 44.7621 272.448 43.4901 272.168 42.0981C271.663 39.4821 271.516 36.8541 271.703 34.2261C271.756 33.4461 271.916 32.6181 272.182 31.7301C273.778 26.3781 276.997 22.1661 281.84 19.0941C285.286 16.9101 289.13 15.6621 293.334 15.3381C294.438 15.2541 295.543 15.2061 296.647 15.2061C301.183 15.2061 305.72 15.2061 310.216 15.2061C310.376 15.2061 310.509 15.2661 310.602 15.3741C312.731 17.7141 313.383 21.2181 312.85 24.1341C312.85 24.1701 312.824 24.1821 312.797 24.1821C307.463 24.2061 302.194 24.2061 297.006 24.1701C295.037 24.1581 293.507 24.2661 292.416 24.4821C288.039 25.3821 284.447 27.9141 282.518 31.6341C282.332 31.9821 282.159 32.3301 281.973 32.6781C281.494 33.5901 281.188 34.6581 281.068 35.8821H281.095Z" fill="#508FFF"/>
<path d="M338.917 15.3118V24.1078C338.917 24.1078 338.917 24.1558 338.89 24.1678C338.877 24.1798 338.85 24.1918 338.823 24.1918H326.77C326.677 24.1918 326.637 24.1558 326.637 24.0718C326.904 21.0238 326.611 18.1198 325.759 15.3478C325.733 15.2638 325.759 15.2158 325.879 15.2158H338.797C338.797 15.2158 338.85 15.2278 338.877 15.2518C338.903 15.2758 338.903 15.2998 338.903 15.3238L338.917 15.3118Z" fill="#508FFF"/>
<path d="M319.626 35.5931C315.235 40.6811 308.477 43.8371 301.253 43.8731C295.998 43.8971 290.823 43.9091 285.728 43.8971C285.608 43.8971 285.515 43.8611 285.436 43.7771C283.214 41.5091 282.722 38.3171 283.214 35.1371C283.227 35.0411 283.294 34.9931 283.4 34.9931C288.548 34.9691 293.631 34.9691 298.646 34.9931C300.828 35.0051 302.491 34.9091 303.635 34.6931C307.147 34.0451 309.994 32.4251 312.162 29.8331C315.382 25.9811 315.954 20.9891 313.759 16.5971C311.816 12.6971 308.504 10.2491 303.821 9.25311C302.823 9.03711 301.386 8.94111 299.537 8.94111C287.71 8.96511 266.132 8.96511 254.984 8.94111C254.957 8.94111 254.931 8.94111 254.917 8.91711C254.904 8.90511 254.891 8.88111 254.891 8.85711V0.13311C254.891 0.0731094 254.917 0.0371094 254.997 0.0371094C266.318 0.0491094 287.79 0.0371094 299.231 0.0371094C301.36 0.0371094 303.009 0.0971094 304.153 0.24111C313.413 1.36911 320.85 7.33311 323.683 15.3371C324.388 17.3411 324.747 19.5611 324.747 22.0211C324.761 27.0971 323.058 31.6211 319.626 35.6051V35.5931Z" fill="#508FFF"/>
<path d="M270.544 43.7505C270.544 43.7505 270.544 43.7865 270.544 43.7985C270.544 43.8105 270.531 43.8345 270.518 43.8465C270.518 43.8585 270.491 43.8705 270.478 43.8825C270.464 43.8825 270.438 43.8825 270.425 43.8825H254.899C254.899 43.8825 254.886 43.8825 254.873 43.8825H254.859C254.859 43.8825 254.859 43.8825 254.859 43.8705C254.859 43.8705 254.859 43.8585 254.859 43.8465V35.0625C254.859 35.0625 254.859 35.0145 254.886 35.0025C254.899 34.9905 254.926 34.9785 254.952 34.9785H269.52C269.52 34.9785 269.56 34.9785 269.586 34.9905C269.613 34.9905 269.626 35.0145 269.64 35.0265C269.653 35.0385 269.666 35.0625 269.68 35.0745C269.68 35.0985 269.68 35.1105 269.68 35.1345C269.547 37.9425 269.826 40.8105 270.558 43.7505H270.544Z" fill="#508FFF"/>
</g>
<g opacity="0.15" clip-path="url(#clip8_2008_14744)">
<path d="M281.095 155.882C280.762 159.254 281.587 162.698 284.155 165.194C284.527 165.554 284.9 165.914 285.272 166.274C287.228 168.122 289.596 169.322 292.376 169.886C293.374 170.09 295.01 170.186 297.285 170.174C308.567 170.15 327.391 170.15 338.699 170.162C338.699 170.162 338.726 170.162 338.739 170.162C338.739 170.162 338.766 170.162 338.766 170.174C338.766 170.174 338.779 170.186 338.779 170.198C338.779 170.198 338.779 170.222 338.779 170.234V179.03C338.779 179.03 338.779 179.054 338.766 179.066C338.766 179.066 338.739 179.078 338.726 179.078C327.205 179.078 308.048 179.078 296.301 179.078C294.119 179.078 292.43 178.982 291.259 178.802C283.223 177.566 276.691 172.61 273.419 165.914C272.86 164.762 272.448 163.49 272.168 162.098C271.663 159.482 271.516 156.854 271.703 154.226C271.756 153.446 271.916 152.618 272.182 151.73C273.778 146.378 276.997 142.166 281.84 139.094C285.286 136.91 289.13 135.662 293.334 135.338C294.438 135.254 295.543 135.206 296.647 135.206C301.183 135.206 305.72 135.206 310.216 135.206C310.376 135.206 310.509 135.266 310.602 135.374C312.731 137.714 313.383 141.218 312.85 144.134C312.85 144.17 312.824 144.182 312.797 144.182C307.463 144.206 302.194 144.206 297.006 144.17C295.037 144.158 293.507 144.266 292.416 144.482C288.039 145.382 284.447 147.914 282.518 151.634C282.332 151.982 282.159 152.33 281.973 152.678C281.494 153.59 281.188 154.658 281.068 155.882H281.095Z" fill="#508FFF"/>
<path d="M338.917 135.312V144.108C338.917 144.108 338.917 144.156 338.89 144.168C338.877 144.18 338.85 144.192 338.823 144.192H326.77C326.677 144.192 326.637 144.156 326.637 144.072C326.904 141.024 326.611 138.12 325.759 135.348C325.733 135.264 325.759 135.216 325.879 135.216H338.797C338.797 135.216 338.85 135.228 338.877 135.252C338.903 135.276 338.903 135.3 338.903 135.324L338.917 135.312Z" fill="#508FFF"/>
<path d="M319.626 155.593C315.235 160.681 308.477 163.837 301.253 163.873C295.998 163.897 290.823 163.909 285.728 163.897C285.608 163.897 285.515 163.861 285.436 163.777C283.214 161.509 282.722 158.317 283.214 155.137C283.227 155.041 283.294 154.993 283.4 154.993C288.548 154.969 293.631 154.969 298.646 154.993C300.828 155.005 302.491 154.909 303.635 154.693C307.147 154.045 309.994 152.425 312.162 149.833C315.382 145.981 315.954 140.989 313.759 136.597C311.816 132.697 308.504 130.249 303.821 129.253C302.823 129.037 301.386 128.941 299.537 128.941C287.71 128.965 266.132 128.965 254.984 128.941C254.957 128.941 254.931 128.941 254.917 128.917C254.904 128.905 254.891 128.881 254.891 128.857V120.133C254.891 120.073 254.917 120.037 254.997 120.037C266.318 120.049 287.79 120.037 299.231 120.037C301.36 120.037 303.009 120.097 304.153 120.241C313.413 121.369 320.85 127.333 323.683 135.337C324.388 137.341 324.747 139.561 324.747 142.021C324.761 147.097 323.058 151.621 319.626 155.605V155.593Z" fill="#508FFF"/>
<path d="M270.544 163.751C270.544 163.751 270.544 163.787 270.544 163.799C270.544 163.811 270.531 163.835 270.518 163.847C270.518 163.859 270.491 163.871 270.478 163.883C270.464 163.883 270.438 163.883 270.425 163.883H254.899C254.899 163.883 254.886 163.883 254.873 163.883H254.859C254.859 163.883 254.859 163.883 254.859 163.871C254.859 163.871 254.859 163.859 254.859 163.847V155.063C254.859 155.063 254.859 155.015 254.886 155.003C254.899 154.991 254.926 154.979 254.952 154.979H269.52C269.52 154.979 269.56 154.979 269.586 154.991C269.613 154.991 269.626 155.015 269.64 155.027C269.653 155.039 269.666 155.063 269.68 155.075C269.68 155.099 269.68 155.111 269.68 155.135C269.547 157.943 269.826 160.811 270.558 163.751H270.544Z" fill="#508FFF"/>
</g>
<g opacity="0.15" clip-path="url(#clip9_2008_14744)">
<path d="M281.095 488.882C280.762 492.254 281.587 495.698 284.155 498.194C284.527 498.554 284.9 498.914 285.272 499.274C287.228 501.122 289.596 502.322 292.376 502.886C293.374 503.09 295.01 503.186 297.285 503.174C308.567 503.15 327.391 503.15 338.699 503.162C338.699 503.162 338.726 503.162 338.739 503.162C338.739 503.162 338.766 503.162 338.766 503.174C338.766 503.174 338.779 503.186 338.779 503.198C338.779 503.198 338.779 503.222 338.779 503.234V512.03C338.779 512.03 338.779 512.054 338.766 512.066C338.766 512.066 338.739 512.078 338.726 512.078C327.205 512.078 308.048 512.078 296.301 512.078C294.119 512.078 292.43 511.982 291.259 511.802C283.223 510.566 276.691 505.61 273.419 498.914C272.86 497.762 272.448 496.49 272.168 495.098C271.663 492.482 271.516 489.854 271.703 487.226C271.756 486.446 271.916 485.618 272.182 484.73C273.778 479.378 276.997 475.166 281.84 472.094C285.286 469.91 289.13 468.662 293.334 468.338C294.438 468.254 295.543 468.206 296.647 468.206C301.183 468.206 305.72 468.206 310.216 468.206C310.376 468.206 310.509 468.266 310.602 468.374C312.731 470.714 313.383 474.218 312.85 477.134C312.85 477.17 312.824 477.182 312.797 477.182C307.463 477.206 302.194 477.206 297.006 477.17C295.037 477.158 293.507 477.266 292.416 477.482C288.039 478.382 284.447 480.914 282.518 484.634C282.332 484.982 282.159 485.33 281.973 485.678C281.494 486.59 281.188 487.658 281.068 488.882H281.095Z" fill="#508FFF"/>
<path d="M338.917 468.312V477.108C338.917 477.108 338.917 477.156 338.89 477.168C338.877 477.18 338.85 477.192 338.823 477.192H326.77C326.677 477.192 326.637 477.156 326.637 477.072C326.904 474.024 326.611 471.12 325.759 468.348C325.733 468.264 325.759 468.216 325.879 468.216H338.797C338.797 468.216 338.85 468.228 338.877 468.252C338.903 468.276 338.903 468.3 338.903 468.324L338.917 468.312Z" fill="#508FFF"/>
<path d="M319.626 488.593C315.235 493.681 308.477 496.837 301.253 496.873C295.998 496.897 290.823 496.909 285.728 496.897C285.608 496.897 285.515 496.861 285.436 496.777C283.214 494.509 282.722 491.317 283.214 488.137C283.227 488.041 283.294 487.993 283.4 487.993C288.548 487.969 293.631 487.969 298.646 487.993C300.828 488.005 302.491 487.909 303.635 487.693C307.147 487.045 309.994 485.425 312.162 482.833C315.382 478.981 315.954 473.989 313.759 469.597C311.816 465.697 308.504 463.249 303.821 462.253C302.823 462.037 301.386 461.941 299.537 461.941C287.71 461.965 266.132 461.965 254.984 461.941C254.957 461.941 254.931 461.941 254.917 461.917C254.904 461.905 254.891 461.881 254.891 461.857V453.133C254.891 453.073 254.917 453.037 254.997 453.037C266.318 453.049 287.79 453.037 299.231 453.037C301.36 453.037 303.009 453.097 304.153 453.241C313.413 454.369 320.85 460.333 323.683 468.337C324.388 470.341 324.747 472.561 324.747 475.021C324.761 480.097 323.058 484.621 319.626 488.605V488.593Z" fill="#508FFF"/>
<path d="M270.544 496.751C270.544 496.751 270.544 496.787 270.544 496.799C270.544 496.811 270.531 496.835 270.518 496.847C270.518 496.859 270.491 496.871 270.478 496.883C270.464 496.883 270.438 496.883 270.425 496.883H254.899C254.899 496.883 254.886 496.883 254.873 496.883H254.859C254.859 496.883 254.859 496.883 254.859 496.871C254.859 496.871 254.859 496.859 254.859 496.847V488.063C254.859 488.063 254.859 488.015 254.886 488.003C254.899 487.991 254.926 487.979 254.952 487.979H269.52C269.52 487.979 269.56 487.979 269.586 487.991C269.613 487.991 269.626 488.015 269.64 488.027C269.653 488.039 269.666 488.063 269.68 488.075C269.68 488.099 269.68 488.111 269.68 488.135C269.547 490.943 269.826 493.811 270.558 496.751H270.544Z" fill="#508FFF"/>
</g>
<g opacity="0.15" clip-path="url(#clip10_2008_14744)">
<path d="M197.095 488.882C196.762 492.254 197.587 495.698 200.155 498.194C200.527 498.554 200.9 498.914 201.272 499.274C203.228 501.122 205.596 502.322 208.376 502.886C209.374 503.09 211.01 503.186 213.285 503.174C224.567 503.15 243.391 503.15 254.699 503.162C254.699 503.162 254.726 503.162 254.739 503.162C254.739 503.162 254.766 503.162 254.766 503.174C254.766 503.174 254.779 503.186 254.779 503.198C254.779 503.198 254.779 503.222 254.779 503.234V512.03C254.779 512.03 254.779 512.054 254.766 512.066C254.766 512.066 254.739 512.078 254.726 512.078C243.205 512.078 224.048 512.078 212.301 512.078C210.119 512.078 208.43 511.982 207.259 511.802C199.223 510.566 192.691 505.61 189.419 498.914C188.86 497.762 188.448 496.49 188.168 495.098C187.663 492.482 187.516 489.854 187.703 487.226C187.756 486.446 187.916 485.618 188.182 484.73C189.778 479.378 192.997 475.166 197.84 472.094C201.286 469.91 205.13 468.662 209.334 468.338C210.438 468.254 211.543 468.206 212.647 468.206C217.183 468.206 221.72 468.206 226.216 468.206C226.376 468.206 226.509 468.266 226.602 468.374C228.731 470.714 229.383 474.218 228.85 477.134C228.85 477.17 228.824 477.182 228.797 477.182C223.463 477.206 218.194 477.206 213.006 477.17C211.037 477.158 209.507 477.266 208.416 477.482C204.039 478.382 200.447 480.914 198.518 484.634C198.332 484.982 198.159 485.33 197.973 485.678C197.494 486.59 197.188 487.658 197.068 488.882H197.095Z" fill="#508FFF"/>
<path d="M254.917 468.312V477.108C254.917 477.108 254.917 477.156 254.89 477.168C254.877 477.18 254.85 477.192 254.823 477.192H242.77C242.677 477.192 242.637 477.156 242.637 477.072C242.904 474.024 242.611 471.12 241.759 468.348C241.733 468.264 241.759 468.216 241.879 468.216H254.797C254.797 468.216 254.85 468.228 254.877 468.252C254.903 468.276 254.903 468.3 254.903 468.324L254.917 468.312Z" fill="#508FFF"/>
<path d="M235.626 488.593C231.235 493.681 224.477 496.837 217.253 496.873C211.998 496.897 206.823 496.909 201.728 496.897C201.608 496.897 201.515 496.861 201.436 496.777C199.214 494.509 198.722 491.317 199.214 488.137C199.227 488.041 199.294 487.993 199.4 487.993C204.548 487.969 209.631 487.969 214.646 487.993C216.828 488.005 218.491 487.909 219.635 487.693C223.147 487.045 225.994 485.425 228.162 482.833C231.382 478.981 231.954 473.989 229.759 469.597C227.816 465.697 224.504 463.249 219.821 462.253C218.823 462.037 217.386 461.941 215.537 461.941C203.71 461.965 182.132 461.965 170.984 461.941C170.957 461.941 170.931 461.941 170.917 461.917C170.904 461.905 170.891 461.881 170.891 461.857V453.133C170.891 453.073 170.917 453.037 170.997 453.037C182.318 453.049 203.79 453.037 215.231 453.037C217.36 453.037 219.009 453.097 220.153 453.241C229.413 454.369 236.85 460.333 239.683 468.337C240.388 470.341 240.747 472.561 240.747 475.021C240.761 480.097 239.058 484.621 235.626 488.605V488.593Z" fill="#508FFF"/>
<path d="M186.544 496.751C186.544 496.751 186.544 496.787 186.544 496.799C186.544 496.811 186.531 496.835 186.518 496.847C186.518 496.859 186.491 496.871 186.478 496.883C186.464 496.883 186.438 496.883 186.425 496.883H170.899C170.899 496.883 170.886 496.883 170.873 496.883H170.859C170.859 496.883 170.859 496.883 170.859 496.871C170.859 496.871 170.859 496.859 170.859 496.847V488.063C170.859 488.063 170.859 488.015 170.886 488.003C170.899 487.991 170.926 487.979 170.952 487.979H185.52C185.52 487.979 185.56 487.979 185.586 487.991C185.613 487.991 185.626 488.015 185.64 488.027C185.653 488.039 185.666 488.063 185.68 488.075C185.68 488.099 185.68 488.111 185.68 488.135C185.547 490.943 185.826 493.811 186.558 496.751H186.544Z" fill="#508FFF"/>
</g>
<g opacity="0.15" clip-path="url(#clip11_2008_14744)">
<path d="M27.0949 35.8821C26.7623 39.2541 27.5872 42.6981 30.1547 45.1941C30.5272 45.5541 30.8997 45.9141 31.2722 46.2741C33.2279 48.1221 35.5959 49.3221 38.3763 49.8861C39.3741 50.0901 41.0104 50.1861 43.2853 50.1741C54.5667 50.1501 73.3912 50.1501 84.6992 50.1621C84.6992 50.1621 84.7258 50.1621 84.7391 50.1621C84.7391 50.1621 84.7657 50.1621 84.7657 50.1741C84.7657 50.1741 84.779 50.1861 84.779 50.1981C84.779 50.1981 84.779 50.2221 84.779 50.2341V59.0301C84.779 59.0301 84.779 59.0541 84.7657 59.0661C84.7657 59.0661 84.7391 59.0781 84.7258 59.0781C73.2049 59.0781 54.0479 59.0781 42.3009 59.0781C40.1191 59.0781 38.4295 58.9821 37.2588 58.8021C29.2235 57.5661 22.6915 52.6101 19.4188 45.9141C18.8601 44.7621 18.4476 43.4901 18.1683 42.0981C17.6627 39.4821 17.5164 36.8541 17.7027 34.2261C17.7559 33.4461 17.9155 32.6181 18.1816 31.7301C19.778 26.3781 22.9975 22.1661 27.8399 19.0941C31.2855 16.9101 35.1303 15.6621 39.3342 15.3381C40.4384 15.2541 41.5426 15.2061 42.6467 15.2061C47.1832 15.2061 51.7197 15.2061 56.2163 15.2061C56.376 15.2061 56.509 15.2661 56.6021 15.3741C58.7307 17.7141 59.3826 21.2181 58.8504 24.1341C58.8504 24.1701 58.8238 24.1821 58.7972 24.1821C53.4625 24.2061 48.1943 24.2061 43.0059 24.1701C41.037 24.1581 39.5071 24.2661 38.4162 24.4821C34.0394 25.3821 30.4474 27.9141 28.5184 31.6341C28.3322 31.9821 28.1592 32.3301 27.973 32.6781C27.494 33.5901 27.1881 34.6581 27.0683 35.8821H27.0949Z" fill="#508FFF"/>
<path d="M84.9166 15.3118V24.1078C84.9166 24.1078 84.9166 24.1558 84.89 24.1678C84.8767 24.1798 84.8501 24.1918 84.8235 24.1918H72.7705C72.6774 24.1918 72.6375 24.1558 72.6375 24.0718C72.9035 21.0238 72.6109 18.1198 71.7594 15.3478C71.7328 15.2638 71.7594 15.2158 71.8792 15.2158H84.7969C84.7969 15.2158 84.8501 15.2278 84.8767 15.2518C84.9033 15.2758 84.9033 15.2998 84.9033 15.3238L84.9166 15.3118Z" fill="#508FFF"/>
<path d="M65.6256 35.5931C61.2354 40.6811 54.4771 43.8371 47.2533 43.8731C41.9984 43.8971 36.8234 43.9091 31.7281 43.8971C31.6084 43.8971 31.5154 43.8611 31.4356 43.7771C29.2139 41.5091 28.7216 38.3171 29.2139 35.1371C29.2272 35.0411 29.2936 34.9931 29.4 34.9931C34.5485 34.9691 39.6305 34.9691 44.646 34.9931C46.8277 35.0051 48.4907 34.9091 49.6348 34.6931C53.1469 34.0451 55.9939 32.4251 58.1623 29.8331C61.3818 25.9811 61.9538 20.9891 59.7588 16.5971C57.8164 12.6971 54.5037 10.2491 49.8209 9.25311C48.8231 9.03711 47.3863 8.94111 45.5372 8.94111C33.7103 8.96511 12.1321 8.96511 0.98375 8.94111C0.957143 8.94111 0.930536 8.94111 0.917232 8.91711C0.903929 8.90511 0.890625 8.88111 0.890625 8.85711V0.13311C0.890625 0.0731094 0.917232 0.0371094 0.997053 0.0371094C12.3183 0.0491094 33.7902 0.0371094 45.2312 0.0371094C47.3597 0.0371094 49.0094 0.0971094 50.1535 0.24111C59.4127 1.36911 66.8495 7.33311 69.6832 15.3371C70.3883 17.3411 70.7473 19.5611 70.7473 22.0211C70.7606 27.0971 69.0579 31.6211 65.6256 35.6051V35.5931Z" fill="#508FFF"/>
<path d="M16.5443 43.7505C16.5443 43.7505 16.5443 43.7865 16.5443 43.7985C16.5443 43.8105 16.531 43.8345 16.5177 43.8465C16.5177 43.8585 16.4911 43.8705 16.4778 43.8825C16.4645 43.8825 16.4379 43.8825 16.4246 43.8825H0.899286C0.899286 43.8825 0.885982 43.8825 0.872679 43.8825H0.859375C0.859375 43.8825 0.859375 43.8825 0.859375 43.8705C0.859375 43.8705 0.859375 43.8585 0.859375 43.8465V35.0625C0.859375 35.0625 0.859375 35.0145 0.885982 35.0025C0.899286 34.9905 0.925893 34.9785 0.9525 34.9785H15.5199C15.5199 34.9785 15.5598 34.9785 15.5864 34.9905C15.613 34.9905 15.6263 35.0145 15.6396 35.0265C15.6529 35.0385 15.6663 35.0625 15.6796 35.0745C15.6796 35.0985 15.6796 35.1105 15.6796 35.1345C15.5465 37.9425 15.8259 40.8105 16.5576 43.7505H16.5443Z" fill="#508FFF"/>
</g>
<g opacity="0.15" clip-path="url(#clip12_2008_14744)">
<path d="M281.095 96.4796C280.762 99.9078 281.587 103.409 284.155 105.947C284.527 106.313 284.9 106.679 285.272 107.045C287.228 108.924 289.596 110.144 292.376 110.717C293.374 110.924 295.01 111.022 297.285 111.01C308.567 110.985 327.391 110.985 338.699 110.998C338.699 110.998 338.726 110.998 338.739 110.998C338.739 110.998 338.766 110.998 338.766 111.01C338.766 111.01 338.779 111.022 338.779 111.034C338.779 111.034 338.779 111.059 338.779 111.071V120.013C338.779 120.013 338.779 120.038 338.766 120.05C338.766 120.05 338.739 120.062 338.726 120.062C327.205 120.062 308.048 120.062 296.301 120.062C294.119 120.062 292.43 119.965 291.259 119.782C283.223 118.525 276.691 113.486 273.419 106.679C272.86 105.508 272.448 104.214 272.168 102.799C271.663 100.14 271.516 97.4678 271.703 94.796C271.756 94.003 271.916 93.1612 272.182 92.2584C273.778 86.8172 276.997 82.535 281.84 79.4118C285.286 77.1914 289.13 75.9226 293.334 75.5932C294.438 75.5078 295.543 75.459 296.647 75.459C301.183 75.459 305.72 75.459 310.216 75.459C310.376 75.459 310.509 75.52 310.602 75.6298C312.731 78.0088 313.383 81.5712 312.85 84.5358C312.85 84.5724 312.824 84.5846 312.797 84.5846C307.463 84.609 302.194 84.609 297.006 84.5724C295.037 84.5602 293.507 84.67 292.416 84.8896C288.039 85.8046 284.447 88.3788 282.518 92.1608C282.332 92.5146 282.159 92.8684 281.973 93.2222C281.494 94.1494 281.188 95.2352 281.068 96.4796H281.095Z" fill="#508FFF"/>
<path d="M338.917 75.5663V84.509C338.917 84.509 338.917 84.5577 338.89 84.5699C338.877 84.5821 338.85 84.5943 338.823 84.5943H326.77C326.677 84.5943 326.637 84.5577 326.637 84.4723C326.904 81.3735 326.611 78.4211 325.759 75.6029C325.733 75.5175 325.759 75.4688 325.879 75.4688H338.797C338.797 75.4688 338.85 75.4809 338.877 75.5053C338.903 75.5297 338.903 75.5542 338.903 75.5786L338.917 75.5663Z" fill="#508FFF"/>
<path d="M319.626 96.1867C315.235 101.359 308.477 104.568 301.253 104.605C295.998 104.629 290.823 104.641 285.728 104.629C285.608 104.629 285.515 104.592 285.436 104.507C283.214 102.201 282.722 98.9561 283.214 95.7231C283.227 95.6255 283.294 95.5767 283.4 95.5767C288.548 95.5523 293.631 95.5523 298.646 95.5767C300.828 95.5889 302.491 95.4913 303.635 95.2717C307.147 94.6129 309.994 92.9659 312.162 90.3307C315.382 86.4145 315.954 81.3393 313.759 76.8741C311.816 72.9091 308.504 70.4203 303.821 69.4077C302.823 69.1881 301.386 69.0905 299.537 69.0905C287.71 69.1149 266.132 69.1149 254.984 69.0905C254.957 69.0905 254.931 69.0905 254.917 69.0661C254.904 69.0539 254.891 69.0295 254.891 69.0051V60.1357C254.891 60.0747 254.917 60.0381 254.997 60.0381C266.318 60.0503 287.79 60.0381 299.231 60.0381C301.36 60.0381 303.009 60.0991 304.153 60.2455C313.413 61.3923 320.85 67.4557 323.683 75.5931C324.388 77.6305 324.747 79.8875 324.747 82.3885C324.761 87.5491 323.058 92.1485 319.626 96.1989V96.1867Z" fill="#508FFF"/>
<path d="M270.544 104.479C270.544 104.479 270.544 104.515 270.544 104.528C270.544 104.54 270.531 104.564 270.518 104.576C270.518 104.589 270.491 104.601 270.478 104.613C270.464 104.613 270.438 104.613 270.425 104.613H254.899C254.899 104.613 254.886 104.613 254.873 104.613H254.859C254.859 104.613 254.859 104.613 254.859 104.601C254.859 104.601 254.859 104.589 254.859 104.576V95.6459C254.859 95.6459 254.859 95.5971 254.886 95.5849C254.899 95.5727 254.926 95.5605 254.952 95.5605H269.52C269.52 95.5605 269.56 95.5605 269.586 95.5727C269.613 95.5727 269.626 95.5971 269.64 95.6093C269.653 95.6215 269.666 95.6459 269.68 95.6581C269.68 95.6825 269.68 95.6947 269.68 95.7191C269.547 98.5739 269.826 101.49 270.558 104.479H270.544Z" fill="#508FFF"/>
</g>
<g opacity="0.15" clip-path="url(#clip13_2008_14744)">
<path d="M281.095 216.48C280.762 219.908 281.587 223.409 284.155 225.947C284.527 226.313 284.9 226.679 285.272 227.045C287.228 228.924 289.596 230.144 292.376 230.717C293.374 230.924 295.01 231.022 297.285 231.01C308.567 230.985 327.391 230.985 338.699 230.998C338.699 230.998 338.726 230.998 338.739 230.998C338.739 230.998 338.766 230.998 338.766 231.01C338.766 231.01 338.779 231.022 338.779 231.034C338.779 231.034 338.779 231.059 338.779 231.071V240.013C338.779 240.013 338.779 240.038 338.766 240.05C338.766 240.05 338.739 240.062 338.726 240.062C327.205 240.062 308.048 240.062 296.301 240.062C294.119 240.062 292.43 239.965 291.259 239.782C283.223 238.525 276.691 233.486 273.419 226.679C272.86 225.508 272.448 224.214 272.168 222.799C271.663 220.14 271.516 217.468 271.703 214.796C271.756 214.003 271.916 213.161 272.182 212.258C273.778 206.817 276.997 202.535 281.84 199.412C285.286 197.191 289.13 195.923 293.334 195.593C294.438 195.508 295.543 195.459 296.647 195.459C301.183 195.459 305.72 195.459 310.216 195.459C310.376 195.459 310.509 195.52 310.602 195.63C312.731 198.009 313.383 201.571 312.85 204.536C312.85 204.572 312.824 204.585 312.797 204.585C307.463 204.609 302.194 204.609 297.006 204.572C295.037 204.56 293.507 204.67 292.416 204.89C288.039 205.805 284.447 208.379 282.518 212.161C282.332 212.515 282.159 212.868 281.973 213.222C281.494 214.149 281.188 215.235 281.068 216.48H281.095Z" fill="#508FFF"/>
<path d="M338.917 195.566V204.509C338.917 204.509 338.917 204.558 338.89 204.57C338.877 204.582 338.85 204.594 338.823 204.594H326.77C326.677 204.594 326.637 204.558 326.637 204.472C326.904 201.374 326.611 198.421 325.759 195.603C325.733 195.518 325.759 195.469 325.879 195.469H338.797C338.797 195.469 338.85 195.481 338.877 195.505C338.903 195.53 338.903 195.554 338.903 195.579L338.917 195.566Z" fill="#508FFF"/>
<path d="M319.626 216.187C315.235 221.359 308.477 224.568 301.253 224.605C295.998 224.629 290.823 224.641 285.728 224.629C285.608 224.629 285.515 224.592 285.436 224.507C283.214 222.201 282.722 218.956 283.214 215.723C283.227 215.625 283.294 215.577 283.4 215.577C288.548 215.552 293.631 215.552 298.646 215.577C300.828 215.589 302.491 215.491 303.635 215.272C307.147 214.613 309.994 212.966 312.162 210.331C315.382 206.414 315.954 201.339 313.759 196.874C311.816 192.909 308.504 190.42 303.821 189.408C302.823 189.188 301.386 189.09 299.537 189.09C287.71 189.115 266.132 189.115 254.984 189.09C254.957 189.09 254.931 189.09 254.917 189.066C254.904 189.054 254.891 189.029 254.891 189.005V180.136C254.891 180.075 254.917 180.038 254.997 180.038C266.318 180.05 287.79 180.038 299.231 180.038C301.36 180.038 303.009 180.099 304.153 180.245C313.413 181.392 320.85 187.456 323.683 195.593C324.388 197.63 324.747 199.887 324.747 202.388C324.761 207.549 323.058 212.148 319.626 216.199V216.187Z" fill="#508FFF"/>
<path d="M270.544 224.479C270.544 224.479 270.544 224.515 270.544 224.528C270.544 224.54 270.531 224.564 270.518 224.576C270.518 224.589 270.491 224.601 270.478 224.613C270.464 224.613 270.438 224.613 270.425 224.613H254.899C254.899 224.613 254.886 224.613 254.873 224.613H254.859C254.859 224.613 254.859 224.613 254.859 224.601C254.859 224.601 254.859 224.589 254.859 224.576V215.646C254.859 215.646 254.859 215.597 254.886 215.585C254.899 215.573 254.926 215.561 254.952 215.561H269.52C269.52 215.561 269.56 215.561 269.586 215.573C269.613 215.573 269.626 215.597 269.64 215.609C269.653 215.622 269.666 215.646 269.68 215.658C269.68 215.683 269.68 215.695 269.68 215.719C269.547 218.574 269.826 221.49 270.558 224.479H270.544Z" fill="#508FFF"/>
</g>
<g opacity="0.15" clip-path="url(#clip14_2008_14744)">
<path d="M281.095 549.48C280.762 552.908 281.587 556.409 284.155 558.947C284.527 559.313 284.9 559.679 285.272 560.045C287.228 561.924 289.596 563.144 292.376 563.717C293.374 563.924 295.01 564.022 297.285 564.01C308.567 563.985 327.391 563.985 338.699 563.998C338.699 563.998 338.726 563.998 338.739 563.998C338.739 563.998 338.766 563.998 338.766 564.01C338.766 564.01 338.779 564.022 338.779 564.034C338.779 564.034 338.779 564.059 338.779 564.071V573.013C338.779 573.013 338.779 573.038 338.766 573.05C338.766 573.05 338.739 573.062 338.726 573.062C327.205 573.062 308.048 573.062 296.301 573.062C294.119 573.062 292.43 572.965 291.259 572.782C283.223 571.525 276.691 566.486 273.419 559.679C272.86 558.508 272.448 557.214 272.168 555.799C271.663 553.14 271.516 550.468 271.703 547.796C271.756 547.003 271.916 546.161 272.182 545.258C273.778 539.817 276.997 535.535 281.84 532.412C285.286 530.191 289.13 528.923 293.334 528.593C294.438 528.508 295.543 528.459 296.647 528.459C301.183 528.459 305.72 528.459 310.216 528.459C310.376 528.459 310.509 528.52 310.602 528.63C312.731 531.009 313.383 534.571 312.85 537.536C312.85 537.572 312.824 537.585 312.797 537.585C307.463 537.609 302.194 537.609 297.006 537.572C295.037 537.56 293.507 537.67 292.416 537.89C288.039 538.805 284.447 541.379 282.518 545.161C282.332 545.515 282.159 545.868 281.973 546.222C281.494 547.149 281.188 548.235 281.068 549.48H281.095Z" fill="#508FFF"/>
<path d="M338.917 528.566V537.509C338.917 537.509 338.917 537.558 338.89 537.57C338.877 537.582 338.85 537.594 338.823 537.594H326.77C326.677 537.594 326.637 537.558 326.637 537.472C326.904 534.374 326.611 531.421 325.759 528.603C325.733 528.518 325.759 528.469 325.879 528.469H338.797C338.797 528.469 338.85 528.481 338.877 528.505C338.903 528.53 338.903 528.554 338.903 528.579L338.917 528.566Z" fill="#508FFF"/>
<path d="M319.626 549.187C315.235 554.359 308.477 557.568 301.253 557.605C295.998 557.629 290.823 557.641 285.728 557.629C285.608 557.629 285.515 557.592 285.436 557.507C283.214 555.201 282.722 551.956 283.214 548.723C283.227 548.625 283.294 548.577 283.4 548.577C288.548 548.552 293.631 548.552 298.646 548.577C300.828 548.589 302.491 548.491 303.635 548.272C307.147 547.613 309.994 545.966 312.162 543.331C315.382 539.414 315.954 534.339 313.759 529.874C311.816 525.909 308.504 523.42 303.821 522.408C302.823 522.188 301.386 522.09 299.537 522.09C287.71 522.115 266.132 522.115 254.984 522.09C254.957 522.09 254.931 522.09 254.917 522.066C254.904 522.054 254.891 522.029 254.891 522.005V513.136C254.891 513.075 254.917 513.038 254.997 513.038C266.318 513.05 287.79 513.038 299.231 513.038C301.36 513.038 303.009 513.099 304.153 513.245C313.413 514.392 320.85 520.456 323.683 528.593C324.388 530.63 324.747 532.887 324.747 535.388C324.761 540.549 323.058 545.148 319.626 549.199V549.187Z" fill="#508FFF"/>
<path d="M270.544 557.479C270.544 557.479 270.544 557.515 270.544 557.528C270.544 557.54 270.531 557.564 270.518 557.576C270.518 557.589 270.491 557.601 270.478 557.613C270.464 557.613 270.438 557.613 270.425 557.613H254.899C254.899 557.613 254.886 557.613 254.873 557.613H254.859C254.859 557.613 254.859 557.613 254.859 557.601C254.859 557.601 254.859 557.589 254.859 557.576V548.646C254.859 548.646 254.859 548.597 254.886 548.585C254.899 548.573 254.926 548.561 254.952 548.561H269.52C269.52 548.561 269.56 548.561 269.586 548.573C269.613 548.573 269.626 548.597 269.64 548.609C269.653 548.622 269.666 548.646 269.68 548.658C269.68 548.683 269.68 548.695 269.68 548.719C269.547 551.574 269.826 554.49 270.558 557.479H270.544Z" fill="#508FFF"/>
</g>
<g opacity="0.15" clip-path="url(#clip15_2008_14744)">
<path d="M281.095 428.48C280.762 431.908 281.587 435.409 284.155 437.947C284.527 438.313 284.9 438.679 285.272 439.045C287.228 440.924 289.596 442.144 292.376 442.717C293.374 442.924 295.01 443.022 297.285 443.01C308.567 442.985 327.391 442.985 338.699 442.998C338.699 442.998 338.726 442.998 338.739 442.998C338.739 442.998 338.766 442.998 338.766 443.01C338.766 443.01 338.779 443.022 338.779 443.034C338.779 443.034 338.779 443.059 338.779 443.071V452.013C338.779 452.013 338.779 452.038 338.766 452.05C338.766 452.05 338.739 452.062 338.726 452.062C327.205 452.062 308.048 452.062 296.301 452.062C294.119 452.062 292.43 451.965 291.259 451.782C283.223 450.525 276.691 445.486 273.419 438.679C272.86 437.508 272.448 436.214 272.168 434.799C271.663 432.14 271.516 429.468 271.703 426.796C271.756 426.003 271.916 425.161 272.182 424.258C273.778 418.817 276.997 414.535 281.84 411.412C285.286 409.191 289.13 407.923 293.334 407.593C294.438 407.508 295.543 407.459 296.647 407.459C301.183 407.459 305.72 407.459 310.216 407.459C310.376 407.459 310.509 407.52 310.602 407.63C312.731 410.009 313.383 413.571 312.85 416.536C312.85 416.572 312.824 416.585 312.797 416.585C307.463 416.609 302.194 416.609 297.006 416.572C295.037 416.56 293.507 416.67 292.416 416.89C288.039 417.805 284.447 420.379 282.518 424.161C282.332 424.515 282.159 424.868 281.973 425.222C281.494 426.149 281.188 427.235 281.068 428.48H281.095Z" fill="#508FFF"/>
<path d="M338.917 407.566V416.509C338.917 416.509 338.917 416.558 338.89 416.57C338.877 416.582 338.85 416.594 338.823 416.594H326.77C326.677 416.594 326.637 416.558 326.637 416.472C326.904 413.374 326.611 410.421 325.759 407.603C325.733 407.518 325.759 407.469 325.879 407.469H338.797C338.797 407.469 338.85 407.481 338.877 407.505C338.903 407.53 338.903 407.554 338.903 407.579L338.917 407.566Z" fill="#508FFF"/>
<path d="M319.626 428.187C315.235 433.359 308.477 436.568 301.253 436.605C295.998 436.629 290.823 436.641 285.728 436.629C285.608 436.629 285.515 436.592 285.436 436.507C283.214 434.201 282.722 430.956 283.214 427.723C283.227 427.625 283.294 427.577 283.4 427.577C288.548 427.552 293.631 427.552 298.646 427.577C300.828 427.589 302.491 427.491 303.635 427.272C307.147 426.613 309.994 424.966 312.162 422.331C315.382 418.414 315.954 413.339 313.759 408.874C311.816 404.909 308.504 402.42 303.821 401.408C302.823 401.188 301.386 401.09 299.537 401.09C287.71 401.115 266.132 401.115 254.984 401.09C254.957 401.09 254.931 401.09 254.917 401.066C254.904 401.054 254.891 401.029 254.891 401.005V392.136C254.891 392.075 254.917 392.038 254.997 392.038C266.318 392.05 287.79 392.038 299.231 392.038C301.36 392.038 303.009 392.099 304.153 392.245C313.413 393.392 320.85 399.456 323.683 407.593C324.388 409.63 324.747 411.887 324.747 414.388C324.761 419.549 323.058 424.148 319.626 428.199V428.187Z" fill="#508FFF"/>
<path d="M270.544 436.479C270.544 436.479 270.544 436.515 270.544 436.528C270.544 436.54 270.531 436.564 270.518 436.576C270.518 436.589 270.491 436.601 270.478 436.613C270.464 436.613 270.438 436.613 270.425 436.613H254.899C254.899 436.613 254.886 436.613 254.873 436.613H254.859C254.859 436.613 254.859 436.613 254.859 436.601C254.859 436.601 254.859 436.589 254.859 436.576V427.646C254.859 427.646 254.859 427.597 254.886 427.585C254.899 427.573 254.926 427.561 254.952 427.561H269.52C269.52 427.561 269.56 427.561 269.586 427.573C269.613 427.573 269.626 427.597 269.64 427.609C269.653 427.622 269.666 427.646 269.68 427.658C269.68 427.683 269.68 427.695 269.68 427.719C269.547 430.574 269.826 433.49 270.558 436.479H270.544Z" fill="#508FFF"/>
</g>
<defs>
<clipPath id="clip0_2008_14744">
<rect width="85" height="60" fill="white" transform="translate(85)"/>
</clipPath>
<clipPath id="clip1_2008_14744">
<rect width="85" height="61" fill="white" transform="translate(85 60)"/>
</clipPath>
<clipPath id="clip2_2008_14744">
<rect width="84" height="60" fill="white" transform="translate(170)"/>
</clipPath>
<clipPath id="clip3_2008_14744">
<rect width="84" height="60" fill="white" transform="translate(170 120)"/>
</clipPath>
<clipPath id="clip4_2008_14744">
<rect width="84" height="60" fill="white" transform="translate(170 514)"/>
</clipPath>
<clipPath id="clip5_2008_14744">
<rect width="84" height="60" fill="white" transform="translate(86 514)"/>
</clipPath>
<clipPath id="clip6_2008_14744">
<rect width="84" height="61" fill="white" transform="translate(170 60)"/>
</clipPath>
<clipPath id="clip7_2008_14744">
<rect width="85" height="60" fill="white" transform="translate(254)"/>
</clipPath>
<clipPath id="clip8_2008_14744">
<rect width="85" height="60" fill="white" transform="translate(254 120)"/>
</clipPath>
<clipPath id="clip9_2008_14744">
<rect width="85" height="60" fill="white" transform="translate(254 453)"/>
</clipPath>
<clipPath id="clip10_2008_14744">
<rect width="85" height="60" fill="white" transform="translate(170 453)"/>
</clipPath>
<clipPath id="clip11_2008_14744">
<rect width="85" height="60" fill="white"/>
</clipPath>
<clipPath id="clip12_2008_14744">
<rect width="85" height="61" fill="white" transform="translate(254 60)"/>
</clipPath>
<clipPath id="clip13_2008_14744">
<rect width="85" height="61" fill="white" transform="translate(254 180)"/>
</clipPath>
<clipPath id="clip14_2008_14744">
<rect width="85" height="61" fill="white" transform="translate(254 513)"/>
</clipPath>
<clipPath id="clip15_2008_14744">
<rect width="85" height="61" fill="white" transform="translate(254 392)"/>
</clipPath>
</defs>
</svg>
