<svg width="360" height="163" viewBox="0 0 360 163" fill="none" xmlns="http://www.w3.org/2000/svg">
<g opacity="0.15" clip-path="url(#clip0_2007_14727)">
<path d="M265.848 146.922C265.629 149.17 266.173 151.466 267.864 153.13C268.11 153.37 268.355 153.61 268.6 153.85C269.889 155.082 271.449 155.882 273.281 156.258C273.938 156.394 275.016 156.458 276.515 156.45C283.947 156.434 296.349 156.434 303.799 156.442C303.799 156.442 303.817 156.442 303.826 156.442C303.826 156.442 303.843 156.442 303.843 156.45C303.843 156.45 303.852 156.458 303.852 156.466C303.852 156.466 303.852 156.482 303.852 156.49V162.354C303.852 162.354 303.852 162.37 303.843 162.378C303.843 162.378 303.826 162.386 303.817 162.386C296.227 162.386 283.606 162.386 275.866 162.386C274.429 162.386 273.316 162.322 272.545 162.202C267.251 161.378 262.947 158.074 260.791 153.61C260.423 152.842 260.151 151.994 259.967 151.066C259.634 149.322 259.538 147.57 259.661 145.818C259.696 145.298 259.801 144.746 259.976 144.154C261.028 140.586 263.149 137.778 266.339 135.73C268.609 134.274 271.142 133.442 273.912 133.226C274.639 133.17 275.367 133.138 276.094 133.138C279.083 133.138 282.072 133.138 285.034 133.138C285.139 133.138 285.227 133.178 285.288 133.25C286.691 134.81 287.12 137.146 286.77 139.09C286.77 139.114 286.752 139.122 286.735 139.122C283.22 139.138 279.749 139.138 276.331 139.114C275.034 139.106 274.026 139.178 273.307 139.322C270.424 139.922 268.057 141.61 266.786 144.09C266.664 144.322 266.55 144.554 266.427 144.786C266.111 145.394 265.91 146.106 265.831 146.922H265.848Z" fill="#508FFF"/>
<path d="M303.94 133.209V139.073C303.94 139.073 303.94 139.105 303.923 139.113C303.914 139.121 303.896 139.129 303.879 139.129H295.938C295.877 139.129 295.85 139.105 295.85 139.049C296.026 137.017 295.833 135.081 295.272 133.233C295.254 133.177 295.272 133.145 295.351 133.145H303.861C303.861 133.145 303.896 133.153 303.914 133.169C303.931 133.185 303.931 133.201 303.931 133.217L303.94 133.209Z" fill="#508FFF"/>
<path d="M291.235 146.729C288.343 150.121 283.89 152.225 279.131 152.249C275.669 152.265 272.259 152.273 268.902 152.265C268.824 152.265 268.762 152.241 268.71 152.185C267.246 150.673 266.922 148.545 267.246 146.425C267.255 146.361 267.298 146.329 267.369 146.329C270.761 146.313 274.109 146.313 277.413 146.329C278.85 146.337 279.946 146.273 280.7 146.129C283.014 145.697 284.889 144.617 286.318 142.889C288.439 140.321 288.816 136.993 287.37 134.065C286.09 131.465 283.908 129.833 280.822 129.169C280.165 129.025 279.218 128.961 278 128.961C270.208 128.977 255.992 128.977 248.647 128.961C248.63 128.961 248.612 128.961 248.603 128.945C248.595 128.937 248.586 128.921 248.586 128.905V123.089C248.586 123.049 248.603 123.025 248.656 123.025C256.115 123.033 270.261 123.025 277.799 123.025C279.201 123.025 280.288 123.065 281.041 123.161C287.142 123.913 292.041 127.889 293.908 133.225C294.373 134.561 294.609 136.041 294.609 137.681C294.618 141.065 293.496 144.081 291.235 146.737V146.729Z" fill="#508FFF"/>
<path d="M258.904 152.166C258.904 152.166 258.904 152.19 258.904 152.198C258.904 152.206 258.895 152.222 258.886 152.23C258.886 152.238 258.869 152.246 258.86 152.254C258.851 152.254 258.834 152.254 258.825 152.254H248.597C248.597 152.254 248.588 152.254 248.579 152.254H248.57C248.57 152.254 248.57 152.254 248.57 152.246C248.57 152.246 248.57 152.238 248.57 152.23V146.374C248.57 146.374 248.57 146.342 248.588 146.334C248.597 146.326 248.614 146.318 248.632 146.318H258.229C258.229 146.318 258.255 146.318 258.273 146.326C258.29 146.326 258.299 146.342 258.308 146.35C258.317 146.358 258.325 146.374 258.334 146.382C258.334 146.398 258.334 146.406 258.334 146.422C258.247 148.294 258.431 150.206 258.913 152.166H258.904Z" fill="#508FFF"/>
</g>
<g opacity="0.15" clip-path="url(#clip1_2007_14727)">
<path d="M73.8484 146.922C73.6293 149.17 74.1727 151.466 75.8643 153.13C76.1097 153.37 76.3551 153.61 76.6005 153.85C77.8889 155.082 79.449 155.882 81.2808 156.258C81.9382 156.394 83.0162 156.458 84.515 156.45C91.9474 156.434 104.349 156.434 111.799 156.442C111.799 156.442 111.817 156.442 111.826 156.442C111.826 156.442 111.843 156.442 111.843 156.45C111.843 156.45 111.852 156.458 111.852 156.466C111.852 156.466 111.852 156.482 111.852 156.49V162.354C111.852 162.354 111.852 162.37 111.843 162.378C111.843 162.378 111.826 162.386 111.817 162.386C104.227 162.386 91.6056 162.386 83.8664 162.386C82.429 162.386 81.3159 162.322 80.5446 162.202C75.2507 161.378 70.9473 158.074 68.7912 153.61C68.4231 152.842 68.1514 151.994 67.9673 151.066C67.6342 149.322 67.5378 147.57 67.6605 145.818C67.6956 145.298 67.8008 144.746 67.9761 144.154C69.0278 140.586 71.1489 137.778 74.3392 135.73C76.6093 134.274 79.1423 133.442 81.9119 133.226C82.6394 133.17 83.3668 133.138 84.0943 133.138C87.083 133.138 90.0718 133.138 93.0343 133.138C93.1394 133.138 93.2271 133.178 93.2884 133.25C94.6908 134.81 95.1202 137.146 94.7697 139.09C94.7697 139.114 94.7521 139.122 94.7346 139.122C91.22 139.138 87.7492 139.138 84.3309 139.114C83.0338 139.106 82.0258 139.178 81.3071 139.322C78.4235 139.922 76.0571 141.61 74.7862 144.09C74.6635 144.322 74.5496 144.554 74.4269 144.786C74.1113 145.394 73.9097 146.106 73.8309 146.922H73.8484Z" fill="#508FFF"/>
<path d="M111.94 133.209V139.073C111.94 139.073 111.94 139.105 111.923 139.113C111.914 139.121 111.896 139.129 111.879 139.129H103.938C103.877 139.129 103.85 139.105 103.85 139.049C104.026 137.017 103.833 135.081 103.272 133.233C103.254 133.177 103.272 133.145 103.351 133.145H111.861C111.861 133.145 111.896 133.153 111.914 133.169C111.931 133.185 111.931 133.201 111.931 133.217L111.94 133.209Z" fill="#508FFF"/>
<path d="M99.2349 146.729C96.3425 150.121 91.89 152.225 87.1308 152.249C83.6687 152.265 80.2593 152.273 76.9024 152.265C76.8235 152.265 76.7623 152.241 76.7097 152.185C75.246 150.673 74.9217 148.545 75.246 146.425C75.2547 146.361 75.2985 146.329 75.3686 146.329C78.7605 146.313 82.1087 146.313 85.413 146.329C86.8504 146.337 87.946 146.273 88.6997 146.129C91.0136 145.697 92.8892 144.617 94.3179 142.889C96.4389 140.321 96.8158 136.993 95.3696 134.065C94.09 131.465 91.9075 129.833 88.8223 129.169C88.165 129.025 87.2184 128.961 86.0001 128.961C78.2083 128.977 63.9921 128.977 56.6473 128.961C56.6298 128.961 56.6122 128.961 56.6035 128.945C56.5947 128.937 56.5859 128.921 56.5859 128.905V123.089C56.5859 123.049 56.6035 123.025 56.6561 123.025C64.1148 123.033 78.2609 123.025 85.7985 123.025C87.2009 123.025 88.2877 123.065 89.0415 123.161C95.1417 123.913 100.041 127.889 101.908 133.225C102.373 134.561 102.609 136.041 102.609 137.681C102.618 141.065 101.496 144.081 99.2349 146.737V146.729Z" fill="#508FFF"/>
<path d="M66.9039 152.166C66.9039 152.166 66.9039 152.19 66.9039 152.198C66.9039 152.206 66.8951 152.222 66.8864 152.23C66.8864 152.238 66.8688 152.246 66.8601 152.254C66.8513 152.254 66.8338 152.254 66.825 152.254H56.5966C56.5966 152.254 56.5878 152.254 56.5791 152.254H56.5703C56.5703 152.254 56.5703 152.254 56.5703 152.246C56.5703 152.246 56.5703 152.238 56.5703 152.23V146.374C56.5703 146.374 56.5703 146.342 56.5878 146.334C56.5966 146.326 56.6141 146.318 56.6317 146.318H66.229C66.229 146.318 66.2553 146.318 66.2728 146.326C66.2904 146.326 66.2991 146.342 66.3079 146.35C66.3167 146.358 66.3254 146.374 66.3342 146.382C66.3342 146.398 66.3342 146.406 66.3342 146.422C66.2465 148.294 66.4306 150.206 66.9127 152.166H66.9039Z" fill="#508FFF"/>
</g>
<g opacity="0.15" clip-path="url(#clip2_2007_14727)">
<path d="M129.848 146.922C129.629 149.17 130.173 151.466 131.864 153.13C132.11 153.37 132.355 153.61 132.6 153.85C133.889 155.082 135.449 155.882 137.281 156.258C137.938 156.394 139.016 156.458 140.515 156.45C147.947 156.434 160.349 156.434 167.799 156.442C167.799 156.442 167.817 156.442 167.826 156.442C167.826 156.442 167.843 156.442 167.843 156.45C167.843 156.45 167.852 156.458 167.852 156.466C167.852 156.466 167.852 156.482 167.852 156.49V162.354C167.852 162.354 167.852 162.37 167.843 162.378C167.843 162.378 167.826 162.386 167.817 162.386C160.227 162.386 147.606 162.386 139.866 162.386C138.429 162.386 137.316 162.322 136.545 162.202C131.251 161.378 126.947 158.074 124.791 153.61C124.423 152.842 124.151 151.994 123.967 151.066C123.634 149.322 123.538 147.57 123.661 145.818C123.696 145.298 123.801 144.746 123.976 144.154C125.028 140.586 127.149 137.778 130.339 135.73C132.609 134.274 135.142 133.442 137.912 133.226C138.639 133.17 139.367 133.138 140.094 133.138C143.083 133.138 146.072 133.138 149.034 133.138C149.139 133.138 149.227 133.178 149.288 133.25C150.691 134.81 151.12 137.146 150.77 139.09C150.77 139.114 150.752 139.122 150.735 139.122C147.22 139.138 143.749 139.138 140.331 139.114C139.034 139.106 138.026 139.178 137.307 139.322C134.424 139.922 132.057 141.61 130.786 144.09C130.664 144.322 130.55 144.554 130.427 144.786C130.111 145.394 129.91 146.106 129.831 146.922H129.848Z" fill="#508FFF"/>
<path d="M167.94 133.209V139.073C167.94 139.073 167.94 139.105 167.923 139.113C167.914 139.121 167.896 139.129 167.879 139.129H159.938C159.877 139.129 159.85 139.105 159.85 139.049C160.026 137.017 159.833 135.081 159.272 133.233C159.254 133.177 159.272 133.145 159.351 133.145H167.861C167.861 133.145 167.896 133.153 167.914 133.169C167.931 133.185 167.931 133.201 167.931 133.217L167.94 133.209Z" fill="#508FFF"/>
<path d="M155.235 146.729C152.343 150.121 147.89 152.225 143.131 152.249C139.669 152.265 136.259 152.273 132.902 152.265C132.824 152.265 132.762 152.241 132.71 152.185C131.246 150.673 130.922 148.545 131.246 146.425C131.255 146.361 131.298 146.329 131.369 146.329C134.761 146.313 138.109 146.313 141.413 146.329C142.85 146.337 143.946 146.273 144.7 146.129C147.014 145.697 148.889 144.617 150.318 142.889C152.439 140.321 152.816 136.993 151.37 134.065C150.09 131.465 147.908 129.833 144.822 129.169C144.165 129.025 143.218 128.961 142 128.961C134.208 128.977 119.992 128.977 112.647 128.961C112.63 128.961 112.612 128.961 112.603 128.945C112.595 128.937 112.586 128.921 112.586 128.905V123.089C112.586 123.049 112.603 123.025 112.656 123.025C120.115 123.033 134.261 123.025 141.799 123.025C143.201 123.025 144.288 123.065 145.041 123.161C151.142 123.913 156.041 127.889 157.908 133.225C158.373 134.561 158.609 136.041 158.609 137.681C158.618 141.065 157.496 144.081 155.235 146.737V146.729Z" fill="#508FFF"/>
<path d="M122.904 152.166C122.904 152.166 122.904 152.19 122.904 152.198C122.904 152.206 122.895 152.222 122.886 152.23C122.886 152.238 122.869 152.246 122.86 152.254C122.851 152.254 122.834 152.254 122.825 152.254H112.597C112.597 152.254 112.588 152.254 112.579 152.254H112.57C112.57 152.254 112.57 152.254 112.57 152.246C112.57 152.246 112.57 152.238 112.57 152.23V146.374C112.57 146.374 112.57 146.342 112.588 146.334C112.597 146.326 112.614 146.318 112.632 146.318H122.229C122.229 146.318 122.255 146.318 122.273 146.326C122.29 146.326 122.299 146.342 122.308 146.35C122.317 146.358 122.325 146.374 122.334 146.382C122.334 146.398 122.334 146.406 122.334 146.422C122.247 148.294 122.431 150.206 122.913 152.166H122.904Z" fill="#508FFF"/>
</g>
<g opacity="0.15" clip-path="url(#clip3_2007_14727)">
<path d="M265.848 105.922C265.629 108.17 266.173 110.466 267.864 112.13C268.11 112.37 268.355 112.61 268.6 112.85C269.889 114.082 271.449 114.882 273.281 115.258C273.938 115.394 275.016 115.458 276.515 115.45C283.947 115.434 296.349 115.434 303.799 115.442C303.799 115.442 303.817 115.442 303.826 115.442C303.826 115.442 303.843 115.442 303.843 115.45C303.843 115.45 303.852 115.458 303.852 115.466C303.852 115.466 303.852 115.482 303.852 115.49V121.354C303.852 121.354 303.852 121.37 303.843 121.378C303.843 121.378 303.826 121.386 303.817 121.386C296.227 121.386 283.606 121.386 275.866 121.386C274.429 121.386 273.316 121.322 272.545 121.202C267.251 120.378 262.947 117.074 260.791 112.61C260.423 111.842 260.151 110.994 259.967 110.066C259.634 108.322 259.538 106.57 259.661 104.818C259.696 104.298 259.801 103.746 259.976 103.154C261.028 99.5857 263.149 96.7777 266.339 94.7297C268.609 93.2737 271.142 92.4417 273.912 92.2257C274.639 92.1697 275.367 92.1377 276.094 92.1377C279.083 92.1377 282.072 92.1377 285.034 92.1377C285.139 92.1377 285.227 92.1777 285.288 92.2497C286.691 93.8097 287.12 96.1457 286.77 98.0897C286.77 98.1137 286.752 98.1217 286.735 98.1217C283.22 98.1377 279.749 98.1377 276.331 98.1137C275.034 98.1057 274.026 98.1777 273.307 98.3217C270.424 98.9217 268.057 100.61 266.786 103.09C266.664 103.322 266.55 103.554 266.427 103.786C266.111 104.394 265.91 105.106 265.831 105.922H265.848Z" fill="#508FFF"/>
<path d="M303.94 92.2085V98.0725C303.94 98.0725 303.94 98.1045 303.923 98.1125C303.914 98.1205 303.896 98.1285 303.879 98.1285H295.938C295.877 98.1285 295.85 98.1045 295.85 98.0485C296.026 96.0165 295.833 94.0805 295.272 92.2325C295.254 92.1765 295.272 92.1445 295.351 92.1445H303.861C303.861 92.1445 303.896 92.1525 303.914 92.1685C303.931 92.1845 303.931 92.2005 303.931 92.2165L303.94 92.2085Z" fill="#508FFF"/>
<path d="M291.235 105.729C288.343 109.121 283.89 111.225 279.131 111.249C275.669 111.265 272.259 111.273 268.902 111.265C268.824 111.265 268.762 111.241 268.71 111.185C267.246 109.673 266.922 107.545 267.246 105.425C267.255 105.361 267.298 105.329 267.369 105.329C270.761 105.313 274.109 105.313 277.413 105.329C278.85 105.337 279.946 105.273 280.7 105.129C283.014 104.697 284.889 103.617 286.318 101.889C288.439 99.3214 288.816 95.9934 287.37 93.0654C286.09 90.4654 283.908 88.8334 280.822 88.1694C280.165 88.0254 279.218 87.9614 278 87.9614C270.208 87.9774 255.992 87.9774 248.647 87.9614C248.63 87.9614 248.612 87.9614 248.603 87.9454C248.595 87.9374 248.586 87.9214 248.586 87.9054V82.0894C248.586 82.0494 248.603 82.0254 248.656 82.0254C256.115 82.0334 270.261 82.0254 277.799 82.0254C279.201 82.0254 280.288 82.0654 281.041 82.1614C287.142 82.9134 292.041 86.8894 293.908 92.2254C294.373 93.5614 294.609 95.0414 294.609 96.6814C294.618 100.065 293.496 103.081 291.235 105.737V105.729Z" fill="#508FFF"/>
<path d="M258.904 111.166C258.904 111.166 258.904 111.19 258.904 111.198C258.904 111.206 258.895 111.222 258.886 111.23C258.886 111.238 258.869 111.246 258.86 111.254C258.851 111.254 258.834 111.254 258.825 111.254H248.597C248.597 111.254 248.588 111.254 248.579 111.254H248.57C248.57 111.254 248.57 111.254 248.57 111.246C248.57 111.246 248.57 111.238 248.57 111.23V105.374C248.57 105.374 248.57 105.342 248.588 105.334C248.597 105.326 248.614 105.318 248.632 105.318H258.229C258.229 105.318 258.255 105.318 258.273 105.326C258.29 105.326 258.299 105.342 258.308 105.35C258.317 105.358 258.325 105.374 258.334 105.382C258.334 105.398 258.334 105.406 258.334 105.422C258.247 107.294 258.431 109.206 258.913 111.166H258.904Z" fill="#508FFF"/>
</g>
<g opacity="0.15" clip-path="url(#clip4_2007_14727)">
<path d="M17.8484 105.922C17.6293 108.17 18.1727 110.466 19.8643 112.13C20.1097 112.37 20.3551 112.61 20.6005 112.85C21.8889 114.082 23.449 114.882 25.2808 115.258C25.9382 115.394 27.0162 115.458 28.515 115.45C35.9474 115.434 48.3494 115.434 55.7994 115.442C55.7994 115.442 55.8169 115.442 55.8257 115.442C55.8257 115.442 55.8432 115.442 55.8432 115.45C55.8432 115.45 55.852 115.458 55.852 115.466C55.852 115.466 55.852 115.482 55.852 115.49V121.354C55.852 121.354 55.852 121.37 55.8432 121.378C55.8432 121.378 55.8257 121.386 55.8169 121.386C48.2267 121.386 35.6056 121.386 27.8664 121.386C26.429 121.386 25.3159 121.322 24.5446 121.202C19.2507 120.378 14.9473 117.074 12.7912 112.61C12.4231 111.842 12.1514 110.994 11.9673 110.066C11.6342 108.322 11.5378 106.57 11.6605 104.818C11.6956 104.298 11.8008 103.746 11.9761 103.154C13.0278 99.5857 15.1489 96.7777 18.3392 94.7297C20.6093 93.2737 23.1423 92.4417 25.9119 92.2257C26.6394 92.1697 27.3668 92.1377 28.0943 92.1377C31.083 92.1377 34.0718 92.1377 37.0343 92.1377C37.1394 92.1377 37.2271 92.1777 37.2884 92.2497C38.6908 93.8097 39.1202 96.1457 38.7697 98.0897C38.7697 98.1137 38.7521 98.1217 38.7346 98.1217C35.22 98.1377 31.7492 98.1377 28.3309 98.1137C27.0338 98.1057 26.0258 98.1777 25.3071 98.3217C22.4235 98.9217 20.0571 100.61 18.7862 103.09C18.6635 103.322 18.5496 103.554 18.4269 103.786C18.1113 104.394 17.9097 105.106 17.8309 105.922H17.8484Z" fill="#508FFF"/>
<path d="M55.9401 92.2085V98.0725C55.9401 98.0725 55.9401 98.1045 55.9226 98.1125C55.9138 98.1205 55.8963 98.1285 55.8787 98.1285H47.938C47.8766 98.1285 47.8503 98.1045 47.8503 98.0485C48.0256 96.0165 47.8328 94.0805 47.2718 92.2325C47.2543 92.1765 47.2718 92.1445 47.3507 92.1445H55.8612C55.8612 92.1445 55.8963 92.1525 55.9138 92.1685C55.9313 92.1845 55.9313 92.2005 55.9313 92.2165L55.9401 92.2085Z" fill="#508FFF"/>
<path d="M43.2349 105.729C40.3425 109.121 35.89 111.225 31.1308 111.249C27.6687 111.265 24.2593 111.273 20.9024 111.265C20.8235 111.265 20.7623 111.241 20.7097 111.185C19.246 109.673 18.9217 107.545 19.246 105.425C19.2547 105.361 19.2985 105.329 19.3686 105.329C22.7605 105.313 26.1087 105.313 29.413 105.329C30.8504 105.337 31.946 105.273 32.6997 105.129C35.0136 104.697 36.8892 103.617 38.3179 101.889C40.4389 99.3214 40.8158 95.9934 39.3696 93.0654C38.09 90.4654 35.9075 88.8334 32.8223 88.1694C32.165 88.0254 31.2184 87.9614 30.0001 87.9614C22.2083 87.9774 7.99208 87.9774 0.64729 87.9614C0.629761 87.9614 0.612232 87.9614 0.603467 87.9454C0.594702 87.9374 0.585938 87.9214 0.585938 87.9054V82.0894C0.585938 82.0494 0.603467 82.0254 0.656055 82.0254C8.11479 82.0334 22.2609 82.0254 29.7985 82.0254C31.2009 82.0254 32.2877 82.0654 33.0415 82.1614C39.1417 82.9134 44.0412 86.8894 45.9081 92.2254C46.3726 93.5614 46.6092 95.0414 46.6092 96.6814C46.6179 100.065 45.4962 103.081 43.2349 105.737V105.729Z" fill="#508FFF"/>
<path d="M10.9039 111.166C10.9039 111.166 10.9039 111.19 10.9039 111.198C10.9039 111.206 10.8951 111.222 10.8864 111.23C10.8864 111.238 10.8688 111.246 10.8601 111.254C10.8513 111.254 10.8338 111.254 10.825 111.254H0.596607C0.596607 111.254 0.587842 111.254 0.579077 111.254H0.570312C0.570312 111.254 0.570312 111.254 0.570312 111.246C0.570312 111.246 0.570312 111.238 0.570312 111.23V105.374C0.570312 105.374 0.570313 105.342 0.587842 105.334C0.596607 105.326 0.614136 105.318 0.631665 105.318H10.229C10.229 105.318 10.2553 105.318 10.2728 105.326C10.2904 105.326 10.2991 105.342 10.3079 105.35C10.3167 105.358 10.3254 105.374 10.3342 105.382C10.3342 105.398 10.3342 105.406 10.3342 105.422C10.2465 107.294 10.4306 109.206 10.9127 111.166H10.9039Z" fill="#508FFF"/>
</g>
<g opacity="0.15" clip-path="url(#clip5_2007_14727)">
<path d="M17.8484 64.9217C17.6293 67.1697 18.1727 69.4657 19.8643 71.1297C20.1097 71.3697 20.3551 71.6097 20.6005 71.8497C21.8889 73.0817 23.449 73.8817 25.2808 74.2577C25.9382 74.3937 27.0162 74.4577 28.515 74.4497C35.9474 74.4337 48.3494 74.4337 55.7994 74.4417C55.7994 74.4417 55.8169 74.4417 55.8257 74.4417C55.8257 74.4417 55.8432 74.4417 55.8432 74.4497C55.8432 74.4497 55.852 74.4577 55.852 74.4657C55.852 74.4657 55.852 74.4817 55.852 74.4897V80.3537C55.852 80.3537 55.852 80.3697 55.8432 80.3777C55.8432 80.3777 55.8257 80.3857 55.8169 80.3857C48.2267 80.3857 35.6056 80.3857 27.8664 80.3857C26.429 80.3857 25.3159 80.3217 24.5446 80.2017C19.2507 79.3777 14.9473 76.0737 12.7912 71.6097C12.4231 70.8417 12.1514 69.9937 11.9673 69.0657C11.6342 67.3217 11.5378 65.5697 11.6605 63.8177C11.6956 63.2977 11.8008 62.7457 11.9761 62.1537C13.0278 58.5857 15.1489 55.7777 18.3392 53.7297C20.6093 52.2737 23.1423 51.4417 25.9119 51.2257C26.6394 51.1697 27.3668 51.1377 28.0943 51.1377C31.083 51.1377 34.0718 51.1377 37.0343 51.1377C37.1394 51.1377 37.2271 51.1777 37.2884 51.2497C38.6908 52.8097 39.1202 55.1457 38.7697 57.0897C38.7697 57.1137 38.7521 57.1217 38.7346 57.1217C35.22 57.1377 31.7492 57.1377 28.3309 57.1137C27.0338 57.1057 26.0258 57.1777 25.3071 57.3217C22.4235 57.9217 20.0571 59.6097 18.7862 62.0897C18.6635 62.3217 18.5496 62.5537 18.4269 62.7857C18.1113 63.3937 17.9097 64.1057 17.8309 64.9217H17.8484Z" fill="#508FFF"/>
<path d="M55.9401 51.2085V57.0725C55.9401 57.0725 55.9401 57.1045 55.9226 57.1125C55.9138 57.1205 55.8963 57.1285 55.8787 57.1285H47.938C47.8766 57.1285 47.8503 57.1045 47.8503 57.0485C48.0256 55.0165 47.8328 53.0805 47.2718 51.2325C47.2543 51.1765 47.2718 51.1445 47.3507 51.1445H55.8612C55.8612 51.1445 55.8963 51.1525 55.9138 51.1685C55.9313 51.1845 55.9313 51.2005 55.9313 51.2165L55.9401 51.2085Z" fill="#508FFF"/>
<path d="M43.2349 64.7294C40.3425 68.1214 35.89 70.2254 31.1308 70.2494C27.6687 70.2654 24.2593 70.2734 20.9024 70.2654C20.8235 70.2654 20.7623 70.2414 20.7097 70.1854C19.246 68.6734 18.9217 66.5454 19.246 64.4254C19.2547 64.3614 19.2985 64.3294 19.3686 64.3294C22.7605 64.3134 26.1087 64.3134 29.413 64.3294C30.8504 64.3374 31.946 64.2734 32.6997 64.1294C35.0136 63.6974 36.8892 62.6174 38.3179 60.8894C40.4389 58.3214 40.8158 54.9934 39.3696 52.0654C38.09 49.4654 35.9075 47.8334 32.8223 47.1694C32.165 47.0254 31.2184 46.9614 30.0001 46.9614C22.2083 46.9774 7.99208 46.9774 0.64729 46.9614C0.629761 46.9614 0.612232 46.9614 0.603467 46.9454C0.594702 46.9374 0.585938 46.9214 0.585938 46.9054V41.0894C0.585938 41.0494 0.603467 41.0254 0.656055 41.0254C8.11479 41.0334 22.2609 41.0254 29.7985 41.0254C31.2009 41.0254 32.2877 41.0654 33.0415 41.1614C39.1417 41.9134 44.0412 45.8894 45.9081 51.2254C46.3726 52.5614 46.6092 54.0414 46.6092 55.6814C46.6179 59.0654 45.4962 62.0814 43.2349 64.7374V64.7294Z" fill="#508FFF"/>
<path d="M10.9039 70.1664C10.9039 70.1664 10.9039 70.1904 10.9039 70.1984C10.9039 70.2064 10.8951 70.2224 10.8864 70.2304C10.8864 70.2384 10.8688 70.2464 10.8601 70.2544C10.8513 70.2544 10.8338 70.2544 10.825 70.2544H0.596607C0.596607 70.2544 0.587842 70.2544 0.579077 70.2544H0.570312C0.570312 70.2544 0.570312 70.2544 0.570312 70.2464C0.570312 70.2464 0.570312 70.2384 0.570312 70.2304V64.3744C0.570312 64.3744 0.570313 64.3424 0.587842 64.3344C0.596607 64.3264 0.614136 64.3184 0.631665 64.3184H10.229C10.229 64.3184 10.2553 64.3184 10.2728 64.3264C10.2904 64.3264 10.2991 64.3424 10.3079 64.3504C10.3167 64.3584 10.3254 64.3744 10.3342 64.3824C10.3342 64.3984 10.3342 64.4064 10.3342 64.4224C10.2465 66.2944 10.4306 68.2064 10.9127 70.1664H10.9039Z" fill="#508FFF"/>
</g>
<g opacity="0.15" clip-path="url(#clip6_2007_14727)">
<path d="M17.8484 23.9217C17.6293 26.1697 18.1727 28.4657 19.8643 30.1297C20.1097 30.3697 20.3551 30.6097 20.6005 30.8497C21.8889 32.0817 23.449 32.8817 25.2808 33.2577C25.9382 33.3937 27.0162 33.4577 28.515 33.4497C35.9474 33.4337 48.3494 33.4337 55.7994 33.4417C55.7994 33.4417 55.8169 33.4417 55.8257 33.4417C55.8257 33.4417 55.8432 33.4417 55.8432 33.4497C55.8432 33.4497 55.852 33.4577 55.852 33.4657C55.852 33.4657 55.852 33.4817 55.852 33.4897V39.3537C55.852 39.3537 55.852 39.3697 55.8432 39.3777C55.8432 39.3777 55.8257 39.3857 55.8169 39.3857C48.2267 39.3857 35.6056 39.3857 27.8664 39.3857C26.429 39.3857 25.3159 39.3217 24.5446 39.2017C19.2507 38.3777 14.9473 35.0737 12.7912 30.6097C12.4231 29.8417 12.1514 28.9937 11.9673 28.0657C11.6342 26.3217 11.5378 24.5697 11.6605 22.8177C11.6956 22.2977 11.8008 21.7457 11.9761 21.1537C13.0278 17.5857 15.1489 14.7777 18.3392 12.7297C20.6093 11.2737 23.1423 10.4417 25.9119 10.2257C26.6394 10.1697 27.3668 10.1377 28.0943 10.1377C31.083 10.1377 34.0718 10.1377 37.0343 10.1377C37.1394 10.1377 37.2271 10.1777 37.2884 10.2497C38.6908 11.8097 39.1202 14.1457 38.7697 16.0897C38.7697 16.1137 38.7521 16.1217 38.7346 16.1217C35.22 16.1377 31.7492 16.1377 28.3309 16.1137C27.0338 16.1057 26.0258 16.1777 25.3071 16.3217C22.4235 16.9217 20.0571 18.6097 18.7862 21.0897C18.6635 21.3217 18.5496 21.5537 18.4269 21.7857C18.1113 22.3937 17.9097 23.1057 17.8309 23.9217H17.8484Z" fill="#508FFF"/>
<path d="M55.9401 10.2085V16.0725C55.9401 16.0725 55.9401 16.1045 55.9226 16.1125C55.9138 16.1205 55.8963 16.1285 55.8787 16.1285H47.938C47.8766 16.1285 47.8503 16.1045 47.8503 16.0485C48.0256 14.0165 47.8328 12.0805 47.2718 10.2325C47.2543 10.1765 47.2718 10.1445 47.3507 10.1445H55.8612C55.8612 10.1445 55.8963 10.1525 55.9138 10.1685C55.9313 10.1845 55.9313 10.2005 55.9313 10.2165L55.9401 10.2085Z" fill="#508FFF"/>
<path d="M43.2349 23.7294C40.3425 27.1214 35.89 29.2254 31.1308 29.2494C27.6687 29.2654 24.2593 29.2734 20.9024 29.2654C20.8235 29.2654 20.7623 29.2414 20.7097 29.1854C19.246 27.6734 18.9217 25.5454 19.246 23.4254C19.2547 23.3614 19.2985 23.3294 19.3686 23.3294C22.7605 23.3134 26.1087 23.3134 29.413 23.3294C30.8504 23.3374 31.946 23.2734 32.6997 23.1294C35.0136 22.6974 36.8892 21.6174 38.3179 19.8894C40.4389 17.3214 40.8158 13.9934 39.3696 11.0654C38.09 8.46539 35.9075 6.83339 32.8223 6.16939C32.165 6.02539 31.2184 5.96139 30.0001 5.96139C22.2083 5.97739 7.99208 5.97739 0.64729 5.96139C0.629761 5.96139 0.612232 5.96139 0.603467 5.94539C0.594702 5.93739 0.585938 5.92139 0.585938 5.90539V0.0893908C0.585938 0.0493906 0.603467 0.0253906 0.656055 0.0253906C8.11479 0.0333906 22.2609 0.0253906 29.7985 0.0253906C31.2009 0.0253906 32.2877 0.0653906 33.0415 0.161391C39.1417 0.913392 44.0412 4.88939 45.9081 10.2254C46.3726 11.5614 46.6092 13.0414 46.6092 14.6814C46.6179 18.0654 45.4962 21.0814 43.2349 23.7374V23.7294Z" fill="#508FFF"/>
<path d="M10.9039 29.1664C10.9039 29.1664 10.9039 29.1904 10.9039 29.1984C10.9039 29.2064 10.8951 29.2224 10.8864 29.2304C10.8864 29.2384 10.8688 29.2464 10.8601 29.2544C10.8513 29.2544 10.8338 29.2544 10.825 29.2544H0.596607C0.596607 29.2544 0.587842 29.2544 0.579077 29.2544H0.570312C0.570312 29.2544 0.570312 29.2544 0.570312 29.2464C0.570312 29.2464 0.570312 29.2384 0.570312 29.2304V23.3744C0.570312 23.3744 0.570313 23.3424 0.587842 23.3344C0.596607 23.3264 0.614136 23.3184 0.631665 23.3184H10.229C10.229 23.3184 10.2553 23.3184 10.2728 23.3264C10.2904 23.3264 10.2991 23.3424 10.3079 23.3504C10.3167 23.3584 10.3254 23.3744 10.3342 23.3824C10.3342 23.3984 10.3342 23.4064 10.3342 23.4224C10.2465 25.2944 10.4306 27.2064 10.9127 29.1664H10.9039Z" fill="#508FFF"/>
</g>
<g opacity="0.15" clip-path="url(#clip7_2007_14727)">
<path d="M73.8484 64.9217C73.6293 67.1697 74.1727 69.4657 75.8643 71.1297C76.1097 71.3697 76.3551 71.6097 76.6005 71.8497C77.8889 73.0817 79.449 73.8817 81.2808 74.2577C81.9382 74.3937 83.0162 74.4577 84.515 74.4497C91.9474 74.4337 104.349 74.4337 111.799 74.4417C111.799 74.4417 111.817 74.4417 111.826 74.4417C111.826 74.4417 111.843 74.4417 111.843 74.4497C111.843 74.4497 111.852 74.4577 111.852 74.4657C111.852 74.4657 111.852 74.4817 111.852 74.4897V80.3537C111.852 80.3537 111.852 80.3697 111.843 80.3777C111.843 80.3777 111.826 80.3857 111.817 80.3857C104.227 80.3857 91.6056 80.3857 83.8664 80.3857C82.429 80.3857 81.3159 80.3217 80.5446 80.2017C75.2507 79.3777 70.9473 76.0737 68.7912 71.6097C68.4231 70.8417 68.1514 69.9937 67.9673 69.0657C67.6342 67.3217 67.5378 65.5697 67.6605 63.8177C67.6956 63.2977 67.8008 62.7457 67.9761 62.1537C69.0278 58.5857 71.1489 55.7777 74.3392 53.7297C76.6093 52.2737 79.1423 51.4417 81.9119 51.2257C82.6394 51.1697 83.3668 51.1377 84.0943 51.1377C87.083 51.1377 90.0718 51.1377 93.0343 51.1377C93.1394 51.1377 93.2271 51.1777 93.2884 51.2497C94.6908 52.8097 95.1202 55.1457 94.7697 57.0897C94.7697 57.1137 94.7521 57.1217 94.7346 57.1217C91.22 57.1377 87.7492 57.1377 84.3309 57.1137C83.0338 57.1057 82.0258 57.1777 81.3071 57.3217C78.4235 57.9217 76.0571 59.6097 74.7862 62.0897C74.6635 62.3217 74.5496 62.5537 74.4269 62.7857C74.1113 63.3937 73.9097 64.1057 73.8309 64.9217H73.8484Z" fill="#508FFF"/>
<path d="M111.94 51.2085V57.0725C111.94 57.0725 111.94 57.1045 111.923 57.1125C111.914 57.1205 111.896 57.1285 111.879 57.1285H103.938C103.877 57.1285 103.85 57.1045 103.85 57.0485C104.026 55.0165 103.833 53.0805 103.272 51.2325C103.254 51.1765 103.272 51.1445 103.351 51.1445H111.861C111.861 51.1445 111.896 51.1525 111.914 51.1685C111.931 51.1845 111.931 51.2005 111.931 51.2165L111.94 51.2085Z" fill="#508FFF"/>
<path d="M99.2349 64.7294C96.3425 68.1214 91.89 70.2254 87.1308 70.2494C83.6687 70.2654 80.2593 70.2734 76.9024 70.2654C76.8235 70.2654 76.7623 70.2414 76.7097 70.1854C75.246 68.6734 74.9217 66.5454 75.246 64.4254C75.2547 64.3614 75.2985 64.3294 75.3686 64.3294C78.7605 64.3134 82.1087 64.3134 85.413 64.3294C86.8504 64.3374 87.946 64.2734 88.6997 64.1294C91.0136 63.6974 92.8892 62.6174 94.3179 60.8894C96.4389 58.3214 96.8158 54.9934 95.3696 52.0654C94.09 49.4654 91.9075 47.8334 88.8223 47.1694C88.165 47.0254 87.2184 46.9614 86.0001 46.9614C78.2083 46.9774 63.9921 46.9774 56.6473 46.9614C56.6298 46.9614 56.6122 46.9614 56.6035 46.9454C56.5947 46.9374 56.5859 46.9214 56.5859 46.9054V41.0894C56.5859 41.0494 56.6035 41.0254 56.6561 41.0254C64.1148 41.0334 78.2609 41.0254 85.7985 41.0254C87.2009 41.0254 88.2877 41.0654 89.0415 41.1614C95.1417 41.9134 100.041 45.8894 101.908 51.2254C102.373 52.5614 102.609 54.0414 102.609 55.6814C102.618 59.0654 101.496 62.0814 99.2349 64.7374V64.7294Z" fill="#508FFF"/>
<path d="M66.9039 70.1664C66.9039 70.1664 66.9039 70.1904 66.9039 70.1984C66.9039 70.2064 66.8951 70.2224 66.8864 70.2304C66.8864 70.2384 66.8688 70.2464 66.8601 70.2544C66.8513 70.2544 66.8338 70.2544 66.825 70.2544H56.5966C56.5966 70.2544 56.5878 70.2544 56.5791 70.2544H56.5703C56.5703 70.2544 56.5703 70.2544 56.5703 70.2464C56.5703 70.2464 56.5703 70.2384 56.5703 70.2304V64.3744C56.5703 64.3744 56.5703 64.3424 56.5878 64.3344C56.5966 64.3264 56.6141 64.3184 56.6317 64.3184H66.229C66.229 64.3184 66.2553 64.3184 66.2728 64.3264C66.2904 64.3264 66.2991 64.3424 66.3079 64.3504C66.3167 64.3584 66.3254 64.3744 66.3342 64.3824C66.3342 64.3984 66.3342 64.4064 66.3342 64.4224C66.2465 66.2944 66.4306 68.2064 66.9127 70.1664H66.9039Z" fill="#508FFF"/>
</g>
<g opacity="0.15" clip-path="url(#clip8_2007_14727)">
<path d="M73.8484 105.922C73.6293 108.17 74.1727 110.466 75.8643 112.13C76.1097 112.37 76.3551 112.61 76.6005 112.85C77.8889 114.082 79.449 114.882 81.2808 115.258C81.9382 115.394 83.0162 115.458 84.515 115.45C91.9474 115.434 104.349 115.434 111.799 115.442C111.799 115.442 111.817 115.442 111.826 115.442C111.826 115.442 111.843 115.442 111.843 115.45C111.843 115.45 111.852 115.458 111.852 115.466C111.852 115.466 111.852 115.482 111.852 115.49V121.354C111.852 121.354 111.852 121.37 111.843 121.378C111.843 121.378 111.826 121.386 111.817 121.386C104.227 121.386 91.6056 121.386 83.8664 121.386C82.429 121.386 81.3159 121.322 80.5446 121.202C75.2507 120.378 70.9473 117.074 68.7912 112.61C68.4231 111.842 68.1514 110.994 67.9673 110.066C67.6342 108.322 67.5378 106.57 67.6605 104.818C67.6956 104.298 67.8008 103.746 67.9761 103.154C69.0278 99.5857 71.1489 96.7777 74.3392 94.7297C76.6093 93.2737 79.1423 92.4417 81.9119 92.2257C82.6394 92.1697 83.3668 92.1377 84.0943 92.1377C87.083 92.1377 90.0718 92.1377 93.0343 92.1377C93.1394 92.1377 93.2271 92.1777 93.2884 92.2497C94.6908 93.8097 95.1202 96.1457 94.7697 98.0897C94.7697 98.1137 94.7521 98.1217 94.7346 98.1217C91.22 98.1377 87.7492 98.1377 84.3309 98.1137C83.0338 98.1057 82.0258 98.1777 81.3071 98.3217C78.4235 98.9217 76.0571 100.61 74.7862 103.09C74.6635 103.322 74.5496 103.554 74.4269 103.786C74.1113 104.394 73.9097 105.106 73.8309 105.922H73.8484Z" fill="#508FFF"/>
<path d="M111.94 92.2085V98.0725C111.94 98.0725 111.94 98.1045 111.923 98.1125C111.914 98.1205 111.896 98.1285 111.879 98.1285H103.938C103.877 98.1285 103.85 98.1045 103.85 98.0485C104.026 96.0165 103.833 94.0805 103.272 92.2325C103.254 92.1765 103.272 92.1445 103.351 92.1445H111.861C111.861 92.1445 111.896 92.1525 111.914 92.1685C111.931 92.1845 111.931 92.2005 111.931 92.2165L111.94 92.2085Z" fill="#508FFF"/>
<path d="M99.2349 105.729C96.3425 109.121 91.89 111.225 87.1308 111.249C83.6687 111.265 80.2593 111.273 76.9024 111.265C76.8235 111.265 76.7623 111.241 76.7097 111.185C75.246 109.673 74.9217 107.545 75.246 105.425C75.2547 105.361 75.2985 105.329 75.3686 105.329C78.7605 105.313 82.1087 105.313 85.413 105.329C86.8504 105.337 87.946 105.273 88.6997 105.129C91.0136 104.697 92.8892 103.617 94.3179 101.889C96.4389 99.3214 96.8158 95.9934 95.3696 93.0654C94.09 90.4654 91.9075 88.8334 88.8223 88.1694C88.165 88.0254 87.2184 87.9614 86.0001 87.9614C78.2083 87.9774 63.9921 87.9774 56.6473 87.9614C56.6298 87.9614 56.6122 87.9614 56.6035 87.9454C56.5947 87.9374 56.5859 87.9214 56.5859 87.9054V82.0894C56.5859 82.0494 56.6035 82.0254 56.6561 82.0254C64.1148 82.0334 78.2609 82.0254 85.7985 82.0254C87.2009 82.0254 88.2877 82.0654 89.0415 82.1614C95.1417 82.9134 100.041 86.8894 101.908 92.2254C102.373 93.5614 102.609 95.0414 102.609 96.6814C102.618 100.065 101.496 103.081 99.2349 105.737V105.729Z" fill="#508FFF"/>
<path d="M66.9039 111.166C66.9039 111.166 66.9039 111.19 66.9039 111.198C66.9039 111.206 66.8951 111.222 66.8864 111.23C66.8864 111.238 66.8688 111.246 66.8601 111.254C66.8513 111.254 66.8338 111.254 66.825 111.254H56.5966C56.5966 111.254 56.5878 111.254 56.5791 111.254H56.5703C56.5703 111.254 56.5703 111.254 56.5703 111.246C56.5703 111.246 56.5703 111.238 56.5703 111.23V105.374C56.5703 105.374 56.5703 105.342 56.5878 105.334C56.5966 105.326 56.6141 105.318 56.6317 105.318H66.229C66.229 105.318 66.2553 105.318 66.2728 105.326C66.2904 105.326 66.2991 105.342 66.3079 105.35C66.3167 105.358 66.3254 105.374 66.3342 105.382C66.3342 105.398 66.3342 105.406 66.3342 105.422C66.2465 107.294 66.4306 109.206 66.9127 111.166H66.9039Z" fill="#508FFF"/>
</g>
<g opacity="0.15" clip-path="url(#clip9_2007_14727)">
<path d="M209.848 146.922C209.629 149.17 210.173 151.466 211.864 153.13C212.11 153.37 212.355 153.61 212.6 153.85C213.889 155.082 215.449 155.882 217.281 156.258C217.938 156.394 219.016 156.458 220.515 156.45C227.947 156.434 240.349 156.434 247.799 156.442C247.799 156.442 247.817 156.442 247.826 156.442C247.826 156.442 247.843 156.442 247.843 156.45C247.843 156.45 247.852 156.458 247.852 156.466C247.852 156.466 247.852 156.482 247.852 156.49V162.354C247.852 162.354 247.852 162.37 247.843 162.378C247.843 162.378 247.826 162.386 247.817 162.386C240.227 162.386 227.606 162.386 219.866 162.386C218.429 162.386 217.316 162.322 216.545 162.202C211.251 161.378 206.947 158.074 204.791 153.61C204.423 152.842 204.151 151.994 203.967 151.066C203.634 149.322 203.538 147.57 203.661 145.818C203.696 145.298 203.801 144.746 203.976 144.154C205.028 140.586 207.149 137.778 210.339 135.73C212.609 134.274 215.142 133.442 217.912 133.226C218.639 133.17 219.367 133.138 220.094 133.138C223.083 133.138 226.072 133.138 229.034 133.138C229.139 133.138 229.227 133.178 229.288 133.25C230.691 134.81 231.12 137.146 230.77 139.09C230.77 139.114 230.752 139.122 230.735 139.122C227.22 139.138 223.749 139.138 220.331 139.114C219.034 139.106 218.026 139.178 217.307 139.322C214.424 139.922 212.057 141.61 210.786 144.09C210.664 144.322 210.55 144.554 210.427 144.786C210.111 145.394 209.91 146.106 209.831 146.922H209.848Z" fill="#508FFF"/>
<path d="M247.94 133.209V139.073C247.94 139.073 247.94 139.105 247.923 139.113C247.914 139.121 247.896 139.129 247.879 139.129H239.938C239.877 139.129 239.85 139.105 239.85 139.049C240.026 137.017 239.833 135.081 239.272 133.233C239.254 133.177 239.272 133.145 239.351 133.145H247.861C247.861 133.145 247.896 133.153 247.914 133.169C247.931 133.185 247.931 133.201 247.931 133.217L247.94 133.209Z" fill="#508FFF"/>
<path d="M235.235 146.729C232.343 150.121 227.89 152.225 223.131 152.249C219.669 152.265 216.259 152.273 212.902 152.265C212.824 152.265 212.762 152.241 212.71 152.185C211.246 150.673 210.922 148.545 211.246 146.425C211.255 146.361 211.298 146.329 211.369 146.329C214.761 146.313 218.109 146.313 221.413 146.329C222.85 146.337 223.946 146.273 224.7 146.129C227.014 145.697 228.889 144.617 230.318 142.889C232.439 140.321 232.816 136.993 231.37 134.065C230.09 131.465 227.908 129.833 224.822 129.169C224.165 129.025 223.218 128.961 222 128.961C214.208 128.977 199.992 128.977 192.647 128.961C192.63 128.961 192.612 128.961 192.603 128.945C192.595 128.937 192.586 128.921 192.586 128.905V123.089C192.586 123.049 192.603 123.025 192.656 123.025C200.115 123.033 214.261 123.025 221.799 123.025C223.201 123.025 224.288 123.065 225.041 123.161C231.142 123.913 236.041 127.889 237.908 133.225C238.373 134.561 238.609 136.041 238.609 137.681C238.618 141.065 237.496 144.081 235.235 146.737V146.729Z" fill="#508FFF"/>
<path d="M202.904 152.166C202.904 152.166 202.904 152.19 202.904 152.198C202.904 152.206 202.895 152.222 202.886 152.23C202.886 152.238 202.869 152.246 202.86 152.254C202.851 152.254 202.834 152.254 202.825 152.254H192.597C192.597 152.254 192.588 152.254 192.579 152.254H192.57C192.57 152.254 192.57 152.254 192.57 152.246C192.57 152.246 192.57 152.238 192.57 152.23V146.374C192.57 146.374 192.57 146.342 192.588 146.334C192.597 146.326 192.614 146.318 192.632 146.318H202.229C202.229 146.318 202.255 146.318 202.273 146.326C202.29 146.326 202.299 146.342 202.308 146.35C202.317 146.358 202.325 146.374 202.334 146.382C202.334 146.398 202.334 146.406 202.334 146.422C202.247 148.294 202.431 150.206 202.913 152.166H202.904Z" fill="#508FFF"/>
</g>
<g opacity="0.15" clip-path="url(#clip10_2007_14727)">
<path d="M17.8484 146.922C17.6293 149.17 18.1727 151.466 19.8643 153.13C20.1097 153.37 20.3551 153.61 20.6005 153.85C21.8889 155.082 23.449 155.882 25.2808 156.258C25.9382 156.394 27.0162 156.458 28.515 156.45C35.9474 156.434 48.3494 156.434 55.7994 156.442C55.7994 156.442 55.8169 156.442 55.8257 156.442C55.8257 156.442 55.8432 156.442 55.8432 156.45C55.8432 156.45 55.852 156.458 55.852 156.466C55.852 156.466 55.852 156.482 55.852 156.49V162.354C55.852 162.354 55.852 162.37 55.8432 162.378C55.8432 162.378 55.8257 162.386 55.8169 162.386C48.2267 162.386 35.6056 162.386 27.8664 162.386C26.429 162.386 25.3159 162.322 24.5446 162.202C19.2507 161.378 14.9473 158.074 12.7912 153.61C12.4231 152.842 12.1514 151.994 11.9673 151.066C11.6342 149.322 11.5378 147.57 11.6605 145.818C11.6956 145.298 11.8008 144.746 11.9761 144.154C13.0278 140.586 15.1489 137.778 18.3392 135.73C20.6093 134.274 23.1423 133.442 25.9119 133.226C26.6394 133.17 27.3668 133.138 28.0943 133.138C31.083 133.138 34.0718 133.138 37.0343 133.138C37.1394 133.138 37.2271 133.178 37.2884 133.25C38.6908 134.81 39.1202 137.146 38.7697 139.09C38.7697 139.114 38.7521 139.122 38.7346 139.122C35.22 139.138 31.7492 139.138 28.3309 139.114C27.0338 139.106 26.0258 139.178 25.3071 139.322C22.4235 139.922 20.0571 141.61 18.7862 144.09C18.6635 144.322 18.5496 144.554 18.4269 144.786C18.1113 145.394 17.9097 146.106 17.8309 146.922H17.8484Z" fill="#508FFF"/>
<path d="M55.9401 133.209V139.073C55.9401 139.073 55.9401 139.105 55.9226 139.113C55.9138 139.121 55.8963 139.129 55.8787 139.129H47.938C47.8766 139.129 47.8503 139.105 47.8503 139.049C48.0256 137.017 47.8328 135.081 47.2718 133.233C47.2543 133.177 47.2718 133.145 47.3507 133.145H55.8612C55.8612 133.145 55.8963 133.153 55.9138 133.169C55.9313 133.185 55.9313 133.201 55.9313 133.217L55.9401 133.209Z" fill="#508FFF"/>
<path d="M43.2349 146.729C40.3425 150.121 35.89 152.225 31.1308 152.249C27.6687 152.265 24.2593 152.273 20.9024 152.265C20.8235 152.265 20.7623 152.241 20.7097 152.185C19.246 150.673 18.9217 148.545 19.246 146.425C19.2547 146.361 19.2985 146.329 19.3686 146.329C22.7605 146.313 26.1087 146.313 29.413 146.329C30.8504 146.337 31.946 146.273 32.6997 146.129C35.0136 145.697 36.8892 144.617 38.3179 142.889C40.4389 140.321 40.8158 136.993 39.3696 134.065C38.09 131.465 35.9075 129.833 32.8223 129.169C32.165 129.025 31.2184 128.961 30.0001 128.961C22.2083 128.977 7.99208 128.977 0.64729 128.961C0.629761 128.961 0.612232 128.961 0.603467 128.945C0.594702 128.937 0.585938 128.921 0.585938 128.905V123.089C0.585938 123.049 0.603467 123.025 0.656055 123.025C8.11479 123.033 22.2609 123.025 29.7985 123.025C31.2009 123.025 32.2877 123.065 33.0415 123.161C39.1417 123.913 44.0412 127.889 45.9081 133.225C46.3726 134.561 46.6092 136.041 46.6092 137.681C46.6179 141.065 45.4962 144.081 43.2349 146.737V146.729Z" fill="#508FFF"/>
<path d="M10.9039 152.166C10.9039 152.166 10.9039 152.19 10.9039 152.198C10.9039 152.206 10.8951 152.222 10.8864 152.23C10.8864 152.238 10.8688 152.246 10.8601 152.254C10.8513 152.254 10.8338 152.254 10.825 152.254H0.596607C0.596607 152.254 0.587842 152.254 0.579077 152.254H0.570312C0.570312 152.254 0.570312 152.254 0.570312 152.246C0.570312 152.246 0.570312 152.238 0.570312 152.23V146.374C0.570312 146.374 0.570313 146.342 0.587842 146.334C0.596607 146.326 0.614136 146.318 0.631665 146.318H10.229C10.229 146.318 10.2553 146.318 10.2728 146.326C10.2904 146.326 10.2991 146.342 10.3079 146.35C10.3167 146.358 10.3254 146.374 10.3342 146.382C10.3342 146.398 10.3342 146.406 10.3342 146.422C10.2465 148.294 10.4306 150.206 10.9127 152.166H10.9039Z" fill="#508FFF"/>
</g>
<g opacity="0.15" clip-path="url(#clip11_2007_14727)">
<path d="M321.848 146.519C321.629 148.823 322.173 151.177 323.864 152.882C324.11 153.128 324.355 153.374 324.6 153.62C325.889 154.883 327.449 155.703 329.281 156.089C329.938 156.228 331.016 156.294 332.515 156.285C339.947 156.269 352.349 156.269 359.799 156.277C359.799 156.277 359.817 156.277 359.826 156.277C359.826 156.277 359.843 156.277 359.843 156.285C359.843 156.285 359.852 156.294 359.852 156.302C359.852 156.302 359.852 156.318 359.852 156.326V162.337C359.852 162.337 359.852 162.353 359.843 162.362C359.843 162.362 359.826 162.37 359.817 162.37C352.227 162.37 339.606 162.37 331.866 162.37C330.429 162.37 329.316 162.304 328.545 162.181C323.251 161.337 318.947 157.95 316.791 153.374C316.423 152.587 316.151 151.718 315.967 150.767C315.634 148.979 315.538 147.183 315.661 145.388C315.696 144.855 315.801 144.289 315.976 143.682C317.028 140.025 319.149 137.147 322.339 135.047C324.609 133.555 327.142 132.702 329.912 132.481C330.639 132.423 331.367 132.391 332.094 132.391C335.083 132.391 338.072 132.391 341.034 132.391C341.139 132.391 341.227 132.432 341.288 132.505C342.691 134.104 343.12 136.499 342.77 138.491C342.77 138.516 342.752 138.524 342.735 138.524C339.22 138.541 335.749 138.541 332.331 138.516C331.034 138.508 330.026 138.582 329.307 138.729C326.424 139.344 324.057 141.074 322.786 143.616C322.664 143.854 322.55 144.092 322.427 144.33C322.111 144.953 321.91 145.683 321.831 146.519H321.848Z" fill="#508FFF"/>
<path d="M359.94 132.463V138.474C359.94 138.474 359.94 138.506 359.923 138.515C359.914 138.523 359.896 138.531 359.879 138.531H351.938C351.877 138.531 351.85 138.506 351.85 138.449C352.026 136.366 351.833 134.382 351.272 132.488C351.254 132.43 351.272 132.397 351.351 132.397H359.861C359.861 132.397 359.896 132.406 359.914 132.422C359.931 132.438 359.931 132.455 359.931 132.471L359.94 132.463Z" fill="#508FFF"/>
<path d="M347.235 146.322C344.343 149.799 339.89 151.955 335.131 151.98C331.669 151.996 328.259 152.005 324.902 151.996C324.824 151.996 324.762 151.972 324.71 151.914C323.246 150.365 322.922 148.183 323.246 146.01C323.255 145.945 323.298 145.912 323.369 145.912C326.761 145.896 330.109 145.896 333.413 145.912C334.85 145.92 335.946 145.855 336.7 145.707C339.014 145.264 340.889 144.157 342.318 142.386C344.439 139.754 344.816 136.343 343.37 133.341C342.09 130.676 339.908 129.004 336.822 128.323C336.165 128.175 335.218 128.11 334 128.11C326.208 128.126 311.992 128.126 304.647 128.11C304.63 128.11 304.612 128.11 304.603 128.093C304.595 128.085 304.586 128.069 304.586 128.052V122.091C304.586 122.05 304.603 122.025 304.656 122.025C312.115 122.034 326.261 122.025 333.799 122.025C335.201 122.025 336.288 122.066 337.041 122.165C343.142 122.936 348.041 127.011 349.908 132.48C350.373 133.85 350.609 135.367 350.609 137.048C350.618 140.516 349.496 143.608 347.235 146.33V146.322Z" fill="#508FFF"/>
<path d="M314.904 151.897C314.904 151.897 314.904 151.921 314.904 151.929C314.904 151.938 314.895 151.954 314.886 151.962C314.886 151.97 314.869 151.979 314.86 151.987C314.851 151.987 314.834 151.987 314.825 151.987H304.597C304.597 151.987 304.588 151.987 304.579 151.987H304.57C304.57 151.987 304.57 151.987 304.57 151.979C304.57 151.979 304.57 151.97 304.57 151.962V145.96C304.57 145.96 304.57 145.927 304.588 145.919C304.597 145.911 304.614 145.902 304.632 145.902H314.229C314.229 145.902 314.255 145.902 314.273 145.911C314.29 145.911 314.299 145.927 314.308 145.935C314.317 145.943 314.325 145.96 314.334 145.968C314.334 145.984 314.334 145.993 314.334 146.009C314.247 147.928 314.431 149.888 314.913 151.897H314.904Z" fill="#508FFF"/>
</g>
<g opacity="0.15" clip-path="url(#clip12_2007_14727)">
<path d="M321.848 105.519C321.629 107.823 322.173 110.177 323.864 111.882C324.11 112.128 324.355 112.374 324.6 112.62C325.889 113.883 327.449 114.703 329.281 115.089C329.938 115.228 331.016 115.294 332.515 115.285C339.947 115.269 352.349 115.269 359.799 115.277C359.799 115.277 359.817 115.277 359.826 115.277C359.826 115.277 359.843 115.277 359.843 115.285C359.843 115.285 359.852 115.294 359.852 115.302C359.852 115.302 359.852 115.318 359.852 115.326V121.337C359.852 121.337 359.852 121.353 359.843 121.362C359.843 121.362 359.826 121.37 359.817 121.37C352.227 121.37 339.606 121.37 331.866 121.37C330.429 121.37 329.316 121.304 328.545 121.181C323.251 120.337 318.947 116.95 316.791 112.374C316.423 111.587 316.151 110.718 315.967 109.767C315.634 107.979 315.538 106.183 315.661 104.388C315.696 103.855 315.801 103.289 315.976 102.682C317.028 99.0248 319.149 96.1466 322.339 94.0474C324.609 92.555 327.142 91.7022 329.912 91.4808C330.639 91.4234 331.367 91.3906 332.094 91.3906C335.083 91.3906 338.072 91.3906 341.034 91.3906C341.139 91.3906 341.227 91.4316 341.288 91.5054C342.691 93.1044 343.12 95.4988 342.77 97.4914C342.77 97.516 342.752 97.5242 342.735 97.5242C339.22 97.5406 335.749 97.5406 332.331 97.516C331.034 97.5078 330.026 97.5816 329.307 97.7292C326.424 98.3442 324.057 100.074 322.786 102.616C322.664 102.854 322.55 103.092 322.427 103.33C322.111 103.953 321.91 104.683 321.831 105.519H321.848Z" fill="#508FFF"/>
<path d="M359.94 91.4631V97.4737C359.94 97.4737 359.94 97.5065 359.923 97.5147C359.914 97.5229 359.896 97.5311 359.879 97.5311H351.938C351.877 97.5311 351.85 97.5065 351.85 97.4491C352.026 95.3663 351.833 93.3819 351.272 91.4877C351.254 91.4303 351.272 91.3975 351.351 91.3975H359.861C359.861 91.3975 359.896 91.4057 359.914 91.4221C359.931 91.4385 359.931 91.4549 359.931 91.4713L359.94 91.4631Z" fill="#508FFF"/>
<path d="M347.235 105.322C344.343 108.799 339.89 110.955 335.131 110.98C331.669 110.996 328.259 111.005 324.902 110.996C324.824 110.996 324.762 110.972 324.71 110.914C323.246 109.365 322.922 107.183 323.246 105.01C323.255 104.945 323.298 104.912 323.369 104.912C326.761 104.896 330.109 104.896 333.413 104.912C334.85 104.92 335.946 104.855 336.7 104.707C339.014 104.264 340.889 103.157 342.318 101.386C344.439 98.7538 344.816 95.3426 343.37 92.3414C342.09 89.6764 339.908 88.0036 336.822 87.323C336.165 87.1754 335.218 87.1098 334 87.1098C326.208 87.1262 311.992 87.1262 304.647 87.1098C304.63 87.1098 304.612 87.1098 304.603 87.0934C304.595 87.0852 304.586 87.0688 304.586 87.0524V81.091C304.586 81.05 304.603 81.0254 304.656 81.0254C312.115 81.0336 326.261 81.0254 333.799 81.0254C335.201 81.0254 336.288 81.0664 337.041 81.1648C343.142 81.9356 348.041 86.011 349.908 91.4804C350.373 92.8498 350.609 94.3668 350.609 96.0478C350.618 99.5164 349.496 102.608 347.235 105.33V105.322Z" fill="#508FFF"/>
<path d="M314.904 110.897C314.904 110.897 314.904 110.921 314.904 110.929C314.904 110.938 314.895 110.954 314.886 110.962C314.886 110.97 314.869 110.979 314.86 110.987C314.851 110.987 314.834 110.987 314.825 110.987H304.597C304.597 110.987 304.588 110.987 304.579 110.987H304.57C304.57 110.987 304.57 110.987 304.57 110.979C304.57 110.979 304.57 110.97 304.57 110.962V104.96C304.57 104.96 304.57 104.927 304.588 104.919C304.597 104.911 304.614 104.902 304.632 104.902H314.229C314.229 104.902 314.255 104.902 314.273 104.911C314.29 104.911 314.299 104.927 314.308 104.935C314.317 104.943 314.325 104.96 314.334 104.968C314.334 104.984 314.334 104.993 314.334 105.009C314.247 106.928 314.431 108.888 314.913 110.897H314.904Z" fill="#508FFF"/>
</g>
<g opacity="0.15" clip-path="url(#clip13_2007_14727)">
<path d="M321.848 64.5192C321.629 66.8234 322.173 69.1768 323.864 70.8824C324.11 71.1284 324.355 71.3744 324.6 71.6204C325.889 72.8832 327.449 73.7032 329.281 74.0886C329.938 74.228 331.016 74.2936 332.515 74.2854C339.947 74.269 352.349 74.269 359.799 74.2772C359.799 74.2772 359.817 74.2772 359.826 74.2772C359.826 74.2772 359.843 74.2772 359.843 74.2854C359.843 74.2854 359.852 74.2936 359.852 74.3018C359.852 74.3018 359.852 74.3182 359.852 74.3264V80.337C359.852 80.337 359.852 80.3534 359.843 80.3616C359.843 80.3616 359.826 80.3698 359.817 80.3698C352.227 80.3698 339.606 80.3698 331.866 80.3698C330.429 80.3698 329.316 80.3042 328.545 80.1812C323.251 79.3366 318.947 75.95 316.791 71.3744C316.423 70.5872 316.151 69.718 315.967 68.7668C315.634 66.9792 315.538 65.1834 315.661 63.3876C315.696 62.8546 315.801 62.2888 315.976 61.682C317.028 58.0248 319.149 55.1466 322.339 53.0474C324.609 51.555 327.142 50.7022 329.912 50.4808C330.639 50.4234 331.367 50.3906 332.094 50.3906C335.083 50.3906 338.072 50.3906 341.034 50.3906C341.139 50.3906 341.227 50.4316 341.288 50.5054C342.691 52.1044 343.12 54.4988 342.77 56.4914C342.77 56.516 342.752 56.5242 342.735 56.5242C339.22 56.5406 335.749 56.5406 332.331 56.516C331.034 56.5078 330.026 56.5816 329.307 56.7292C326.424 57.3442 324.057 59.0744 322.786 61.6164C322.664 61.8542 322.55 62.092 322.427 62.3298C322.111 62.953 321.91 63.6828 321.831 64.5192H321.848Z" fill="#508FFF"/>
<path d="M359.94 50.4631V56.4737C359.94 56.4737 359.94 56.5065 359.923 56.5147C359.914 56.5229 359.896 56.5311 359.879 56.5311H351.938C351.877 56.5311 351.85 56.5065 351.85 56.4491C352.026 54.3663 351.833 52.3819 351.272 50.4877C351.254 50.4303 351.272 50.3975 351.351 50.3975H359.861C359.861 50.3975 359.896 50.4057 359.914 50.4221C359.931 50.4385 359.931 50.4549 359.931 50.4713L359.94 50.4631Z" fill="#508FFF"/>
<path d="M347.235 64.322C344.343 67.7988 339.89 69.9554 335.131 69.98C331.669 69.9964 328.259 70.0046 324.902 69.9964C324.824 69.9964 324.762 69.9718 324.71 69.9144C323.246 68.3646 322.922 66.1834 323.246 64.0104C323.255 63.9448 323.298 63.912 323.369 63.912C326.761 63.8956 330.109 63.8956 333.413 63.912C334.85 63.9202 335.946 63.8546 336.7 63.707C339.014 63.2642 340.889 62.1572 342.318 60.386C344.439 57.7538 344.816 54.3426 343.37 51.3414C342.09 48.6764 339.908 47.0036 336.822 46.323C336.165 46.1754 335.218 46.1098 334 46.1098C326.208 46.1262 311.992 46.1262 304.647 46.1098C304.63 46.1098 304.612 46.1098 304.603 46.0934C304.595 46.0852 304.586 46.0688 304.586 46.0524V40.091C304.586 40.05 304.603 40.0254 304.656 40.0254C312.115 40.0336 326.261 40.0254 333.799 40.0254C335.201 40.0254 336.288 40.0664 337.041 40.1648C343.142 40.9356 348.041 45.011 349.908 50.4804C350.373 51.8498 350.609 53.3668 350.609 55.0478C350.618 58.5164 349.496 61.6078 347.235 64.3302V64.322Z" fill="#508FFF"/>
<path d="M314.904 69.8965C314.904 69.8965 314.904 69.9211 314.904 69.9293C314.904 69.9375 314.895 69.9539 314.886 69.9621C314.886 69.9703 314.869 69.9785 314.86 69.9867C314.851 69.9867 314.834 69.9867 314.825 69.9867H304.597C304.597 69.9867 304.588 69.9867 304.579 69.9867H304.57C304.57 69.9867 304.57 69.9867 304.57 69.9785C304.57 69.9785 304.57 69.9703 304.57 69.9621V63.9597C304.57 63.9597 304.57 63.9269 304.588 63.9187C304.597 63.9105 304.614 63.9023 304.632 63.9023H314.229C314.229 63.9023 314.255 63.9023 314.273 63.9105C314.29 63.9105 314.299 63.9269 314.308 63.9351C314.317 63.9433 314.325 63.9597 314.334 63.9679C314.334 63.9843 314.334 63.9925 314.334 64.0089C314.247 65.9277 314.431 67.8875 314.913 69.8965H314.904Z" fill="#508FFF"/>
</g>
<defs>
<clipPath id="clip0_2007_14727">
<rect width="56" height="40" fill="white" transform="translate(248 123)"/>
</clipPath>
<clipPath id="clip1_2007_14727">
<rect width="56" height="40" fill="white" transform="translate(56 123)"/>
</clipPath>
<clipPath id="clip2_2007_14727">
<rect width="56" height="40" fill="white" transform="translate(112 123)"/>
</clipPath>
<clipPath id="clip3_2007_14727">
<rect width="56" height="40" fill="white" transform="translate(248 82)"/>
</clipPath>
<clipPath id="clip4_2007_14727">
<rect width="56" height="40" fill="white" transform="translate(0 82)"/>
</clipPath>
<clipPath id="clip5_2007_14727">
<rect width="56" height="40" fill="white" transform="translate(0 41)"/>
</clipPath>
<clipPath id="clip6_2007_14727">
<rect width="56" height="40" fill="white"/>
</clipPath>
<clipPath id="clip7_2007_14727">
<rect width="56" height="40" fill="white" transform="translate(56 41)"/>
</clipPath>
<clipPath id="clip8_2007_14727">
<rect width="56" height="40" fill="white" transform="translate(56 82)"/>
</clipPath>
<clipPath id="clip9_2007_14727">
<rect width="56" height="40" fill="white" transform="translate(192 123)"/>
</clipPath>
<clipPath id="clip10_2007_14727">
<rect width="56" height="40" fill="white" transform="translate(0 123)"/>
</clipPath>
<clipPath id="clip11_2007_14727">
<rect width="56" height="41" fill="white" transform="translate(304 122)"/>
</clipPath>
<clipPath id="clip12_2007_14727">
<rect width="56" height="41" fill="white" transform="translate(304 81)"/>
</clipPath>
<clipPath id="clip13_2007_14727">
<rect width="56" height="41" fill="white" transform="translate(304 40)"/>
</clipPath>
</defs>
</svg>
