<svg width="592" height="727" viewBox="0 0 592 727" fill="none" xmlns="http://www.w3.org/2000/svg">
<g opacity="0.15">
<path d="M275.936 523.234C275.47 527.955 276.625 532.777 280.219 536.271C280.741 536.775 281.262 537.279 281.784 537.783C284.522 540.37 287.837 542.05 291.73 542.84C293.126 543.126 295.417 543.26 298.602 543.243C314.396 543.21 340.75 543.21 356.582 543.226C356.582 543.226 356.619 543.226 356.637 543.226C356.637 543.226 356.675 543.226 356.675 543.243C356.675 543.243 356.693 543.26 356.693 543.277C356.693 543.277 356.693 543.31 356.693 543.327V555.642C356.693 555.642 356.693 555.675 356.675 555.692C356.675 555.692 356.637 555.709 356.619 555.709C340.49 555.709 313.67 555.709 297.224 555.709C294.169 555.709 291.804 555.574 290.165 555.322C278.916 553.592 269.771 546.654 265.189 537.279C264.407 535.666 263.829 533.886 263.438 531.937C262.731 528.274 262.526 524.595 262.786 520.916C262.861 519.824 263.084 518.665 263.457 517.422C265.692 509.929 270.199 504.032 276.979 499.731C281.802 496.674 287.185 494.926 293.071 494.473C294.616 494.355 296.162 494.288 297.708 494.288C304.059 494.288 310.41 494.288 316.706 494.288C316.929 494.288 317.115 494.372 317.246 494.523C320.226 497.799 321.138 502.705 320.393 506.787C320.393 506.838 320.356 506.854 320.319 506.854C312.85 506.888 305.475 506.888 298.211 506.838C295.455 506.821 293.313 506.972 291.785 507.274C285.658 508.534 280.629 512.079 277.929 517.287C277.668 517.774 277.426 518.262 277.165 518.749C276.494 520.026 276.066 521.521 275.898 523.234H275.936Z" fill="#508FFF"/>
<path d="M356.879 494.436V506.751C356.879 506.751 356.879 506.818 356.841 506.835C356.823 506.851 356.785 506.868 356.748 506.868H339.874C339.744 506.868 339.688 506.818 339.688 506.7C340.06 502.433 339.651 498.367 338.459 494.487C338.421 494.369 338.459 494.302 338.626 494.302H356.711C356.711 494.302 356.785 494.319 356.823 494.352C356.86 494.386 356.86 494.419 356.86 494.453L356.879 494.436Z" fill="#508FFF"/>
<path d="M329.873 522.831C323.727 529.954 314.265 534.373 304.152 534.423C296.795 534.457 289.55 534.474 282.417 534.457C282.249 534.457 282.119 534.406 282.007 534.289C278.897 531.114 278.208 526.645 278.897 522.193C278.915 522.058 279.008 521.991 279.157 521.991C286.365 521.958 293.48 521.958 300.502 521.991C303.556 522.008 305.884 521.874 307.486 521.571C312.403 520.664 316.389 518.396 319.425 514.767C323.932 509.374 324.733 502.386 321.66 496.237C318.94 490.777 314.302 487.35 307.747 485.955C306.35 485.653 304.338 485.518 301.749 485.518C285.192 485.552 254.982 485.552 239.375 485.518C239.337 485.518 239.3 485.518 239.281 485.485C239.263 485.468 239.244 485.434 239.244 485.401V473.187C239.244 473.103 239.281 473.053 239.393 473.053C255.243 473.07 285.303 473.053 301.321 473.053C304.301 473.053 306.61 473.137 308.212 473.338C321.175 474.918 331.587 483.267 335.554 494.473C336.541 497.278 337.044 500.386 337.044 503.83C337.062 510.937 334.678 517.27 329.873 522.848V522.831Z" fill="#508FFF"/>
<path d="M261.167 534.251C261.167 534.251 261.167 534.301 261.167 534.318C261.167 534.335 261.148 534.368 261.13 534.385C261.13 534.402 261.092 534.419 261.074 534.435C261.055 534.435 261.018 534.435 260.999 534.435H239.264C239.264 534.435 239.245 534.435 239.227 534.435H239.208C239.208 534.435 239.208 534.435 239.208 534.419C239.208 534.419 239.208 534.402 239.208 534.385V522.087C239.208 522.087 239.208 522.02 239.245 522.003C239.264 521.987 239.301 521.97 239.338 521.97H259.733C259.733 521.97 259.789 521.97 259.826 521.987C259.863 521.987 259.882 522.02 259.9 522.037C259.919 522.054 259.938 522.087 259.956 522.104C259.956 522.138 259.956 522.155 259.956 522.188C259.77 526.119 260.161 530.135 261.186 534.251H261.167Z" fill="#508FFF"/>
</g>
<g opacity="0.15">
<path d="M275.936 608.431C275.47 613.264 276.625 618.2 280.219 621.778C280.741 622.294 281.262 622.81 281.784 623.326C284.522 625.975 287.837 627.695 291.73 628.503C293.126 628.795 295.417 628.933 298.602 628.916C314.396 628.881 340.75 628.881 356.582 628.899C356.582 628.899 356.619 628.899 356.637 628.899C356.637 628.899 356.675 628.899 356.675 628.916C356.675 628.916 356.693 628.933 356.693 628.95C356.693 628.95 356.693 628.985 356.693 629.002V641.609C356.693 641.609 356.693 641.644 356.675 641.661C356.675 641.661 356.637 641.678 356.619 641.678C340.49 641.678 313.67 641.678 297.224 641.678C294.169 641.678 291.804 641.541 290.165 641.283C278.916 639.511 269.771 632.407 265.189 622.81C264.407 621.159 263.829 619.335 263.438 617.34C262.731 613.591 262.526 609.824 262.786 606.057C262.861 604.939 263.084 603.752 263.457 602.479C265.692 594.808 270.199 588.771 276.979 584.368C281.802 581.237 287.185 579.449 293.071 578.984C294.616 578.864 296.162 578.795 297.708 578.795C304.059 578.795 310.41 578.795 316.706 578.795C316.929 578.795 317.115 578.881 317.246 579.036C320.226 582.39 321.138 587.412 320.393 591.592C320.393 591.643 320.356 591.661 320.319 591.661C312.85 591.695 305.475 591.695 298.211 591.643C295.455 591.626 293.313 591.781 291.785 592.091C285.658 593.381 280.629 597.01 277.929 602.342C277.668 602.841 277.426 603.339 277.165 603.838C276.494 605.145 276.066 606.676 275.898 608.431H275.936Z" fill="#508FFF"/>
<path d="M356.879 578.947V591.555C356.879 591.555 356.879 591.624 356.841 591.641C356.823 591.658 356.785 591.675 356.748 591.675H339.874C339.744 591.675 339.688 591.624 339.688 591.503C340.06 587.134 339.651 582.972 338.459 578.999C338.421 578.878 338.459 578.81 338.626 578.81H356.711C356.711 578.81 356.785 578.827 356.823 578.861C356.86 578.896 356.86 578.93 356.86 578.964L356.879 578.947Z" fill="#508FFF"/>
<path d="M329.873 608.017C323.727 615.31 314.265 619.834 304.152 619.885C296.795 619.92 289.55 619.937 282.417 619.92C282.249 619.92 282.119 619.868 282.007 619.748C278.897 616.497 278.208 611.922 278.897 607.364C278.915 607.226 279.008 607.157 279.157 607.157C286.365 607.123 293.48 607.123 300.502 607.157C303.556 607.175 305.884 607.037 307.486 606.727C312.403 605.799 316.389 603.477 319.425 599.761C323.932 594.24 324.733 587.085 321.66 580.79C318.94 575.2 314.302 571.691 307.747 570.263C306.35 569.954 304.338 569.816 301.749 569.816C285.192 569.851 254.982 569.851 239.375 569.816C239.337 569.816 239.3 569.816 239.281 569.782C239.263 569.765 239.244 569.73 239.244 569.696V557.191C239.244 557.105 239.281 557.054 239.393 557.054C255.243 557.071 285.303 557.054 301.321 557.054C304.301 557.054 306.61 557.14 308.212 557.346C321.175 558.963 331.587 567.511 335.554 578.984C336.541 581.856 337.044 585.038 337.044 588.564C337.062 595.84 334.678 602.324 329.873 608.035V608.017Z" fill="#508FFF"/>
<path d="M261.167 619.708C261.167 619.708 261.167 619.76 261.167 619.777C261.167 619.794 261.148 619.828 261.13 619.846C261.13 619.863 261.092 619.88 261.074 619.897C261.055 619.897 261.018 619.897 260.999 619.897H239.264C239.264 619.897 239.245 619.897 239.227 619.897H239.208C239.208 619.897 239.208 619.897 239.208 619.88C239.208 619.88 239.208 619.863 239.208 619.846V607.255C239.208 607.255 239.208 607.186 239.245 607.169C239.264 607.152 239.301 607.135 239.338 607.135H259.733C259.733 607.135 259.789 607.135 259.826 607.152C259.863 607.152 259.882 607.186 259.9 607.204C259.919 607.221 259.938 607.255 259.956 607.272C259.956 607.307 259.956 607.324 259.956 607.358C259.77 611.383 260.161 615.494 261.186 619.708H261.167Z" fill="#508FFF"/>
</g>
<g opacity="0.15">
<path d="M275.936 693.234C275.47 697.955 276.625 702.777 280.219 706.271C280.741 706.775 281.262 707.279 281.784 707.783C284.522 710.37 287.837 712.05 291.73 712.84C293.126 713.126 295.417 713.26 298.602 713.243C314.396 713.21 340.75 713.21 356.582 713.226C356.582 713.226 356.619 713.226 356.637 713.226C356.637 713.226 356.675 713.226 356.675 713.243C356.675 713.243 356.693 713.26 356.693 713.277C356.693 713.277 356.693 713.31 356.693 713.327V725.642C356.693 725.642 356.693 725.675 356.675 725.692C356.675 725.692 356.637 725.709 356.619 725.709C340.49 725.709 313.67 725.709 297.224 725.709C294.169 725.709 291.804 725.574 290.165 725.322C278.916 723.592 269.771 716.654 265.189 707.279C264.407 705.666 263.829 703.886 263.438 701.937C262.731 698.274 262.526 694.595 262.786 690.916C262.861 689.824 263.084 688.665 263.457 687.422C265.692 679.929 270.199 674.032 276.979 669.731C281.802 666.674 287.185 664.926 293.071 664.473C294.616 664.355 296.162 664.288 297.708 664.288C304.059 664.288 310.41 664.288 316.706 664.288C316.929 664.288 317.115 664.372 317.246 664.523C320.226 667.799 321.138 672.705 320.393 676.787C320.393 676.838 320.356 676.854 320.319 676.854C312.85 676.888 305.475 676.888 298.211 676.838C295.455 676.821 293.313 676.972 291.785 677.274C285.658 678.534 280.629 682.079 277.929 687.287C277.668 687.774 277.426 688.262 277.165 688.749C276.494 690.026 276.066 691.521 275.898 693.234H275.936Z" fill="#508FFF"/>
<path d="M356.879 664.436V676.751C356.879 676.751 356.879 676.818 356.841 676.835C356.823 676.851 356.785 676.868 356.748 676.868H339.874C339.744 676.868 339.688 676.818 339.688 676.7C340.06 672.433 339.651 668.367 338.459 664.487C338.421 664.369 338.459 664.302 338.626 664.302H356.711C356.711 664.302 356.785 664.319 356.823 664.352C356.86 664.386 356.86 664.419 356.86 664.453L356.879 664.436Z" fill="#508FFF"/>
<path d="M329.873 692.831C323.727 699.954 314.265 704.373 304.152 704.423C296.795 704.457 289.55 704.474 282.417 704.457C282.249 704.457 282.119 704.406 282.007 704.289C278.897 701.114 278.208 696.645 278.897 692.193C278.915 692.058 279.008 691.991 279.157 691.991C286.365 691.958 293.48 691.958 300.502 691.991C303.556 692.008 305.884 691.874 307.486 691.571C312.403 690.664 316.389 688.396 319.425 684.767C323.932 679.374 324.733 672.386 321.66 666.237C318.94 660.777 314.302 657.35 307.747 655.955C306.35 655.653 304.338 655.518 301.749 655.518C285.192 655.552 254.982 655.552 239.375 655.518C239.337 655.518 239.3 655.518 239.281 655.485C239.263 655.468 239.244 655.434 239.244 655.401V643.187C239.244 643.103 239.281 643.053 239.393 643.053C255.243 643.07 285.303 643.053 301.321 643.053C304.301 643.053 306.61 643.137 308.212 643.338C321.175 644.918 331.587 653.267 335.554 664.473C336.541 667.278 337.044 670.386 337.044 673.83C337.062 680.937 334.678 687.27 329.873 692.848V692.831Z" fill="#508FFF"/>
<path d="M261.167 704.251C261.167 704.251 261.167 704.301 261.167 704.318C261.167 704.335 261.148 704.368 261.13 704.385C261.13 704.402 261.092 704.419 261.074 704.435C261.055 704.435 261.018 704.435 260.999 704.435H239.264C239.264 704.435 239.245 704.435 239.227 704.435H239.208C239.208 704.435 239.208 704.435 239.208 704.419C239.208 704.419 239.208 704.402 239.208 704.385V692.087C239.208 692.087 239.208 692.02 239.245 692.003C239.264 691.987 239.301 691.97 239.338 691.97H259.733C259.733 691.97 259.789 691.97 259.826 691.987C259.863 691.987 259.882 692.02 259.9 692.037C259.919 692.054 259.938 692.087 259.956 692.104C259.956 692.138 259.956 692.155 259.956 692.188C259.77 696.119 260.161 700.135 261.186 704.251H261.167Z" fill="#508FFF"/>
</g>
<g opacity="0.15">
<path d="M275.936 218.234C275.47 222.955 276.625 227.777 280.219 231.271C280.741 231.775 281.262 232.279 281.784 232.783C284.522 235.37 287.837 237.05 291.73 237.84C293.126 238.126 295.417 238.26 298.602 238.243C314.396 238.21 340.75 238.21 356.582 238.226C356.582 238.226 356.619 238.226 356.637 238.226C356.637 238.226 356.675 238.226 356.675 238.243C356.675 238.243 356.693 238.26 356.693 238.277C356.693 238.277 356.693 238.31 356.693 238.327V250.642C356.693 250.642 356.693 250.675 356.675 250.692C356.675 250.692 356.637 250.709 356.619 250.709C340.49 250.709 313.67 250.709 297.224 250.709C294.169 250.709 291.804 250.574 290.165 250.322C278.916 248.592 269.771 241.654 265.189 232.279C264.407 230.666 263.829 228.886 263.438 226.937C262.731 223.274 262.526 219.595 262.786 215.916C262.861 214.824 263.084 213.665 263.457 212.422C265.692 204.929 270.199 199.032 276.979 194.731C281.802 191.674 287.185 189.926 293.071 189.473C294.616 189.355 296.162 189.288 297.708 189.288C304.059 189.288 310.41 189.288 316.706 189.288C316.929 189.288 317.115 189.372 317.246 189.523C320.226 192.799 321.138 197.705 320.393 201.787C320.393 201.838 320.356 201.854 320.319 201.854C312.85 201.888 305.475 201.888 298.211 201.838C295.455 201.821 293.313 201.972 291.785 202.274C285.658 203.534 280.629 207.079 277.929 212.287C277.668 212.774 277.426 213.262 277.165 213.749C276.494 215.026 276.066 216.521 275.898 218.234H275.936Z" fill="#508FFF"/>
<path d="M356.879 189.436V201.751C356.879 201.751 356.879 201.818 356.841 201.835C356.823 201.851 356.785 201.868 356.748 201.868H339.874C339.744 201.868 339.688 201.818 339.688 201.7C340.06 197.433 339.651 193.367 338.459 189.487C338.421 189.369 338.459 189.302 338.626 189.302H356.711C356.711 189.302 356.785 189.319 356.823 189.352C356.86 189.386 356.86 189.419 356.86 189.453L356.879 189.436Z" fill="#508FFF"/>
<path d="M329.873 217.831C323.727 224.954 314.265 229.373 304.152 229.423C296.795 229.457 289.55 229.474 282.417 229.457C282.249 229.457 282.119 229.406 282.007 229.289C278.897 226.114 278.208 221.645 278.897 217.193C278.915 217.058 279.008 216.991 279.157 216.991C286.365 216.958 293.48 216.958 300.502 216.991C303.556 217.008 305.884 216.874 307.486 216.571C312.403 215.664 316.389 213.396 319.425 209.767C323.932 204.374 324.733 197.386 321.66 191.237C318.94 185.777 314.302 182.35 307.747 180.955C306.35 180.653 304.338 180.518 301.749 180.518C285.192 180.552 254.982 180.552 239.375 180.518C239.337 180.518 239.3 180.518 239.281 180.485C239.263 180.468 239.244 180.434 239.244 180.401V168.187C239.244 168.103 239.281 168.053 239.393 168.053C255.243 168.07 285.303 168.053 301.321 168.053C304.301 168.053 306.61 168.137 308.212 168.338C321.175 169.918 331.587 178.267 335.554 189.473C336.541 192.278 337.044 195.386 337.044 198.83C337.062 205.937 334.678 212.27 329.873 217.848V217.831Z" fill="#508FFF"/>
<path d="M261.167 229.251C261.167 229.251 261.167 229.301 261.167 229.318C261.167 229.335 261.148 229.368 261.13 229.385C261.13 229.402 261.092 229.419 261.074 229.435C261.055 229.435 261.018 229.435 260.999 229.435H239.264C239.264 229.435 239.245 229.435 239.227 229.435H239.208C239.208 229.435 239.208 229.435 239.208 229.419C239.208 229.419 239.208 229.402 239.208 229.385V217.087C239.208 217.087 239.208 217.02 239.245 217.003C239.264 216.987 239.301 216.97 239.338 216.97H259.733C259.733 216.97 259.789 216.97 259.826 216.987C259.863 216.987 259.882 217.02 259.9 217.037C259.919 217.054 259.938 217.087 259.956 217.104C259.956 217.138 259.956 217.155 259.956 217.188C259.77 221.119 260.161 225.135 261.186 229.251H261.167Z" fill="#508FFF"/>
</g>
<g opacity="0.15">
<path d="M275.936 134.234C275.47 138.955 276.625 143.777 280.219 147.271C280.741 147.775 281.262 148.279 281.784 148.783C284.522 151.37 287.837 153.05 291.73 153.84C293.126 154.126 295.417 154.26 298.602 154.243C314.396 154.21 340.75 154.21 356.582 154.226C356.582 154.226 356.619 154.226 356.637 154.226C356.637 154.226 356.675 154.226 356.675 154.243C356.675 154.243 356.693 154.26 356.693 154.277C356.693 154.277 356.693 154.31 356.693 154.327V166.642C356.693 166.642 356.693 166.675 356.675 166.692C356.675 166.692 356.637 166.709 356.619 166.709C340.49 166.709 313.67 166.709 297.224 166.709C294.169 166.709 291.804 166.574 290.165 166.322C278.916 164.592 269.771 157.654 265.189 148.279C264.407 146.666 263.829 144.886 263.438 142.937C262.731 139.274 262.526 135.595 262.786 131.916C262.861 130.824 263.084 129.665 263.457 128.422C265.692 120.929 270.199 115.032 276.979 110.731C281.802 107.674 287.185 105.926 293.071 105.473C294.616 105.355 296.162 105.288 297.708 105.288C304.059 105.288 310.41 105.288 316.706 105.288C316.929 105.288 317.115 105.372 317.246 105.523C320.226 108.799 321.138 113.705 320.393 117.787C320.393 117.838 320.356 117.854 320.319 117.854C312.85 117.888 305.475 117.888 298.211 117.838C295.455 117.821 293.313 117.972 291.785 118.274C285.658 119.534 280.629 123.079 277.929 128.287C277.668 128.774 277.426 129.262 277.165 129.749C276.494 131.026 276.066 132.521 275.898 134.234H275.936Z" fill="#508FFF"/>
<path d="M356.879 105.436V117.751C356.879 117.751 356.879 117.818 356.841 117.835C356.823 117.851 356.785 117.868 356.748 117.868H339.874C339.744 117.868 339.688 117.818 339.688 117.7C340.06 113.433 339.651 109.367 338.459 105.487C338.421 105.369 338.459 105.302 338.626 105.302H356.711C356.711 105.302 356.785 105.319 356.823 105.352C356.86 105.386 356.86 105.419 356.86 105.453L356.879 105.436Z" fill="#508FFF"/>
<path d="M329.873 133.831C323.727 140.954 314.265 145.373 304.152 145.423C296.795 145.457 289.55 145.474 282.417 145.457C282.249 145.457 282.119 145.406 282.007 145.289C278.897 142.114 278.208 137.645 278.897 133.193C278.915 133.058 279.008 132.991 279.157 132.991C286.365 132.958 293.48 132.958 300.502 132.991C303.556 133.008 305.884 132.874 307.486 132.571C312.403 131.664 316.389 129.396 319.425 125.767C323.932 120.374 324.733 113.386 321.66 107.237C318.94 101.777 314.302 98.3495 307.747 96.9551C306.35 96.6527 304.338 96.5183 301.749 96.5183C285.192 96.5519 254.982 96.5519 239.375 96.5183C239.337 96.5183 239.3 96.5183 239.281 96.4847C239.263 96.4679 239.244 96.4343 239.244 96.4007V84.1871C239.244 84.1031 239.281 84.0527 239.393 84.0527C255.243 84.0695 285.303 84.0527 301.321 84.0527C304.301 84.0527 306.61 84.1367 308.212 84.3383C321.175 85.9175 331.587 94.2671 335.554 105.473C336.541 108.278 337.044 111.386 337.044 114.83C337.062 121.937 334.678 128.27 329.873 133.848V133.831Z" fill="#508FFF"/>
<path d="M261.167 145.251C261.167 145.251 261.167 145.301 261.167 145.318C261.167 145.335 261.148 145.368 261.13 145.385C261.13 145.402 261.092 145.419 261.074 145.435C261.055 145.435 261.018 145.435 260.999 145.435H239.264C239.264 145.435 239.245 145.435 239.227 145.435H239.208C239.208 145.435 239.208 145.435 239.208 145.419C239.208 145.419 239.208 145.402 239.208 145.385V133.087C239.208 133.087 239.208 133.02 239.245 133.003C239.264 132.987 239.301 132.97 239.338 132.97H259.733C259.733 132.97 259.789 132.97 259.826 132.987C259.863 132.987 259.882 133.02 259.9 133.037C259.919 133.054 259.938 133.087 259.956 133.104C259.956 133.138 259.956 133.155 259.956 133.188C259.77 137.119 260.161 141.135 261.186 145.251H261.167Z" fill="#508FFF"/>
</g>
<g opacity="0.15">
<path d="M393.979 523.234C393.525 527.955 394.651 532.777 398.155 536.271C398.663 536.775 399.172 537.279 399.68 537.783C402.349 540.37 405.581 542.05 409.375 542.84C410.737 543.126 412.97 543.26 416.074 543.243C431.47 543.21 457.16 543.21 472.592 543.226C472.592 543.226 472.628 543.226 472.647 543.226C472.647 543.226 472.683 543.226 472.683 543.243C472.683 543.243 472.701 543.26 472.701 543.277C472.701 543.277 472.701 543.31 472.701 543.327V555.642C472.701 555.642 472.701 555.675 472.683 555.692C472.683 555.692 472.647 555.709 472.628 555.709C456.906 555.709 430.762 555.709 414.731 555.709C411.753 555.709 409.448 555.574 407.85 555.322C396.884 553.592 387.97 546.654 383.504 537.279C382.741 535.666 382.178 533.886 381.797 531.937C381.107 528.274 380.907 524.595 381.162 520.916C381.234 519.824 381.452 518.665 381.815 517.422C383.994 509.929 388.387 504.032 394.996 499.731C399.698 496.674 404.945 494.926 410.682 494.473C412.189 494.355 413.696 494.288 415.203 494.288C421.394 494.288 427.585 494.288 433.721 494.288C433.939 494.288 434.121 494.372 434.248 494.523C437.153 497.799 438.042 502.705 437.316 506.787C437.316 506.838 437.28 506.854 437.244 506.854C429.963 506.888 422.774 506.888 415.693 506.838C413.006 506.821 410.918 506.972 409.43 507.274C403.456 508.534 398.554 512.079 395.922 517.287C395.668 517.774 395.432 518.262 395.178 518.749C394.524 520.026 394.106 521.521 393.943 523.234H393.979Z" fill="#508FFF"/>
<path d="M472.882 494.436V506.751C472.882 506.751 472.882 506.818 472.845 506.835C472.827 506.851 472.791 506.868 472.755 506.868H456.306C456.179 506.868 456.124 506.818 456.124 506.7C456.487 502.433 456.088 498.367 454.926 494.487C454.89 494.369 454.926 494.302 455.089 494.302H472.718C472.718 494.302 472.791 494.319 472.827 494.352C472.863 494.386 472.863 494.419 472.863 494.453L472.882 494.436Z" fill="#508FFF"/>
<path d="M446.557 522.831C440.566 529.954 431.343 534.373 421.484 534.423C414.313 534.457 407.251 534.474 400.297 534.457C400.134 534.457 400.007 534.406 399.898 534.289C396.866 531.114 396.194 526.645 396.866 522.193C396.884 522.058 396.975 521.991 397.12 521.991C404.146 521.958 411.081 521.958 417.926 521.991C420.904 522.008 423.173 521.874 424.734 521.571C429.527 520.664 433.413 518.396 436.372 514.767C440.766 509.374 441.546 502.386 438.551 496.237C435.9 490.777 431.379 487.35 424.988 485.955C423.627 485.653 421.666 485.518 419.142 485.518C403.002 485.552 373.554 485.552 358.34 485.518C358.304 485.518 358.267 485.518 358.249 485.485C358.231 485.468 358.213 485.434 358.213 485.401V473.187C358.213 473.103 358.249 473.053 358.358 473.053C373.808 473.07 403.111 473.053 418.725 473.053C421.63 473.053 423.881 473.137 425.442 473.338C438.078 474.918 448.227 483.267 452.095 494.473C453.057 497.278 453.547 500.386 453.547 503.83C453.565 510.937 451.241 517.27 446.557 522.848V522.831Z" fill="#508FFF"/>
<path d="M379.583 534.251C379.583 534.251 379.583 534.301 379.583 534.318C379.583 534.335 379.565 534.368 379.547 534.385C379.547 534.402 379.51 534.419 379.492 534.435C379.474 534.435 379.438 534.435 379.42 534.435H358.232C358.232 534.435 358.214 534.435 358.196 534.435H358.178C358.178 534.435 358.178 534.435 358.178 534.419C358.178 534.419 358.178 534.402 358.178 534.385V522.087C358.178 522.087 358.178 522.02 358.214 522.003C358.232 521.987 358.269 521.97 358.305 521.97H378.185C378.185 521.97 378.24 521.97 378.276 521.987C378.312 521.987 378.33 522.02 378.348 522.037C378.367 522.054 378.385 522.087 378.403 522.104C378.403 522.138 378.403 522.155 378.403 522.188C378.221 526.119 378.603 530.135 379.601 534.251H379.583Z" fill="#508FFF"/>
</g>
<g opacity="0.15">
<path d="M393.979 218.234C393.525 222.955 394.651 227.777 398.155 231.271C398.663 231.775 399.172 232.279 399.68 232.783C402.349 235.37 405.581 237.05 409.375 237.84C410.737 238.126 412.97 238.26 416.074 238.243C431.47 238.21 457.16 238.21 472.592 238.226C472.592 238.226 472.628 238.226 472.647 238.226C472.647 238.226 472.683 238.226 472.683 238.243C472.683 238.243 472.701 238.26 472.701 238.277C472.701 238.277 472.701 238.31 472.701 238.327V250.642C472.701 250.642 472.701 250.675 472.683 250.692C472.683 250.692 472.647 250.709 472.628 250.709C456.906 250.709 430.762 250.709 414.731 250.709C411.753 250.709 409.448 250.574 407.85 250.322C396.884 248.592 387.97 241.654 383.504 232.279C382.741 230.666 382.178 228.886 381.797 226.937C381.107 223.274 380.907 219.595 381.162 215.916C381.234 214.824 381.452 213.665 381.815 212.422C383.994 204.929 388.387 199.032 394.996 194.731C399.698 191.674 404.945 189.926 410.682 189.473C412.189 189.355 413.696 189.288 415.203 189.288C421.394 189.288 427.585 189.288 433.721 189.288C433.939 189.288 434.121 189.372 434.248 189.523C437.153 192.799 438.042 197.705 437.316 201.787C437.316 201.838 437.28 201.854 437.244 201.854C429.963 201.888 422.774 201.888 415.693 201.838C413.006 201.821 410.918 201.972 409.43 202.274C403.456 203.534 398.554 207.079 395.922 212.287C395.668 212.774 395.432 213.262 395.178 213.749C394.524 215.026 394.106 216.521 393.943 218.234H393.979Z" fill="#508FFF"/>
<path d="M472.882 189.436V201.751C472.882 201.751 472.882 201.818 472.845 201.835C472.827 201.851 472.791 201.868 472.755 201.868H456.306C456.179 201.868 456.124 201.818 456.124 201.7C456.487 197.433 456.088 193.367 454.926 189.487C454.89 189.369 454.926 189.302 455.089 189.302H472.718C472.718 189.302 472.791 189.319 472.827 189.352C472.863 189.386 472.863 189.419 472.863 189.453L472.882 189.436Z" fill="#508FFF"/>
<path d="M446.557 217.831C440.566 224.954 431.343 229.373 421.484 229.423C414.313 229.457 407.251 229.474 400.297 229.457C400.134 229.457 400.007 229.406 399.898 229.289C396.866 226.114 396.194 221.645 396.866 217.193C396.884 217.058 396.975 216.991 397.12 216.991C404.146 216.958 411.081 216.958 417.926 216.991C420.904 217.008 423.173 216.874 424.734 216.571C429.527 215.664 433.413 213.396 436.372 209.767C440.766 204.374 441.546 197.386 438.551 191.237C435.9 185.777 431.379 182.35 424.988 180.955C423.627 180.653 421.666 180.518 419.142 180.518C403.002 180.552 373.554 180.552 358.34 180.518C358.304 180.518 358.267 180.518 358.249 180.485C358.231 180.468 358.213 180.434 358.213 180.401V168.187C358.213 168.103 358.249 168.053 358.358 168.053C373.808 168.07 403.111 168.053 418.725 168.053C421.63 168.053 423.881 168.137 425.442 168.338C438.078 169.918 448.227 178.267 452.095 189.473C453.057 192.278 453.547 195.386 453.547 198.83C453.565 205.937 451.241 212.27 446.557 217.848V217.831Z" fill="#508FFF"/>
<path d="M379.583 229.251C379.583 229.251 379.583 229.301 379.583 229.318C379.583 229.335 379.565 229.368 379.547 229.385C379.547 229.402 379.51 229.419 379.492 229.435C379.474 229.435 379.438 229.435 379.42 229.435H358.232C358.232 229.435 358.214 229.435 358.196 229.435H358.178C358.178 229.435 358.178 229.435 358.178 229.419C358.178 229.419 358.178 229.402 358.178 229.385V217.087C358.178 217.087 358.178 217.02 358.214 217.003C358.232 216.987 358.269 216.97 358.305 216.97H378.185C378.185 216.97 378.24 216.97 378.276 216.987C378.312 216.987 378.33 217.02 378.348 217.037C378.367 217.054 378.385 217.087 378.403 217.104C378.403 217.138 378.403 217.155 378.403 217.188C378.221 221.119 378.603 225.135 379.601 229.251H379.583Z" fill="#508FFF"/>
</g>
<g opacity="0.15">
<path d="M393.979 134.234C393.525 138.955 394.651 143.777 398.155 147.271C398.663 147.775 399.172 148.279 399.68 148.783C402.349 151.37 405.581 153.05 409.375 153.84C410.737 154.126 412.97 154.26 416.074 154.243C431.47 154.21 457.16 154.21 472.592 154.226C472.592 154.226 472.628 154.226 472.647 154.226C472.647 154.226 472.683 154.226 472.683 154.243C472.683 154.243 472.701 154.26 472.701 154.277C472.701 154.277 472.701 154.31 472.701 154.327V166.642C472.701 166.642 472.701 166.675 472.683 166.692C472.683 166.692 472.647 166.709 472.628 166.709C456.906 166.709 430.762 166.709 414.731 166.709C411.753 166.709 409.448 166.574 407.85 166.322C396.884 164.592 387.97 157.654 383.504 148.279C382.741 146.666 382.178 144.886 381.797 142.937C381.107 139.274 380.907 135.595 381.162 131.916C381.234 130.824 381.452 129.665 381.815 128.422C383.994 120.929 388.387 115.032 394.996 110.731C399.698 107.674 404.945 105.926 410.682 105.473C412.189 105.355 413.696 105.288 415.203 105.288C421.394 105.288 427.585 105.288 433.721 105.288C433.939 105.288 434.121 105.372 434.248 105.523C437.153 108.799 438.042 113.705 437.316 117.787C437.316 117.838 437.28 117.854 437.244 117.854C429.963 117.888 422.774 117.888 415.693 117.838C413.006 117.821 410.918 117.972 409.43 118.274C403.456 119.534 398.554 123.079 395.922 128.287C395.668 128.774 395.432 129.262 395.178 129.749C394.524 131.026 394.106 132.521 393.943 134.234H393.979Z" fill="#508FFF"/>
<path d="M472.882 105.436V117.751C472.882 117.751 472.882 117.818 472.845 117.835C472.827 117.851 472.791 117.868 472.755 117.868H456.306C456.179 117.868 456.124 117.818 456.124 117.7C456.487 113.433 456.088 109.367 454.926 105.487C454.89 105.369 454.926 105.302 455.089 105.302H472.718C472.718 105.302 472.791 105.319 472.827 105.352C472.863 105.386 472.863 105.419 472.863 105.453L472.882 105.436Z" fill="#508FFF"/>
<path d="M446.557 133.831C440.566 140.954 431.343 145.373 421.484 145.423C414.313 145.457 407.251 145.474 400.297 145.457C400.134 145.457 400.007 145.406 399.898 145.289C396.866 142.114 396.194 137.645 396.866 133.193C396.884 133.058 396.975 132.991 397.12 132.991C404.146 132.958 411.081 132.958 417.926 132.991C420.904 133.008 423.173 132.874 424.734 132.571C429.527 131.664 433.413 129.396 436.372 125.767C440.766 120.374 441.546 113.386 438.551 107.237C435.9 101.777 431.379 98.3495 424.988 96.9551C423.627 96.6527 421.666 96.5183 419.142 96.5183C403.002 96.5519 373.554 96.5519 358.34 96.5183C358.304 96.5183 358.267 96.5183 358.249 96.4847C358.231 96.4679 358.213 96.4343 358.213 96.4007V84.1871C358.213 84.1031 358.249 84.0527 358.358 84.0527C373.808 84.0695 403.111 84.0527 418.725 84.0527C421.63 84.0527 423.881 84.1367 425.442 84.3383C438.078 85.9175 448.227 94.2671 452.095 105.473C453.057 108.278 453.547 111.386 453.547 114.83C453.565 121.937 451.241 128.27 446.557 133.848V133.831Z" fill="#508FFF"/>
<path d="M379.583 145.251C379.583 145.251 379.583 145.301 379.583 145.318C379.583 145.335 379.565 145.368 379.547 145.385C379.547 145.402 379.51 145.419 379.492 145.435C379.474 145.435 379.438 145.435 379.42 145.435H358.232C358.232 145.435 358.214 145.435 358.196 145.435H358.178C358.178 145.435 358.178 145.435 358.178 145.419C358.178 145.419 358.178 145.402 358.178 145.385V133.087C358.178 133.087 358.178 133.02 358.214 133.003C358.232 132.987 358.269 132.97 358.305 132.97H378.185C378.185 132.97 378.24 132.97 378.276 132.987C378.312 132.987 378.33 133.02 378.348 133.037C378.367 133.054 378.385 133.087 378.403 133.104C378.403 133.138 378.403 133.155 378.403 133.188C378.221 137.119 378.603 141.135 379.601 145.251H379.583Z" fill="#508FFF"/>
</g>
<g opacity="0.15">
<path d="M393.979 608.431C393.525 613.264 394.651 618.2 398.155 621.778C398.663 622.294 399.172 622.81 399.68 623.326C402.349 625.975 405.581 627.695 409.375 628.503C410.737 628.795 412.97 628.933 416.074 628.916C431.47 628.881 457.16 628.881 472.592 628.899C472.592 628.899 472.628 628.899 472.647 628.899C472.647 628.899 472.683 628.899 472.683 628.916C472.683 628.916 472.701 628.933 472.701 628.95C472.701 628.95 472.701 628.985 472.701 629.002V641.609C472.701 641.609 472.701 641.644 472.683 641.661C472.683 641.661 472.647 641.678 472.628 641.678C456.906 641.678 430.762 641.678 414.731 641.678C411.753 641.678 409.448 641.541 407.85 641.283C396.884 639.511 387.97 632.407 383.504 622.81C382.741 621.159 382.178 619.335 381.797 617.34C381.107 613.591 380.907 609.824 381.162 606.057C381.234 604.939 381.452 603.752 381.815 602.479C383.994 594.808 388.387 588.771 394.996 584.368C399.698 581.237 404.945 579.449 410.682 578.984C412.189 578.864 413.696 578.795 415.203 578.795C421.394 578.795 427.585 578.795 433.721 578.795C433.939 578.795 434.121 578.881 434.248 579.036C437.153 582.39 438.042 587.412 437.316 591.592C437.316 591.643 437.28 591.661 437.244 591.661C429.963 591.695 422.774 591.695 415.693 591.643C413.006 591.626 410.918 591.781 409.43 592.091C403.456 593.381 398.554 597.01 395.922 602.342C395.668 602.841 395.432 603.339 395.178 603.838C394.524 605.145 394.106 606.676 393.943 608.431H393.979Z" fill="#508FFF"/>
<path d="M472.882 578.947V591.555C472.882 591.555 472.882 591.624 472.845 591.641C472.827 591.658 472.791 591.675 472.755 591.675H456.306C456.179 591.675 456.124 591.624 456.124 591.503C456.487 587.134 456.088 582.972 454.926 578.999C454.89 578.878 454.926 578.81 455.089 578.81H472.718C472.718 578.81 472.791 578.827 472.827 578.861C472.863 578.896 472.863 578.93 472.863 578.964L472.882 578.947Z" fill="#508FFF"/>
<path d="M446.557 608.017C440.566 615.31 431.343 619.834 421.484 619.885C414.313 619.92 407.251 619.937 400.297 619.92C400.134 619.92 400.007 619.868 399.898 619.748C396.866 616.497 396.194 611.922 396.866 607.364C396.884 607.226 396.975 607.157 397.12 607.157C404.146 607.123 411.081 607.123 417.926 607.157C420.904 607.175 423.173 607.037 424.734 606.727C429.527 605.799 433.413 603.477 436.372 599.761C440.766 594.24 441.546 587.085 438.551 580.79C435.9 575.2 431.379 571.691 424.988 570.263C423.627 569.954 421.666 569.816 419.142 569.816C403.002 569.851 373.554 569.851 358.34 569.816C358.304 569.816 358.267 569.816 358.249 569.782C358.231 569.765 358.213 569.73 358.213 569.696V557.191C358.213 557.105 358.249 557.054 358.358 557.054C373.808 557.071 403.111 557.054 418.725 557.054C421.63 557.054 423.881 557.14 425.442 557.346C438.078 558.963 448.227 567.511 452.095 578.984C453.057 581.856 453.547 585.038 453.547 588.564C453.565 595.84 451.241 602.324 446.557 608.035V608.017Z" fill="#508FFF"/>
<path d="M379.583 619.708C379.583 619.708 379.583 619.76 379.583 619.777C379.583 619.794 379.565 619.828 379.547 619.846C379.547 619.863 379.51 619.88 379.492 619.897C379.474 619.897 379.438 619.897 379.42 619.897H358.232C358.232 619.897 358.214 619.897 358.196 619.897H358.178C358.178 619.897 358.178 619.897 358.178 619.88C358.178 619.88 358.178 619.863 358.178 619.846V607.255C358.178 607.255 358.178 607.186 358.214 607.169C358.232 607.152 358.269 607.135 358.305 607.135H378.185C378.185 607.135 378.24 607.135 378.276 607.152C378.312 607.152 378.33 607.186 378.348 607.204C378.367 607.221 378.385 607.255 378.403 607.272C378.403 607.307 378.403 607.324 378.403 607.358C378.221 611.383 378.603 615.494 379.601 619.708H379.583Z" fill="#508FFF"/>
</g>
<g opacity="0.15">
<path d="M37.9356 693.234C37.47 697.955 38.6248 702.777 42.2194 706.271C42.7409 706.775 43.2624 707.279 43.7839 707.783C46.5217 710.37 49.837 712.05 53.7296 712.84C55.1264 713.126 57.4173 713.26 60.6022 713.243C76.3961 713.21 102.75 713.21 118.582 713.226C118.582 713.226 118.619 713.226 118.637 713.226C118.637 713.226 118.675 713.226 118.675 713.243C118.675 713.243 118.693 713.26 118.693 713.277C118.693 713.277 118.693 713.31 118.693 713.327V725.642C118.693 725.642 118.693 725.675 118.675 725.692C118.675 725.692 118.637 725.709 118.619 725.709C102.49 725.709 75.6697 725.709 59.2239 725.709C56.1694 725.709 53.8041 725.574 52.1651 725.322C40.9156 723.592 31.7708 716.654 27.1891 707.279C26.4068 705.666 25.8294 703.886 25.4383 701.937C24.7306 698.274 24.5257 694.595 24.7864 690.916C24.8609 689.824 25.0844 688.665 25.4569 687.422C27.6919 679.929 32.1992 674.032 38.9786 669.731C43.8025 666.674 49.1851 664.926 55.0706 664.473C56.6164 664.355 58.1623 664.288 59.7082 664.288C66.0593 664.288 72.4104 664.288 78.7056 664.288C78.9291 664.288 79.1153 664.372 79.2457 664.523C82.2257 667.799 83.1383 672.705 82.3933 676.787C82.3933 676.838 82.3561 676.854 82.3188 676.854C74.8502 676.888 67.4748 676.888 60.211 676.838C57.4546 676.821 55.3127 676.972 53.7854 677.274C47.6578 678.534 42.6291 682.079 39.9285 687.287C39.6678 687.774 39.4256 688.262 39.1649 688.749C38.4944 690.026 38.066 691.521 37.8984 693.234H37.9356Z" fill="#508FFF"/>
<path d="M118.879 664.436V676.751C118.879 676.751 118.879 676.818 118.841 676.835C118.823 676.851 118.785 676.868 118.748 676.868H101.874C101.744 676.868 101.688 676.818 101.688 676.7C102.06 672.433 101.651 668.367 100.459 664.487C100.421 664.369 100.459 664.302 100.626 664.302H118.711C118.711 664.302 118.785 664.319 118.823 664.352C118.86 664.386 118.86 664.419 118.86 664.453L118.879 664.436Z" fill="#508FFF"/>
<path d="M91.8731 692.831C85.7269 699.954 76.2652 704.373 66.1519 704.423C58.7951 704.457 51.55 704.474 44.4166 704.457C44.249 704.457 44.1188 704.406 44.0071 704.289C40.8967 701.114 40.2076 696.645 40.8967 692.193C40.9153 692.058 41.0083 691.991 41.1573 691.991C48.3651 691.958 55.48 691.958 62.5016 691.991C65.5561 692.008 67.8842 691.874 69.486 691.571C74.4029 690.664 78.3887 688.396 81.4245 684.767C85.9318 679.374 86.7326 672.386 83.6595 666.237C80.9403 660.777 76.3025 657.35 69.7465 655.955C68.3496 655.653 66.3382 655.518 63.7493 655.518C47.1917 655.552 16.9822 655.552 1.37452 655.518C1.33727 655.518 1.30002 655.518 1.28139 655.485C1.26277 655.468 1.24414 655.434 1.24414 655.401V643.187C1.24414 643.103 1.28139 643.053 1.39314 643.053C17.2429 643.07 47.3035 643.053 63.3209 643.053C66.3009 643.053 68.6104 643.137 70.2121 643.338C83.1751 644.918 93.5866 653.267 97.5537 664.473C98.5408 667.278 99.0435 670.386 99.0435 673.83C99.0621 680.937 96.6783 687.27 91.8731 692.848V692.831Z" fill="#508FFF"/>
<path d="M23.1669 704.251C23.1669 704.251 23.1669 704.301 23.1669 704.318C23.1669 704.335 23.1483 704.368 23.1296 704.385C23.1296 704.402 23.0924 704.419 23.0738 704.435C23.0551 704.435 23.0179 704.435 22.9993 704.435H1.26388C1.26388 704.435 1.24526 704.435 1.22663 704.435H1.20801C1.20801 704.435 1.20801 704.435 1.20801 704.419C1.20801 704.419 1.20801 704.402 1.20801 704.385V692.087C1.20801 692.087 1.20801 692.02 1.24526 692.003C1.26388 691.987 1.30113 691.97 1.33838 691.97H21.7328C21.7328 691.97 21.7886 691.97 21.8259 691.987C21.8631 691.987 21.8818 692.02 21.9004 692.037C21.919 692.054 21.9376 692.087 21.9563 692.104C21.9563 692.138 21.9563 692.155 21.9563 692.188C21.77 696.119 22.1611 700.135 23.1855 704.251H23.1669Z" fill="#508FFF"/>
</g>
<g opacity="0.15">
<path d="M510.936 523.234C510.47 527.955 511.625 532.777 515.219 536.271C515.741 536.775 516.262 537.279 516.784 537.783C519.522 540.37 522.837 542.05 526.73 542.84C528.126 543.126 530.417 543.26 533.602 543.243C549.396 543.21 575.75 543.21 591.582 543.226C591.582 543.226 591.619 543.226 591.637 543.226C591.637 543.226 591.675 543.226 591.675 543.243C591.675 543.243 591.693 543.26 591.693 543.277C591.693 543.277 591.693 543.31 591.693 543.327V555.642C591.693 555.642 591.693 555.675 591.675 555.692C591.675 555.692 591.637 555.709 591.619 555.709C575.49 555.709 548.67 555.709 532.224 555.709C529.169 555.709 526.804 555.574 525.165 555.322C513.916 553.592 504.771 546.654 500.189 537.279C499.407 535.666 498.829 533.886 498.438 531.937C497.731 528.274 497.526 524.595 497.786 520.916C497.861 519.824 498.084 518.665 498.457 517.422C500.692 509.929 505.199 504.032 511.979 499.731C516.802 496.674 522.185 494.926 528.071 494.473C529.616 494.355 531.162 494.288 532.708 494.288C539.059 494.288 545.41 494.288 551.706 494.288C551.929 494.288 552.115 494.372 552.246 494.523C555.226 497.799 556.138 502.705 555.393 506.787C555.393 506.838 555.356 506.854 555.319 506.854C547.85 506.888 540.475 506.888 533.211 506.838C530.455 506.821 528.313 506.972 526.785 507.274C520.658 508.534 515.629 512.079 512.929 517.287C512.668 517.774 512.426 518.262 512.165 518.749C511.494 520.026 511.066 521.521 510.898 523.234H510.936Z" fill="#508FFF"/>
<path d="M591.879 494.436V506.751C591.879 506.751 591.879 506.818 591.841 506.835C591.823 506.851 591.785 506.868 591.748 506.868H574.874C574.744 506.868 574.688 506.818 574.688 506.7C575.06 502.433 574.651 498.367 573.459 494.487C573.421 494.369 573.459 494.302 573.626 494.302H591.711C591.711 494.302 591.785 494.319 591.823 494.352C591.86 494.386 591.86 494.419 591.86 494.453L591.879 494.436Z" fill="#508FFF"/>
<path d="M564.873 522.831C558.727 529.954 549.265 534.373 539.152 534.423C531.795 534.457 524.55 534.474 517.417 534.457C517.249 534.457 517.119 534.406 517.007 534.289C513.897 531.114 513.208 526.645 513.897 522.193C513.915 522.058 514.008 521.991 514.157 521.991C521.365 521.958 528.48 521.958 535.502 521.991C538.556 522.008 540.884 521.874 542.486 521.571C547.403 520.664 551.389 518.396 554.425 514.767C558.932 509.374 559.733 502.386 556.66 496.237C553.94 490.777 549.302 487.35 542.747 485.955C541.35 485.653 539.338 485.518 536.749 485.518C520.192 485.552 489.982 485.552 474.375 485.518C474.337 485.518 474.3 485.518 474.281 485.485C474.263 485.468 474.244 485.434 474.244 485.401V473.187C474.244 473.103 474.281 473.053 474.393 473.053C490.243 473.07 520.303 473.053 536.321 473.053C539.301 473.053 541.61 473.137 543.212 473.338C556.175 474.918 566.587 483.267 570.554 494.473C571.541 497.278 572.044 500.386 572.044 503.83C572.062 510.937 569.678 517.27 564.873 522.848V522.831Z" fill="#508FFF"/>
<path d="M496.167 534.251C496.167 534.251 496.167 534.301 496.167 534.318C496.167 534.335 496.148 534.368 496.13 534.385C496.13 534.402 496.092 534.419 496.074 534.435C496.055 534.435 496.018 534.435 495.999 534.435H474.264C474.264 534.435 474.245 534.435 474.227 534.435H474.208C474.208 534.435 474.208 534.435 474.208 534.419C474.208 534.419 474.208 534.402 474.208 534.385V522.087C474.208 522.087 474.208 522.02 474.245 522.003C474.264 521.987 474.301 521.97 474.338 521.97H494.733C494.733 521.97 494.789 521.97 494.826 521.987C494.863 521.987 494.882 522.02 494.9 522.037C494.919 522.054 494.938 522.087 494.956 522.104C494.956 522.138 494.956 522.155 494.956 522.188C494.77 526.119 495.161 530.135 496.186 534.251H496.167Z" fill="#508FFF"/>
</g>
<g opacity="0.15">
<path d="M510.936 218.234C510.47 222.955 511.625 227.777 515.219 231.271C515.741 231.775 516.262 232.279 516.784 232.783C519.522 235.37 522.837 237.05 526.73 237.84C528.126 238.126 530.417 238.26 533.602 238.243C549.396 238.21 575.75 238.21 591.582 238.226C591.582 238.226 591.619 238.226 591.637 238.226C591.637 238.226 591.675 238.226 591.675 238.243C591.675 238.243 591.693 238.26 591.693 238.277C591.693 238.277 591.693 238.31 591.693 238.327V250.642C591.693 250.642 591.693 250.675 591.675 250.692C591.675 250.692 591.637 250.709 591.619 250.709C575.49 250.709 548.67 250.709 532.224 250.709C529.169 250.709 526.804 250.574 525.165 250.322C513.916 248.592 504.771 241.654 500.189 232.279C499.407 230.666 498.829 228.886 498.438 226.937C497.731 223.274 497.526 219.595 497.786 215.916C497.861 214.824 498.084 213.665 498.457 212.422C500.692 204.929 505.199 199.032 511.979 194.731C516.802 191.674 522.185 189.926 528.071 189.473C529.616 189.355 531.162 189.288 532.708 189.288C539.059 189.288 545.41 189.288 551.706 189.288C551.929 189.288 552.115 189.372 552.246 189.523C555.226 192.799 556.138 197.705 555.393 201.787C555.393 201.838 555.356 201.854 555.319 201.854C547.85 201.888 540.475 201.888 533.211 201.838C530.455 201.821 528.313 201.972 526.785 202.274C520.658 203.534 515.629 207.079 512.929 212.287C512.668 212.774 512.426 213.262 512.165 213.749C511.494 215.026 511.066 216.521 510.898 218.234H510.936Z" fill="#508FFF"/>
<path d="M591.879 189.436V201.751C591.879 201.751 591.879 201.818 591.841 201.835C591.823 201.851 591.785 201.868 591.748 201.868H574.874C574.744 201.868 574.688 201.818 574.688 201.7C575.06 197.433 574.651 193.367 573.459 189.487C573.421 189.369 573.459 189.302 573.626 189.302H591.711C591.711 189.302 591.785 189.319 591.823 189.352C591.86 189.386 591.86 189.419 591.86 189.453L591.879 189.436Z" fill="#508FFF"/>
<path d="M564.873 217.831C558.727 224.954 549.265 229.373 539.152 229.423C531.795 229.457 524.55 229.474 517.417 229.457C517.249 229.457 517.119 229.406 517.007 229.289C513.897 226.114 513.208 221.645 513.897 217.193C513.915 217.058 514.008 216.991 514.157 216.991C521.365 216.958 528.48 216.958 535.502 216.991C538.556 217.008 540.884 216.874 542.486 216.571C547.403 215.664 551.389 213.396 554.425 209.767C558.932 204.374 559.733 197.386 556.66 191.237C553.94 185.777 549.302 182.35 542.747 180.955C541.35 180.653 539.338 180.518 536.749 180.518C520.192 180.552 489.982 180.552 474.375 180.518C474.337 180.518 474.3 180.518 474.281 180.485C474.263 180.468 474.244 180.434 474.244 180.401V168.187C474.244 168.103 474.281 168.053 474.393 168.053C490.243 168.07 520.303 168.053 536.321 168.053C539.301 168.053 541.61 168.137 543.212 168.338C556.175 169.918 566.587 178.267 570.554 189.473C571.541 192.278 572.044 195.386 572.044 198.83C572.062 205.937 569.678 212.27 564.873 217.848V217.831Z" fill="#508FFF"/>
<path d="M496.167 229.251C496.167 229.251 496.167 229.301 496.167 229.318C496.167 229.335 496.148 229.368 496.13 229.385C496.13 229.402 496.092 229.419 496.074 229.435C496.055 229.435 496.018 229.435 495.999 229.435H474.264C474.264 229.435 474.245 229.435 474.227 229.435H474.208C474.208 229.435 474.208 229.435 474.208 229.419C474.208 229.419 474.208 229.402 474.208 229.385V217.087C474.208 217.087 474.208 217.02 474.245 217.003C474.264 216.987 474.301 216.97 474.338 216.97H494.733C494.733 216.97 494.789 216.97 494.826 216.987C494.863 216.987 494.882 217.02 494.9 217.037C494.919 217.054 494.938 217.087 494.956 217.104C494.956 217.138 494.956 217.155 494.956 217.188C494.77 221.119 495.161 225.135 496.186 229.251H496.167Z" fill="#508FFF"/>
</g>
<g opacity="0.15">
<path d="M510.936 50.2345C510.47 54.9553 511.625 59.7769 515.219 63.2713C515.741 63.7753 516.262 64.2793 516.784 64.7833C519.522 67.3705 522.837 69.0505 526.73 69.8401C528.126 70.1257 530.417 70.2601 533.602 70.2433C549.396 70.2097 575.75 70.2097 591.582 70.2265C591.582 70.2265 591.619 70.2265 591.637 70.2265C591.637 70.2265 591.675 70.2265 591.675 70.2433C591.675 70.2433 591.693 70.2601 591.693 70.2769C591.693 70.2769 591.693 70.3105 591.693 70.3273V82.6417C591.693 82.6417 591.693 82.6753 591.675 82.6921C591.675 82.6921 591.637 82.7089 591.619 82.7089C575.49 82.7089 548.67 82.7089 532.224 82.7089C529.169 82.7089 526.804 82.5745 525.165 82.3225C513.916 80.5921 504.771 73.6537 500.189 64.2793C499.407 62.6665 498.829 60.8857 498.438 58.9369C497.731 55.2745 497.526 51.5953 497.786 47.9161C497.861 46.8241 498.084 45.6649 498.457 44.4217C500.692 36.9289 505.199 31.0321 511.979 26.7313C516.802 23.6737 522.185 21.9265 528.071 21.4729C529.616 21.3553 531.162 21.2881 532.708 21.2881C539.059 21.2881 545.41 21.2881 551.706 21.2881C551.929 21.2881 552.115 21.3721 552.246 21.5233C555.226 24.7993 556.138 29.7049 555.393 33.7873C555.393 33.8377 555.356 33.8545 555.319 33.8545C547.85 33.8881 540.475 33.8881 533.211 33.8377C530.455 33.8209 528.313 33.9721 526.785 34.2745C520.658 35.5345 515.629 39.0793 512.929 44.2873C512.668 44.7745 512.426 45.2617 512.165 45.7489C511.494 47.0257 511.066 48.5209 510.898 50.2345H510.936Z" fill="#508FFF"/>
<path d="M591.879 21.4362V33.7506C591.879 33.7506 591.879 33.8178 591.841 33.8346C591.823 33.8514 591.785 33.8682 591.748 33.8682H574.874C574.744 33.8682 574.688 33.8178 574.688 33.7002C575.06 29.433 574.651 25.3674 573.459 21.4866C573.421 21.369 573.459 21.3018 573.626 21.3018H591.711C591.711 21.3018 591.785 21.3186 591.823 21.3522C591.86 21.3858 591.86 21.4194 591.86 21.453L591.879 21.4362Z" fill="#508FFF"/>
<path d="M564.873 49.8311C558.727 56.9543 549.265 61.3727 539.152 61.4231C531.795 61.4567 524.55 61.4735 517.417 61.4567C517.249 61.4567 517.119 61.4063 517.007 61.2887C513.897 58.1135 513.208 53.6447 513.897 49.1927C513.915 49.0583 514.008 48.9911 514.157 48.9911C521.365 48.9575 528.48 48.9575 535.502 48.9911C538.556 49.0079 540.884 48.8735 542.486 48.5711C547.403 47.6639 551.389 45.3959 554.425 41.7671C558.932 36.3743 559.733 29.3855 556.66 23.2367C553.94 17.7767 549.302 14.3495 542.747 12.9551C541.35 12.6527 539.338 12.5183 536.749 12.5183C520.192 12.5519 489.982 12.5519 474.375 12.5183C474.337 12.5183 474.3 12.5183 474.281 12.4847C474.263 12.4679 474.244 12.4343 474.244 12.4007V0.187135C474.244 0.103134 474.281 0.0527344 474.393 0.0527344C490.243 0.0695344 520.303 0.0527344 536.321 0.0527344C539.301 0.0527344 541.61 0.136734 543.212 0.338335C556.175 1.91754 566.587 10.2671 570.554 21.4727C571.541 24.2783 572.044 27.3863 572.044 30.8303C572.062 37.9367 569.678 44.2703 564.873 49.8479V49.8311Z" fill="#508FFF"/>
<path d="M496.167 61.2505C496.167 61.2505 496.167 61.3009 496.167 61.3177C496.167 61.3345 496.148 61.3681 496.13 61.3849C496.13 61.4017 496.092 61.4185 496.074 61.4353C496.055 61.4353 496.018 61.4353 495.999 61.4353H474.264C474.264 61.4353 474.245 61.4353 474.227 61.4353H474.208C474.208 61.4353 474.208 61.4353 474.208 61.4185C474.208 61.4185 474.208 61.4017 474.208 61.3849V49.0873C474.208 49.0873 474.208 49.0201 474.245 49.0033C474.264 48.9865 474.301 48.9697 474.338 48.9697H494.733C494.733 48.9697 494.789 48.9697 494.826 48.9865C494.863 48.9865 494.882 49.0201 494.9 49.0369C494.919 49.0537 494.938 49.0873 494.956 49.1041C494.956 49.1377 494.956 49.1545 494.956 49.1881C494.77 53.1193 495.161 57.1345 496.186 61.2505H496.167Z" fill="#508FFF"/>
</g>
<g opacity="0.15">
<path d="M510.936 608.431C510.47 613.264 511.625 618.2 515.219 621.778C515.741 622.294 516.262 622.81 516.784 623.326C519.522 625.975 522.837 627.695 526.73 628.503C528.126 628.795 530.417 628.933 533.602 628.916C549.396 628.881 575.75 628.881 591.582 628.899C591.582 628.899 591.619 628.899 591.637 628.899C591.637 628.899 591.675 628.899 591.675 628.916C591.675 628.916 591.693 628.933 591.693 628.95C591.693 628.95 591.693 628.985 591.693 629.002V641.609C591.693 641.609 591.693 641.644 591.675 641.661C591.675 641.661 591.637 641.678 591.619 641.678C575.49 641.678 548.67 641.678 532.224 641.678C529.169 641.678 526.804 641.541 525.165 641.283C513.916 639.511 504.771 632.407 500.189 622.81C499.407 621.159 498.829 619.335 498.438 617.34C497.731 613.591 497.526 609.824 497.786 606.057C497.861 604.939 498.084 603.752 498.457 602.479C500.692 594.808 505.199 588.771 511.979 584.368C516.802 581.237 522.185 579.449 528.071 578.984C529.616 578.864 531.162 578.795 532.708 578.795C539.059 578.795 545.41 578.795 551.706 578.795C551.929 578.795 552.115 578.881 552.246 579.036C555.226 582.39 556.138 587.412 555.393 591.592C555.393 591.643 555.356 591.661 555.319 591.661C547.85 591.695 540.475 591.695 533.211 591.643C530.455 591.626 528.313 591.781 526.785 592.091C520.658 593.381 515.629 597.01 512.929 602.342C512.668 602.841 512.426 603.339 512.165 603.838C511.494 605.145 511.066 606.676 510.898 608.431H510.936Z" fill="#508FFF"/>
<path d="M591.879 578.947V591.555C591.879 591.555 591.879 591.624 591.841 591.641C591.823 591.658 591.785 591.675 591.748 591.675H574.874C574.744 591.675 574.688 591.624 574.688 591.503C575.06 587.134 574.651 582.972 573.459 578.999C573.421 578.878 573.459 578.81 573.626 578.81H591.711C591.711 578.81 591.785 578.827 591.823 578.861C591.86 578.896 591.86 578.93 591.86 578.964L591.879 578.947Z" fill="#508FFF"/>
<path d="M564.873 608.017C558.727 615.31 549.265 619.834 539.152 619.885C531.795 619.92 524.55 619.937 517.417 619.92C517.249 619.92 517.119 619.868 517.007 619.748C513.897 616.497 513.208 611.922 513.897 607.364C513.915 607.226 514.008 607.157 514.157 607.157C521.365 607.123 528.48 607.123 535.502 607.157C538.556 607.175 540.884 607.037 542.486 606.727C547.403 605.799 551.389 603.477 554.425 599.761C558.932 594.24 559.733 587.085 556.66 580.79C553.94 575.2 549.302 571.691 542.747 570.263C541.35 569.954 539.338 569.816 536.749 569.816C520.192 569.851 489.982 569.851 474.375 569.816C474.337 569.816 474.3 569.816 474.281 569.782C474.263 569.765 474.244 569.73 474.244 569.696V557.191C474.244 557.105 474.281 557.054 474.393 557.054C490.243 557.071 520.303 557.054 536.321 557.054C539.301 557.054 541.61 557.14 543.212 557.346C556.175 558.963 566.587 567.511 570.554 578.984C571.541 581.856 572.044 585.038 572.044 588.564C572.062 595.84 569.678 602.324 564.873 608.035V608.017Z" fill="#508FFF"/>
<path d="M496.167 619.708C496.167 619.708 496.167 619.76 496.167 619.777C496.167 619.794 496.148 619.828 496.13 619.846C496.13 619.863 496.092 619.88 496.074 619.897C496.055 619.897 496.018 619.897 495.999 619.897H474.264C474.264 619.897 474.245 619.897 474.227 619.897H474.208C474.208 619.897 474.208 619.897 474.208 619.88C474.208 619.88 474.208 619.863 474.208 619.846V607.255C474.208 607.255 474.208 607.186 474.245 607.169C474.264 607.152 474.301 607.135 474.338 607.135H494.733C494.733 607.135 494.789 607.135 494.826 607.152C494.863 607.152 494.882 607.186 494.9 607.204C494.919 607.221 494.938 607.255 494.956 607.272C494.956 607.307 494.956 607.324 494.956 607.358C494.77 611.383 495.161 615.494 496.186 619.708H496.167Z" fill="#508FFF"/>
</g>
<g opacity="0.15">
<path d="M510.936 303.431C510.47 308.264 511.625 313.2 515.219 316.778C515.741 317.294 516.262 317.81 516.784 318.326C519.522 320.975 522.837 322.695 526.73 323.503C528.126 323.795 530.417 323.933 533.602 323.916C549.396 323.881 575.75 323.881 591.582 323.899C591.582 323.899 591.619 323.899 591.637 323.899C591.637 323.899 591.675 323.899 591.675 323.916C591.675 323.916 591.693 323.933 591.693 323.95C591.693 323.95 591.693 323.985 591.693 324.002V336.609C591.693 336.609 591.693 336.644 591.675 336.661C591.675 336.661 591.637 336.678 591.619 336.678C575.49 336.678 548.67 336.678 532.224 336.678C529.169 336.678 526.804 336.541 525.165 336.283C513.916 334.511 504.771 327.407 500.189 317.81C499.407 316.159 498.829 314.335 498.438 312.34C497.731 308.591 497.526 304.824 497.786 301.057C497.861 299.939 498.084 298.752 498.457 297.479C500.692 289.808 505.199 283.771 511.979 279.368C516.802 276.237 522.185 274.449 528.071 273.984C529.616 273.864 531.162 273.795 532.708 273.795C539.059 273.795 545.41 273.795 551.706 273.795C551.929 273.795 552.115 273.881 552.246 274.036C555.226 277.39 556.138 282.412 555.393 286.592C555.393 286.643 555.356 286.661 555.319 286.661C547.85 286.695 540.475 286.695 533.211 286.643C530.455 286.626 528.313 286.781 526.785 287.091C520.658 288.381 515.629 292.01 512.929 297.342C512.668 297.841 512.426 298.339 512.165 298.838C511.494 300.145 511.066 301.676 510.898 303.431H510.936Z" fill="#508FFF"/>
<path d="M591.879 273.947V286.555C591.879 286.555 591.879 286.624 591.841 286.641C591.823 286.658 591.785 286.675 591.748 286.675H574.874C574.744 286.675 574.688 286.624 574.688 286.503C575.06 282.134 574.651 277.972 573.459 273.999C573.421 273.878 573.459 273.81 573.626 273.81H591.711C591.711 273.81 591.785 273.827 591.823 273.861C591.86 273.896 591.86 273.93 591.86 273.964L591.879 273.947Z" fill="#508FFF"/>
<path d="M564.873 303.017C558.727 310.31 549.265 314.834 539.152 314.885C531.795 314.92 524.55 314.937 517.417 314.92C517.249 314.92 517.119 314.868 517.007 314.748C513.897 311.497 513.208 306.922 513.897 302.364C513.915 302.226 514.008 302.157 514.157 302.157C521.365 302.123 528.48 302.123 535.502 302.157C538.556 302.175 540.884 302.037 542.486 301.727C547.403 300.799 551.389 298.477 554.425 294.761C558.932 289.24 559.733 282.085 556.66 275.79C553.94 270.2 549.302 266.691 542.747 265.263C541.35 264.954 539.338 264.816 536.749 264.816C520.192 264.851 489.982 264.851 474.375 264.816C474.337 264.816 474.3 264.816 474.281 264.782C474.263 264.765 474.244 264.73 474.244 264.696V252.191C474.244 252.105 474.281 252.054 474.393 252.054C490.243 252.071 520.303 252.054 536.321 252.054C539.301 252.054 541.61 252.14 543.212 252.346C556.175 253.963 566.587 262.511 570.554 273.984C571.541 276.856 572.044 280.038 572.044 283.564C572.062 290.84 569.678 297.324 564.873 303.035V303.017Z" fill="#508FFF"/>
<path d="M496.167 314.708C496.167 314.708 496.167 314.76 496.167 314.777C496.167 314.794 496.148 314.828 496.13 314.846C496.13 314.863 496.092 314.88 496.074 314.897C496.055 314.897 496.018 314.897 495.999 314.897H474.264C474.264 314.897 474.245 314.897 474.227 314.897H474.208C474.208 314.897 474.208 314.897 474.208 314.88C474.208 314.88 474.208 314.863 474.208 314.846V302.255C474.208 302.255 474.208 302.186 474.245 302.169C474.264 302.152 474.301 302.135 474.338 302.135H494.733C494.733 302.135 494.789 302.135 494.826 302.152C494.863 302.152 494.882 302.186 494.9 302.204C494.919 302.221 494.938 302.255 494.956 302.272C494.956 302.307 494.956 302.324 494.956 302.358C494.77 306.383 495.161 310.494 496.186 314.708H496.167Z" fill="#508FFF"/>
</g>
<g opacity="0.15">
<path d="M156.936 608.431C156.47 613.264 157.625 618.2 161.219 621.778C161.741 622.294 162.262 622.81 162.784 623.326C165.522 625.975 168.837 627.695 172.73 628.503C174.126 628.795 176.417 628.933 179.602 628.916C195.396 628.881 221.75 628.881 237.582 628.899C237.582 628.899 237.619 628.899 237.637 628.899C237.637 628.899 237.675 628.899 237.675 628.916C237.675 628.916 237.693 628.933 237.693 628.95C237.693 628.95 237.693 628.985 237.693 629.002V641.609C237.693 641.609 237.693 641.644 237.675 641.661C237.675 641.661 237.637 641.678 237.619 641.678C221.49 641.678 194.67 641.678 178.224 641.678C175.169 641.678 172.804 641.541 171.165 641.283C159.916 639.511 150.771 632.407 146.189 622.81C145.407 621.159 144.829 619.335 144.438 617.34C143.731 613.591 143.526 609.824 143.786 606.057C143.861 604.939 144.084 603.752 144.457 602.479C146.692 594.808 151.199 588.771 157.979 584.368C162.802 581.237 168.185 579.449 174.071 578.984C175.616 578.864 177.162 578.795 178.708 578.795C185.059 578.795 191.41 578.795 197.706 578.795C197.929 578.795 198.115 578.881 198.246 579.036C201.226 582.39 202.138 587.412 201.393 591.592C201.393 591.643 201.356 591.661 201.319 591.661C193.85 591.695 186.475 591.695 179.211 591.643C176.455 591.626 174.313 591.781 172.785 592.091C166.658 593.381 161.629 597.01 158.929 602.342C158.668 602.841 158.426 603.339 158.165 603.838C157.494 605.145 157.066 606.676 156.898 608.431H156.936Z" fill="#508FFF"/>
<path d="M237.879 578.947V591.555C237.879 591.555 237.879 591.624 237.841 591.641C237.823 591.658 237.785 591.675 237.748 591.675H220.874C220.744 591.675 220.688 591.624 220.688 591.503C221.06 587.134 220.651 582.972 219.459 578.999C219.421 578.878 219.459 578.81 219.626 578.81H237.711C237.711 578.81 237.785 578.827 237.823 578.861C237.86 578.896 237.86 578.93 237.86 578.964L237.879 578.947Z" fill="#508FFF"/>
<path d="M210.873 608.017C204.727 615.31 195.265 619.834 185.152 619.885C177.795 619.92 170.55 619.937 163.417 619.92C163.249 619.92 163.119 619.868 163.007 619.748C159.897 616.497 159.208 611.922 159.897 607.364C159.915 607.226 160.008 607.157 160.157 607.157C167.365 607.123 174.48 607.123 181.502 607.157C184.556 607.175 186.884 607.037 188.486 606.727C193.403 605.799 197.389 603.477 200.425 599.761C204.932 594.24 205.733 587.085 202.66 580.79C199.94 575.2 195.302 571.691 188.747 570.263C187.35 569.954 185.338 569.816 182.749 569.816C166.192 569.851 135.982 569.851 120.375 569.816C120.337 569.816 120.3 569.816 120.281 569.782C120.263 569.765 120.244 569.73 120.244 569.696V557.191C120.244 557.105 120.281 557.054 120.393 557.054C136.243 557.071 166.303 557.054 182.321 557.054C185.301 557.054 187.61 557.14 189.212 557.346C202.175 558.963 212.587 567.511 216.554 578.984C217.541 581.856 218.044 585.038 218.044 588.564C218.062 595.84 215.678 602.324 210.873 608.035V608.017Z" fill="#508FFF"/>
<path d="M142.167 619.708C142.167 619.708 142.167 619.76 142.167 619.777C142.167 619.794 142.148 619.828 142.13 619.846C142.13 619.863 142.092 619.88 142.074 619.897C142.055 619.897 142.018 619.897 141.999 619.897H120.264C120.264 619.897 120.245 619.897 120.227 619.897H120.208C120.208 619.897 120.208 619.897 120.208 619.88C120.208 619.88 120.208 619.863 120.208 619.846V607.255C120.208 607.255 120.208 607.186 120.245 607.169C120.264 607.152 120.301 607.135 120.338 607.135H140.733C140.733 607.135 140.789 607.135 140.826 607.152C140.863 607.152 140.882 607.186 140.9 607.204C140.919 607.221 140.938 607.255 140.956 607.272C140.956 607.307 140.956 607.324 140.956 607.358C140.77 611.383 141.161 615.494 142.186 619.708H142.167Z" fill="#508FFF"/>
</g>
<g opacity="0.15">
<path d="M156.936 693.234C156.47 697.955 157.625 702.777 161.219 706.271C161.741 706.775 162.262 707.279 162.784 707.783C165.522 710.37 168.837 712.05 172.73 712.84C174.126 713.126 176.417 713.26 179.602 713.243C195.396 713.21 221.75 713.21 237.582 713.226C237.582 713.226 237.619 713.226 237.637 713.226C237.637 713.226 237.675 713.226 237.675 713.243C237.675 713.243 237.693 713.26 237.693 713.277C237.693 713.277 237.693 713.31 237.693 713.327V725.642C237.693 725.642 237.693 725.675 237.675 725.692C237.675 725.692 237.637 725.709 237.619 725.709C221.49 725.709 194.67 725.709 178.224 725.709C175.169 725.709 172.804 725.574 171.165 725.322C159.916 723.592 150.771 716.654 146.189 707.279C145.407 705.666 144.829 703.886 144.438 701.937C143.731 698.274 143.526 694.595 143.786 690.916C143.861 689.824 144.084 688.665 144.457 687.422C146.692 679.929 151.199 674.032 157.979 669.731C162.802 666.674 168.185 664.926 174.071 664.473C175.616 664.355 177.162 664.288 178.708 664.288C185.059 664.288 191.41 664.288 197.706 664.288C197.929 664.288 198.115 664.372 198.246 664.523C201.226 667.799 202.138 672.705 201.393 676.787C201.393 676.838 201.356 676.854 201.319 676.854C193.85 676.888 186.475 676.888 179.211 676.838C176.455 676.821 174.313 676.972 172.785 677.274C166.658 678.534 161.629 682.079 158.929 687.287C158.668 687.774 158.426 688.262 158.165 688.749C157.494 690.026 157.066 691.521 156.898 693.234H156.936Z" fill="#508FFF"/>
<path d="M237.879 664.436V676.751C237.879 676.751 237.879 676.818 237.841 676.835C237.823 676.851 237.785 676.868 237.748 676.868H220.874C220.744 676.868 220.688 676.818 220.688 676.7C221.06 672.433 220.651 668.367 219.459 664.487C219.421 664.369 219.459 664.302 219.626 664.302H237.711C237.711 664.302 237.785 664.319 237.823 664.352C237.86 664.386 237.86 664.419 237.86 664.453L237.879 664.436Z" fill="#508FFF"/>
<path d="M210.873 692.831C204.727 699.954 195.265 704.373 185.152 704.423C177.795 704.457 170.55 704.474 163.417 704.457C163.249 704.457 163.119 704.406 163.007 704.289C159.897 701.114 159.208 696.645 159.897 692.193C159.915 692.058 160.008 691.991 160.157 691.991C167.365 691.958 174.48 691.958 181.502 691.991C184.556 692.008 186.884 691.874 188.486 691.571C193.403 690.664 197.389 688.396 200.425 684.767C204.932 679.374 205.733 672.386 202.66 666.237C199.94 660.777 195.302 657.35 188.747 655.955C187.35 655.653 185.338 655.518 182.749 655.518C166.192 655.552 135.982 655.552 120.375 655.518C120.337 655.518 120.3 655.518 120.281 655.485C120.263 655.468 120.244 655.434 120.244 655.401V643.187C120.244 643.103 120.281 643.053 120.393 643.053C136.243 643.07 166.303 643.053 182.321 643.053C185.301 643.053 187.61 643.137 189.212 643.338C202.175 644.918 212.587 653.267 216.554 664.473C217.541 667.278 218.044 670.386 218.044 673.83C218.062 680.937 215.678 687.27 210.873 692.848V692.831Z" fill="#508FFF"/>
<path d="M142.167 704.251C142.167 704.251 142.167 704.301 142.167 704.318C142.167 704.335 142.148 704.368 142.13 704.385C142.13 704.402 142.092 704.419 142.074 704.435C142.055 704.435 142.018 704.435 141.999 704.435H120.264C120.264 704.435 120.245 704.435 120.227 704.435H120.208C120.208 704.435 120.208 704.435 120.208 704.419C120.208 704.419 120.208 704.402 120.208 704.385V692.087C120.208 692.087 120.208 692.02 120.245 692.003C120.264 691.987 120.301 691.97 120.338 691.97H140.733C140.733 691.97 140.789 691.97 140.826 691.987C140.863 691.987 140.882 692.02 140.9 692.037C140.919 692.054 140.938 692.087 140.956 692.104C140.956 692.138 140.956 692.155 140.956 692.188C140.77 696.119 141.161 700.135 142.186 704.251H142.167Z" fill="#508FFF"/>
</g>
</svg>
