<svg width="260" height="373" viewBox="0 0 260 373" fill="none" xmlns="http://www.w3.org/2000/svg">
<g opacity="0.15" clip-path="url(#clip0_3142_21269)">
<path d="M85.7183 27.5098C85.4639 30.095 86.0947 32.7354 88.0581 34.649C88.343 34.925 88.6278 35.201 88.9127 35.477C90.4082 36.8938 92.219 37.8138 94.3452 38.2462C95.1082 38.4026 96.3595 38.4762 98.0992 38.467C106.726 38.4486 121.121 38.4486 129.769 38.4578C129.769 38.4578 129.789 38.4578 129.799 38.4578C129.799 38.4578 129.819 38.4578 129.819 38.467C129.819 38.467 129.83 38.4762 129.83 38.4854C129.83 38.4854 129.83 38.5038 129.83 38.513V45.2566C129.83 45.2566 129.83 45.275 129.819 45.2842C129.819 45.2842 129.799 45.2934 129.789 45.2934C120.979 45.2934 106.329 45.2934 97.3463 45.2934C95.6779 45.2934 94.3859 45.2198 93.4907 45.0818C87.346 44.1342 82.3509 40.3346 79.8483 35.201C79.421 34.3178 79.1056 33.3426 78.892 32.2754C78.5054 30.2698 78.3935 28.255 78.5359 26.2402C78.5766 25.6422 78.6987 25.0074 78.9022 24.3266C80.123 20.2234 82.5849 16.9942 86.288 14.639C88.9229 12.9646 91.8629 12.0078 95.0777 11.7594C95.9221 11.695 96.7665 11.6582 97.6108 11.6582C101.08 11.6582 104.549 11.6582 107.988 11.6582C108.11 11.6582 108.211 11.7042 108.283 11.787C109.91 13.581 110.409 16.2674 110.002 18.503C110.002 18.5306 109.982 18.5398 109.961 18.5398C105.882 18.5582 101.853 18.5582 97.8855 18.5306C96.3799 18.5214 95.2099 18.6042 94.3757 18.7698C91.0287 19.4598 88.2819 21.401 86.8068 24.253C86.6644 24.5198 86.5321 24.7866 86.3897 25.0534C86.0235 25.7526 85.7895 26.5714 85.6979 27.5098H85.7183Z" fill="#508FFF"/>
<path d="M129.936 11.7386V18.4822C129.936 18.4822 129.936 18.519 129.915 18.5282C129.905 18.5374 129.885 18.5466 129.865 18.5466H120.648C120.576 18.5466 120.546 18.519 120.546 18.4546C120.749 16.1178 120.525 13.8914 119.874 11.7662C119.854 11.7018 119.874 11.665 119.966 11.665H129.844C129.844 11.665 129.885 11.6742 129.905 11.6926C129.926 11.711 129.926 11.7294 129.926 11.7478L129.936 11.7386Z" fill="#508FFF"/>
<path d="M115.183 27.2879C111.826 31.1887 106.658 33.6083 101.134 33.6359C97.1151 33.6543 93.1577 33.6635 89.2613 33.6543C89.1697 33.6543 89.0986 33.6267 89.0376 33.5623C87.3386 31.8235 86.9622 29.3763 87.3386 26.9383C87.3488 26.8647 87.3996 26.8279 87.481 26.8279C91.418 26.8095 95.3043 26.8095 99.1396 26.8279C100.808 26.8371 102.08 26.7635 102.955 26.5979C105.64 26.1011 107.817 24.8591 109.476 22.8719C111.938 19.9187 112.375 16.0915 110.696 12.7243C109.211 9.73432 106.678 7.85752 103.097 7.09392C102.334 6.92832 101.235 6.85472 99.8212 6.85472C90.7771 6.87312 74.2761 6.87312 65.7509 6.85472C65.7306 6.85472 65.7102 6.85472 65.7 6.83632C65.6899 6.82712 65.6797 6.80872 65.6797 6.79032V0.101921C65.6797 0.0559203 65.7 0.0283203 65.7611 0.0283203C74.4185 0.0375203 90.8381 0.0283203 99.5872 0.0283203C101.215 0.0283203 102.476 0.0743203 103.351 0.184721C110.432 1.04952 116.119 5.62192 118.286 11.7583C118.825 13.2947 119.1 14.9967 119.1 16.8827C119.11 20.7743 117.808 24.2427 115.183 27.2971V27.2879Z" fill="#508FFF"/>
<path d="M77.6506 33.5416C77.6506 33.5416 77.6506 33.5692 77.6506 33.5784C77.6506 33.5876 77.6404 33.606 77.6302 33.6152C77.6302 33.6244 77.6099 33.6336 77.5997 33.6428C77.5896 33.6428 77.5692 33.6428 77.559 33.6428H65.6868C65.6868 33.6428 65.6766 33.6428 65.6664 33.6428H65.6562C65.6562 33.6428 65.6562 33.6428 65.6562 33.6336C65.6562 33.6336 65.6562 33.6244 65.6562 33.6152V26.8808C65.6562 26.8808 65.6563 26.844 65.6766 26.8348C65.6868 26.8256 65.7071 26.8164 65.7275 26.8164H76.8672C76.8672 26.8164 76.8978 26.8164 76.9181 26.8256C76.9385 26.8256 76.9486 26.844 76.9588 26.8532C76.969 26.8624 76.9792 26.8808 76.9893 26.89C76.9893 26.9084 76.9893 26.9176 76.9893 26.936C76.8876 29.0888 77.1012 31.2876 77.6608 33.5416H77.6506Z" fill="#508FFF"/>
</g>
<g opacity="0.15" clip-path="url(#clip1_3142_21269)">
<path d="M85.7183 73.5088C85.4639 76.094 86.0947 78.7344 88.0581 80.648C88.343 80.924 88.6278 81.2 88.9127 81.476C90.4082 82.8928 92.219 83.8128 94.3452 84.2452C95.1082 84.4016 96.3595 84.4752 98.0992 84.466C106.726 84.4476 121.121 84.4476 129.769 84.4568C129.769 84.4568 129.789 84.4568 129.799 84.4568C129.799 84.4568 129.819 84.4568 129.819 84.466C129.819 84.466 129.83 84.4752 129.83 84.4844C129.83 84.4844 129.83 84.5028 129.83 84.512V91.2556C129.83 91.2556 129.83 91.274 129.819 91.2832C129.819 91.2832 129.799 91.2924 129.789 91.2924C120.979 91.2924 106.329 91.2924 97.3463 91.2924C95.6779 91.2924 94.3859 91.2188 93.4907 91.0808C87.346 90.1332 82.3509 86.3336 79.8483 81.2C79.421 80.3168 79.1056 79.3416 78.892 78.2744C78.5054 76.2688 78.3935 74.254 78.5359 72.2392C78.5766 71.6412 78.6987 71.0064 78.9022 70.3256C80.123 66.2224 82.5849 62.9932 86.288 60.638C88.9229 58.9636 91.8629 58.0068 95.0777 57.7584C95.9221 57.694 96.7665 57.6572 97.6108 57.6572C101.08 57.6572 104.549 57.6572 107.988 57.6572C108.11 57.6572 108.211 57.7032 108.283 57.786C109.91 59.58 110.409 62.2664 110.002 64.502C110.002 64.5296 109.982 64.5388 109.961 64.5388C105.882 64.5572 101.853 64.5572 97.8855 64.5296C96.3799 64.5204 95.2099 64.6032 94.3757 64.7688C91.0287 65.4588 88.2819 67.4 86.8068 70.252C86.6644 70.5188 86.5321 70.7856 86.3897 71.0524C86.0235 71.7516 85.7895 72.5704 85.6979 73.5088H85.7183Z" fill="#508FFF"/>
<path d="M129.936 57.7386V64.4822C129.936 64.4822 129.936 64.519 129.915 64.5282C129.905 64.5374 129.885 64.5466 129.865 64.5466H120.648C120.576 64.5466 120.546 64.519 120.546 64.4546C120.749 62.1178 120.525 59.8914 119.874 57.7662C119.854 57.7018 119.874 57.665 119.966 57.665H129.844C129.844 57.665 129.885 57.6742 129.905 57.6926C129.926 57.711 129.926 57.7294 129.926 57.7478L129.936 57.7386Z" fill="#508FFF"/>
<path d="M115.183 73.2879C111.826 77.1887 106.658 79.6083 101.134 79.6359C97.1151 79.6543 93.1577 79.6635 89.2613 79.6543C89.1697 79.6543 89.0986 79.6267 89.0376 79.5623C87.3386 77.8235 86.9622 75.3763 87.3386 72.9383C87.3488 72.8647 87.3996 72.8279 87.481 72.8279C91.418 72.8095 95.3043 72.8095 99.1396 72.8279C100.808 72.8371 102.08 72.7635 102.955 72.5979C105.64 72.1011 107.817 70.8591 109.476 68.8719C111.938 65.9187 112.375 62.0915 110.696 58.7243C109.211 55.7343 106.678 53.8575 103.097 53.0939C102.334 52.9283 101.235 52.8547 99.8212 52.8547C90.7771 52.8731 74.2761 52.8731 65.7509 52.8547C65.7306 52.8547 65.7102 52.8547 65.7 52.8363C65.6899 52.8271 65.6797 52.8087 65.6797 52.7903V46.1019C65.6797 46.0559 65.7 46.0283 65.7611 46.0283C74.4185 46.0375 90.8381 46.0283 99.5872 46.0283C101.215 46.0283 102.476 46.0743 103.351 46.1847C110.432 47.0495 116.119 51.6219 118.286 57.7583C118.825 59.2947 119.1 60.9967 119.1 62.8827C119.11 66.7743 117.808 70.2427 115.183 73.2971V73.2879Z" fill="#508FFF"/>
<path d="M77.6506 79.5416C77.6506 79.5416 77.6506 79.5692 77.6506 79.5784C77.6506 79.5876 77.6404 79.606 77.6302 79.6152C77.6302 79.6244 77.6099 79.6336 77.5997 79.6428C77.5896 79.6428 77.5692 79.6428 77.559 79.6428H65.6868C65.6868 79.6428 65.6766 79.6428 65.6664 79.6428H65.6562C65.6562 79.6428 65.6562 79.6428 65.6562 79.6336C65.6562 79.6336 65.6562 79.6244 65.6562 79.6152V72.8808C65.6562 72.8808 65.6563 72.844 65.6766 72.8348C65.6868 72.8256 65.7071 72.8164 65.7275 72.8164H76.8672C76.8672 72.8164 76.8978 72.8164 76.9181 72.8256C76.9385 72.8256 76.9486 72.844 76.9588 72.8532C76.969 72.8624 76.9792 72.8808 76.9893 72.89C76.9893 72.9084 76.9893 72.9176 76.9893 72.936C76.8876 75.0888 77.1012 77.2876 77.6608 79.5416H77.6506Z" fill="#508FFF"/>
</g>
<g opacity="0.15" clip-path="url(#clip2_3142_21269)">
<path d="M239.282 345.491C239.536 342.906 238.905 340.266 236.942 338.352C236.657 338.076 236.372 337.8 236.087 337.524C234.592 336.107 232.781 335.187 230.655 334.755C229.892 334.598 228.64 334.525 226.901 334.534C218.274 334.552 203.879 334.552 195.231 334.543C195.231 334.543 195.211 334.543 195.201 334.543C195.201 334.543 195.181 334.543 195.181 334.534C195.181 334.534 195.17 334.525 195.17 334.516C195.17 334.516 195.17 334.497 195.17 334.488L195.17 327.744C195.17 327.744 195.17 327.726 195.181 327.717C195.181 327.717 195.201 327.708 195.211 327.708C204.021 327.708 218.671 327.708 227.654 327.708C229.322 327.708 230.614 327.781 231.509 327.919C237.654 328.867 242.649 332.666 245.152 337.8C245.579 338.683 245.894 339.658 246.108 340.726C246.495 342.731 246.606 344.746 246.464 346.761C246.423 347.359 246.301 347.994 246.098 348.674C244.877 352.778 242.415 356.007 238.712 358.362C236.077 360.036 233.137 360.993 229.922 361.242C229.078 361.306 228.234 361.343 227.389 361.343C223.92 361.343 220.451 361.343 217.012 361.343C216.89 361.343 216.789 361.297 216.717 361.214C215.09 359.42 214.591 356.734 214.998 354.498C214.998 354.47 215.018 354.461 215.039 354.461C219.118 354.443 223.147 354.443 227.114 354.47C228.62 354.48 229.79 354.397 230.624 354.231C233.971 353.541 236.718 351.6 238.193 348.748C238.336 348.481 238.468 348.214 238.61 347.948C238.977 347.248 239.211 346.43 239.302 345.491L239.282 345.491Z" fill="#508FFF"/>
<path d="M195.064 361.261L195.064 354.518C195.064 354.518 195.064 354.481 195.085 354.472C195.095 354.463 195.115 354.453 195.135 354.453L204.352 354.453C204.424 354.453 204.454 354.481 204.454 354.545C204.251 356.882 204.475 359.109 205.126 361.234C205.146 361.298 205.126 361.335 205.034 361.335L195.156 361.335C195.156 361.335 195.115 361.326 195.095 361.307C195.074 361.289 195.074 361.271 195.074 361.252L195.064 361.261Z" fill="#508FFF"/>
<path d="M209.817 345.712C213.174 341.811 218.342 339.392 223.866 339.364C227.885 339.346 231.842 339.336 235.739 339.346C235.83 339.346 235.901 339.373 235.962 339.438C237.661 341.176 238.038 343.624 237.661 346.062C237.651 346.135 237.6 346.172 237.519 346.172C233.582 346.19 229.696 346.19 225.86 346.172C224.192 346.163 222.92 346.236 222.045 346.402C219.36 346.899 217.183 348.141 215.524 350.128C213.062 353.081 212.625 356.908 214.304 360.276C215.789 363.266 218.322 365.142 221.903 365.906C222.666 366.072 223.765 366.145 225.179 366.145C234.223 366.127 250.724 366.127 259.249 366.145C259.269 366.145 259.29 366.145 259.3 366.164C259.31 366.173 259.32 366.191 259.32 366.21L259.32 372.898C259.32 372.944 259.3 372.972 259.239 372.972C250.581 372.962 234.162 372.972 225.413 372.972C223.785 372.972 222.524 372.926 221.649 372.815C214.568 371.95 208.881 367.378 206.714 361.242C206.175 359.705 205.9 358.003 205.9 356.117C205.89 352.226 207.192 348.757 209.817 345.703L209.817 345.712Z" fill="#508FFF"/>
<path d="M247.349 339.458C247.349 339.458 247.349 339.431 247.349 339.422C247.349 339.412 247.36 339.394 247.37 339.385C247.37 339.376 247.39 339.366 247.4 339.357C247.41 339.357 247.431 339.357 247.441 339.357L259.313 339.357C259.313 339.357 259.323 339.357 259.334 339.357L259.344 339.357C259.344 339.357 259.344 339.357 259.344 339.366C259.344 339.366 259.344 339.376 259.344 339.385L259.344 346.119C259.344 346.119 259.344 346.156 259.323 346.165C259.313 346.174 259.293 346.184 259.273 346.184L248.133 346.184C248.133 346.184 248.102 346.184 248.082 346.174C248.062 346.174 248.051 346.156 248.041 346.147C248.031 346.138 248.021 346.119 248.011 346.11C248.011 346.092 248.011 346.082 248.011 346.064C248.112 343.911 247.899 341.712 247.339 339.458L247.349 339.458Z" fill="#508FFF"/>
</g>
<g opacity="0.15" clip-path="url(#clip3_3142_21269)">
<path d="M150.404 27.5098C150.153 30.095 150.774 32.7354 152.708 34.649C152.988 34.925 153.269 35.201 153.549 35.477C155.021 36.8938 156.804 37.8138 158.898 38.2462C159.649 38.4026 160.881 38.4762 162.594 38.467C171.088 38.4486 185.262 38.4486 193.776 38.4578C193.776 38.4578 193.796 38.4578 193.806 38.4578C193.806 38.4578 193.826 38.4578 193.826 38.467C193.826 38.467 193.836 38.4762 193.836 38.4854C193.836 38.4854 193.836 38.5038 193.836 38.513V45.2566C193.836 45.2566 193.836 45.275 193.826 45.2842C193.826 45.2842 193.806 45.2934 193.796 45.2934C185.122 45.2934 170.698 45.2934 161.853 45.2934C160.21 45.2934 158.938 45.2198 158.057 45.0818C152.006 44.1342 147.088 40.3346 144.624 35.201C144.203 34.3178 143.893 33.3426 143.682 32.2754C143.302 30.2698 143.192 28.255 143.332 26.2402C143.372 25.6422 143.492 25.0074 143.693 24.3266C144.895 20.2234 147.319 16.9942 150.965 14.639C153.559 12.9646 156.454 12.0078 159.619 11.7594C160.451 11.695 161.282 11.6582 162.113 11.6582C165.529 11.6582 168.945 11.6582 172.33 11.6582C172.451 11.6582 172.551 11.7042 172.621 11.787C174.224 13.581 174.714 16.2674 174.314 18.503C174.314 18.5306 174.294 18.5398 174.274 18.5398C170.257 18.5582 166.29 18.5582 162.384 18.5306C160.901 18.5214 159.749 18.6042 158.928 18.7698C155.632 19.4598 152.928 21.401 151.476 24.253C151.335 24.5198 151.205 24.7866 151.065 25.0534C150.704 25.7526 150.474 26.5714 150.384 27.5098H150.404Z" fill="#508FFF"/>
<path d="M193.937 11.7386V18.4822C193.937 18.4822 193.937 18.519 193.917 18.5282C193.907 18.5374 193.887 18.5466 193.867 18.5466H184.792C184.722 18.5466 184.692 18.519 184.692 18.4546C184.892 16.1178 184.672 13.8914 184.031 11.7662C184.011 11.7018 184.031 11.665 184.121 11.665H193.847C193.847 11.665 193.887 11.6742 193.907 11.6926C193.927 11.711 193.927 11.7294 193.927 11.7478L193.937 11.7386Z" fill="#508FFF"/>
<path d="M179.414 27.2879C176.108 31.1887 171.019 33.6083 165.58 33.6359C161.624 33.6543 157.727 33.6635 153.891 33.6543C153.801 33.6543 153.731 33.6267 153.67 33.5623C151.998 31.8235 151.627 29.3763 151.998 26.9383C152.008 26.8647 152.058 26.8279 152.138 26.8279C156.014 26.8095 159.841 26.8095 163.617 26.8279C165.26 26.8371 166.512 26.7635 167.373 26.5979C170.018 26.1011 172.161 24.8591 173.794 22.8719C176.218 19.9187 176.649 16.0915 174.996 12.7243C173.534 9.73432 171.039 7.85752 167.513 7.09392C166.762 6.92832 165.68 6.85472 164.288 6.85472C155.383 6.87312 139.136 6.87312 130.742 6.85472C130.722 6.85472 130.702 6.85472 130.692 6.83632C130.682 6.82712 130.672 6.80872 130.672 6.79032V0.101921C130.672 0.0559203 130.692 0.0283203 130.752 0.0283203C139.276 0.0375203 155.443 0.0283203 164.058 0.0283203C165.66 0.0283203 166.902 0.0743203 167.764 0.184721C174.736 1.04952 180.335 5.62192 182.469 11.7583C183 13.2947 183.27 14.9967 183.27 16.8827C183.28 20.7743 181.998 24.2427 179.414 27.2971V27.2879Z" fill="#508FFF"/>
<path d="M142.458 33.5416C142.458 33.5416 142.458 33.5692 142.458 33.5784C142.458 33.5876 142.448 33.606 142.438 33.6152C142.438 33.6244 142.418 33.6336 142.408 33.6428C142.398 33.6428 142.378 33.6428 142.368 33.6428H130.678C130.678 33.6428 130.668 33.6428 130.658 33.6428H130.648C130.648 33.6428 130.648 33.6428 130.648 33.6336C130.648 33.6336 130.648 33.6244 130.648 33.6152V26.8808C130.648 26.8808 130.648 26.844 130.668 26.8348C130.678 26.8256 130.699 26.8164 130.719 26.8164H141.687C141.687 26.8164 141.717 26.8164 141.737 26.8256C141.757 26.8256 141.767 26.844 141.777 26.8532C141.787 26.8624 141.797 26.8808 141.807 26.89C141.807 26.9084 141.807 26.9176 141.807 26.936C141.707 29.0888 141.917 31.2876 142.468 33.5416H142.458Z" fill="#508FFF"/>
</g>
<g opacity="0.15" clip-path="url(#clip4_3142_21269)">
<path d="M150.404 119.107C150.153 121.749 150.774 124.447 152.708 126.402C152.988 126.684 153.269 126.966 153.549 127.248C155.021 128.695 156.804 129.635 158.898 130.077C159.649 130.237 160.881 130.312 162.594 130.303C171.088 130.284 185.262 130.284 193.776 130.293C193.776 130.293 193.796 130.293 193.806 130.293C193.806 130.293 193.826 130.293 193.826 130.303C193.826 130.303 193.836 130.312 193.836 130.322C193.836 130.322 193.836 130.34 193.836 130.35V137.24C193.836 137.24 193.836 137.259 193.826 137.268C193.826 137.268 193.806 137.278 193.796 137.278C185.122 137.278 170.698 137.278 161.853 137.278C160.21 137.278 158.938 137.202 158.057 137.061C152.006 136.093 147.088 132.211 144.624 126.966C144.203 126.063 143.893 125.067 143.682 123.977C143.302 121.927 143.192 119.869 143.332 117.81C143.372 117.199 143.492 116.551 143.693 115.855C144.895 111.663 147.319 108.363 150.965 105.957C153.559 104.246 156.454 103.268 159.619 103.015C160.451 102.949 161.282 102.911 162.113 102.911C165.529 102.911 168.945 102.911 172.33 102.911C172.451 102.911 172.551 102.958 172.621 103.043C174.224 104.876 174.714 107.621 174.314 109.905C174.314 109.933 174.294 109.942 174.274 109.942C170.257 109.961 166.29 109.961 162.384 109.933C160.901 109.924 159.749 110.008 158.928 110.177C155.632 110.882 152.928 112.866 151.476 115.78C151.335 116.052 151.205 116.325 151.065 116.598C150.704 117.312 150.474 118.149 150.384 119.107H150.404Z" fill="#508FFF"/>
<path d="M193.937 102.994V109.884C193.937 109.884 193.937 109.922 193.917 109.931C193.907 109.941 193.887 109.95 193.867 109.95H184.792C184.722 109.95 184.692 109.922 184.692 109.856C184.892 107.469 184.672 105.194 184.031 103.022C184.011 102.957 184.031 102.919 184.121 102.919H193.847C193.847 102.919 193.887 102.928 193.907 102.947C193.927 102.966 193.927 102.985 193.927 103.004L193.937 102.994Z" fill="#508FFF"/>
<path d="M179.414 118.882C176.108 122.867 171.019 125.339 165.58 125.368C161.624 125.386 157.727 125.396 153.891 125.386C153.801 125.386 153.731 125.358 153.67 125.292C151.998 123.516 151.627 121.015 151.998 118.524C152.008 118.449 152.058 118.411 152.138 118.411C156.014 118.393 159.841 118.393 163.617 118.411C165.26 118.421 166.512 118.346 167.373 118.177C170.018 117.669 172.161 116.4 173.794 114.369C176.218 111.352 176.649 107.442 174.996 104.001C173.534 100.946 171.039 99.0287 167.513 98.2485C166.762 98.0793 165.68 98.0041 164.288 98.0041C155.383 98.0229 139.136 98.0229 130.742 98.0041C130.722 98.0041 130.702 98.0041 130.692 97.9853C130.682 97.9759 130.672 97.9571 130.672 97.9383V91.1045C130.672 91.0575 130.692 91.0293 130.752 91.0293C139.276 91.0387 155.443 91.0293 164.058 91.0293C165.66 91.0293 166.902 91.0763 167.764 91.1891C174.736 92.0727 180.335 96.7445 182.469 103.014C183 104.584 183.27 106.323 183.27 108.25C183.28 112.226 181.998 115.77 179.414 118.891V118.882Z" fill="#508FFF"/>
<path d="M142.458 125.271C142.458 125.271 142.458 125.299 142.458 125.308C142.458 125.318 142.448 125.337 142.438 125.346C142.438 125.355 142.418 125.365 142.408 125.374C142.398 125.374 142.378 125.374 142.368 125.374H130.678C130.678 125.374 130.668 125.374 130.658 125.374H130.648C130.648 125.374 130.648 125.374 130.648 125.365C130.648 125.365 130.648 125.355 130.648 125.346V118.465C130.648 118.465 130.648 118.428 130.668 118.418C130.678 118.409 130.699 118.399 130.719 118.399H141.687C141.687 118.399 141.717 118.399 141.737 118.409C141.757 118.409 141.767 118.428 141.777 118.437C141.787 118.446 141.797 118.465 141.807 118.475C141.807 118.493 141.807 118.503 141.807 118.522C141.707 120.721 141.917 122.968 142.468 125.271H142.458Z" fill="#508FFF"/>
</g>
<g opacity="0.15" clip-path="url(#clip5_3142_21269)">
<path d="M239.596 299.893C239.847 297.251 239.226 294.553 237.292 292.598C237.012 292.316 236.731 292.034 236.451 291.752C234.979 290.305 233.196 289.365 231.102 288.923C230.351 288.763 229.119 288.688 227.406 288.697C218.912 288.716 204.738 288.716 196.224 288.707C196.224 288.707 196.204 288.707 196.194 288.707C196.194 288.707 196.174 288.707 196.174 288.697C196.174 288.697 196.164 288.688 196.164 288.678C196.164 288.678 196.164 288.66 196.164 288.65L196.164 281.76C196.164 281.76 196.164 281.741 196.174 281.732C196.174 281.732 196.194 281.722 196.204 281.722C204.878 281.722 219.302 281.722 228.147 281.722C229.79 281.722 231.062 281.798 231.943 281.939C237.994 282.907 242.912 286.789 245.376 292.034C245.797 292.937 246.107 293.933 246.318 295.023C246.698 297.073 246.808 299.131 246.668 301.19C246.628 301.801 246.508 302.449 246.307 303.145C245.105 307.337 242.681 310.637 239.035 313.043C236.441 314.754 233.546 315.732 230.381 315.985C229.549 316.051 228.718 316.089 227.887 316.089C224.471 316.089 221.055 316.089 217.67 316.089C217.549 316.089 217.449 316.042 217.379 315.957C215.776 314.124 215.286 311.379 215.686 309.095C215.686 309.067 215.706 309.058 215.726 309.058C219.743 309.039 223.71 309.039 227.616 309.067C229.099 309.076 230.251 308.992 231.072 308.823C234.368 308.118 237.072 306.134 238.524 303.22C238.665 302.948 238.795 302.675 238.935 302.402C239.296 301.688 239.526 300.851 239.616 299.893L239.596 299.893Z" fill="#508FFF"/>
<path d="M196.063 316.006L196.063 309.116C196.063 309.116 196.063 309.078 196.083 309.069C196.093 309.059 196.113 309.05 196.133 309.05L205.208 309.05C205.278 309.05 205.308 309.078 205.308 309.144C205.108 311.531 205.328 313.806 205.969 315.978C205.989 316.043 205.969 316.081 205.879 316.081L196.153 316.081C196.153 316.081 196.113 316.072 196.093 316.053C196.073 316.034 196.073 316.015 196.073 315.996L196.063 316.006Z" fill="#508FFF"/>
<path d="M210.586 300.118C213.892 296.133 218.981 293.661 224.42 293.632C228.376 293.614 232.273 293.604 236.109 293.614C236.199 293.614 236.269 293.642 236.33 293.708C238.002 295.484 238.373 297.985 238.002 300.476C237.992 300.551 237.942 300.588 237.862 300.588C233.986 300.607 230.159 300.607 226.383 300.588C224.74 300.579 223.488 300.654 222.627 300.823C219.982 301.331 217.839 302.6 216.206 304.63C213.782 307.648 213.351 311.558 215.004 314.999C216.466 318.054 218.961 319.971 222.487 320.751C223.238 320.921 224.32 320.996 225.712 320.996C234.617 320.977 250.864 320.977 259.258 320.996C259.278 320.996 259.298 320.996 259.308 321.015C259.318 321.024 259.328 321.043 259.328 321.062L259.328 327.896C259.328 327.943 259.308 327.971 259.248 327.971C250.724 327.961 234.557 327.971 225.942 327.971C224.34 327.971 223.098 327.924 222.236 327.811C215.264 326.927 209.665 322.255 207.531 315.986C207 314.416 206.73 312.677 206.73 310.75C206.72 306.774 208.002 303.23 210.586 300.109L210.586 300.118Z" fill="#508FFF"/>
<path d="M247.542 293.729C247.542 293.729 247.542 293.701 247.542 293.692C247.542 293.682 247.552 293.663 247.562 293.654C247.562 293.645 247.582 293.635 247.592 293.626C247.602 293.626 247.622 293.626 247.632 293.626L259.322 293.626C259.322 293.626 259.332 293.626 259.342 293.626L259.352 293.626C259.352 293.626 259.352 293.626 259.352 293.635C259.352 293.635 259.352 293.645 259.352 293.654L259.352 300.535C259.352 300.535 259.352 300.572 259.332 300.582C259.322 300.591 259.301 300.601 259.281 300.601L248.313 300.601C248.313 300.601 248.283 300.601 248.263 300.591C248.243 300.591 248.233 300.572 248.223 300.563C248.213 300.554 248.203 300.535 248.193 300.525C248.193 300.507 248.193 300.497 248.193 300.478C248.293 298.279 248.083 296.032 247.532 293.729L247.542 293.729Z" fill="#508FFF"/>
</g>
<g opacity="0.15" clip-path="url(#clip6_3142_21269)">
<path d="M150.404 73.5088C150.153 76.094 150.774 78.7344 152.708 80.648C152.988 80.924 153.269 81.2 153.549 81.476C155.021 82.8928 156.804 83.8128 158.898 84.2452C159.649 84.4016 160.881 84.4752 162.594 84.466C171.088 84.4476 185.262 84.4476 193.776 84.4568C193.776 84.4568 193.796 84.4568 193.806 84.4568C193.806 84.4568 193.826 84.4568 193.826 84.466C193.826 84.466 193.836 84.4752 193.836 84.4844C193.836 84.4844 193.836 84.5028 193.836 84.512V91.2556C193.836 91.2556 193.836 91.274 193.826 91.2832C193.826 91.2832 193.806 91.2924 193.796 91.2924C185.122 91.2924 170.698 91.2924 161.853 91.2924C160.21 91.2924 158.938 91.2188 158.057 91.0808C152.006 90.1332 147.088 86.3336 144.624 81.2C144.203 80.3168 143.893 79.3416 143.682 78.2744C143.302 76.2688 143.192 74.254 143.332 72.2392C143.372 71.6412 143.492 71.0064 143.693 70.3256C144.895 66.2224 147.319 62.9932 150.965 60.638C153.559 58.9636 156.454 58.0068 159.619 57.7584C160.451 57.694 161.282 57.6572 162.113 57.6572C165.529 57.6572 168.945 57.6572 172.33 57.6572C172.451 57.6572 172.551 57.7032 172.621 57.786C174.224 59.58 174.714 62.2664 174.314 64.502C174.314 64.5296 174.294 64.5388 174.274 64.5388C170.257 64.5572 166.29 64.5572 162.384 64.5296C160.901 64.5204 159.749 64.6032 158.928 64.7688C155.632 65.4588 152.928 67.4 151.476 70.252C151.335 70.5188 151.205 70.7856 151.065 71.0524C150.704 71.7516 150.474 72.5704 150.384 73.5088H150.404Z" fill="#508FFF"/>
<path d="M193.937 57.7386V64.4822C193.937 64.4822 193.937 64.519 193.917 64.5282C193.907 64.5374 193.887 64.5466 193.867 64.5466H184.792C184.722 64.5466 184.692 64.519 184.692 64.4546C184.892 62.1178 184.672 59.8914 184.031 57.7662C184.011 57.7018 184.031 57.665 184.121 57.665H193.847C193.847 57.665 193.887 57.6742 193.907 57.6926C193.927 57.711 193.927 57.7294 193.927 57.7478L193.937 57.7386Z" fill="#508FFF"/>
<path d="M179.414 73.2879C176.108 77.1887 171.019 79.6083 165.58 79.6359C161.624 79.6543 157.727 79.6635 153.891 79.6543C153.801 79.6543 153.731 79.6267 153.67 79.5623C151.998 77.8235 151.627 75.3763 151.998 72.9383C152.008 72.8647 152.058 72.8279 152.138 72.8279C156.014 72.8095 159.841 72.8095 163.617 72.8279C165.26 72.8371 166.512 72.7635 167.373 72.5979C170.018 72.1011 172.161 70.8591 173.794 68.8719C176.218 65.9187 176.649 62.0915 174.996 58.7243C173.534 55.7343 171.039 53.8575 167.513 53.0939C166.762 52.9283 165.68 52.8547 164.288 52.8547C155.383 52.8731 139.136 52.8731 130.742 52.8547C130.722 52.8547 130.702 52.8547 130.692 52.8363C130.682 52.8271 130.672 52.8087 130.672 52.7903V46.1019C130.672 46.0559 130.692 46.0283 130.752 46.0283C139.276 46.0375 155.443 46.0283 164.058 46.0283C165.66 46.0283 166.902 46.0743 167.764 46.1847C174.736 47.0495 180.335 51.6219 182.469 57.7583C183 59.2947 183.27 60.9967 183.27 62.8827C183.28 66.7743 181.998 70.2427 179.414 73.2971V73.2879Z" fill="#508FFF"/>
<path d="M142.458 79.5416C142.458 79.5416 142.458 79.5692 142.458 79.5784C142.458 79.5876 142.448 79.606 142.438 79.6152C142.438 79.6244 142.418 79.6336 142.408 79.6428C142.398 79.6428 142.378 79.6428 142.368 79.6428H130.678C130.678 79.6428 130.668 79.6428 130.658 79.6428H130.648C130.648 79.6428 130.648 79.6428 130.648 79.6336C130.648 79.6336 130.648 79.6244 130.648 79.6152V72.8808C130.648 72.8808 130.648 72.844 130.668 72.8348C130.678 72.8256 130.699 72.8164 130.719 72.8164H141.687C141.687 72.8164 141.717 72.8164 141.737 72.8256C141.757 72.8256 141.767 72.844 141.777 72.8532C141.787 72.8624 141.797 72.8808 141.807 72.89C141.807 72.9084 141.807 72.9176 141.807 72.936C141.707 75.0888 141.917 77.2876 142.468 79.5416H142.458Z" fill="#508FFF"/>
</g>
<g opacity="0.15" clip-path="url(#clip7_3142_21269)">
<path d="M174.596 345.491C174.847 342.906 174.226 340.266 172.292 338.352C172.012 338.076 171.731 337.8 171.451 337.524C169.979 336.107 168.196 335.187 166.102 334.755C165.351 334.598 164.119 334.525 162.406 334.534C153.912 334.552 139.738 334.552 131.224 334.543C131.224 334.543 131.204 334.543 131.194 334.543C131.194 334.543 131.174 334.543 131.174 334.534C131.174 334.534 131.164 334.525 131.164 334.516C131.164 334.516 131.164 334.497 131.164 334.488L131.164 327.744C131.164 327.744 131.164 327.726 131.174 327.717C131.174 327.717 131.194 327.708 131.204 327.708C139.878 327.708 154.302 327.708 163.147 327.708C164.79 327.708 166.062 327.781 166.943 327.919C172.994 328.867 177.912 332.666 180.376 337.8C180.797 338.683 181.107 339.658 181.318 340.726C181.698 342.731 181.808 344.746 181.668 346.761C181.628 347.359 181.508 347.994 181.307 348.674C180.105 352.778 177.681 356.007 174.035 358.362C171.441 360.036 168.546 360.993 165.381 361.242C164.549 361.306 163.718 361.343 162.887 361.343C159.471 361.343 156.055 361.343 152.67 361.343C152.549 361.343 152.449 361.297 152.379 361.214C150.776 359.42 150.286 356.734 150.686 354.498C150.686 354.47 150.706 354.461 150.726 354.461C154.743 354.443 158.71 354.443 162.616 354.47C164.099 354.48 165.251 354.397 166.072 354.231C169.368 353.541 172.072 351.6 173.524 348.748C173.665 348.481 173.795 348.214 173.935 347.948C174.296 347.248 174.526 346.43 174.616 345.491L174.596 345.491Z" fill="#508FFF"/>
<path d="M131.063 361.261L131.063 354.518C131.063 354.518 131.063 354.481 131.083 354.472C131.093 354.463 131.113 354.453 131.133 354.453L140.208 354.453C140.278 354.453 140.308 354.481 140.308 354.545C140.108 356.882 140.328 359.109 140.969 361.234C140.989 361.298 140.969 361.335 140.879 361.335L131.153 361.335C131.153 361.335 131.113 361.326 131.093 361.307C131.073 361.289 131.073 361.271 131.073 361.252L131.063 361.261Z" fill="#508FFF"/>
<path d="M145.586 345.712C148.892 341.811 153.981 339.392 159.42 339.364C163.376 339.346 167.273 339.336 171.109 339.346C171.199 339.346 171.269 339.373 171.33 339.438C173.002 341.176 173.373 343.624 173.002 346.062C172.992 346.135 172.942 346.172 172.862 346.172C168.986 346.19 165.159 346.19 161.383 346.172C159.74 346.163 158.488 346.236 157.627 346.402C154.982 346.899 152.839 348.141 151.206 350.128C148.782 353.081 148.351 356.908 150.004 360.276C151.466 363.266 153.961 365.142 157.487 365.906C158.238 366.072 159.32 366.145 160.712 366.145C169.617 366.127 185.864 366.127 194.258 366.145C194.278 366.145 194.298 366.145 194.308 366.164C194.318 366.173 194.328 366.191 194.328 366.21L194.328 372.898C194.328 372.944 194.308 372.972 194.248 372.972C185.724 372.962 169.557 372.972 160.942 372.972C159.34 372.972 158.098 372.926 157.236 372.815C150.264 371.95 144.665 367.378 142.531 361.242C142 359.705 141.73 358.003 141.73 356.117C141.72 352.226 143.002 348.757 145.586 345.703L145.586 345.712Z" fill="#508FFF"/>
<path d="M182.542 339.458C182.542 339.458 182.542 339.431 182.542 339.422C182.542 339.412 182.552 339.394 182.562 339.385C182.562 339.376 182.582 339.366 182.592 339.357C182.602 339.357 182.622 339.357 182.632 339.357L194.322 339.357C194.322 339.357 194.332 339.357 194.342 339.357L194.352 339.357C194.352 339.357 194.352 339.357 194.352 339.366C194.352 339.366 194.352 339.376 194.352 339.385L194.352 346.119C194.352 346.119 194.352 346.156 194.332 346.165C194.322 346.174 194.301 346.184 194.281 346.184L183.313 346.184C183.313 346.184 183.283 346.184 183.263 346.174C183.243 346.174 183.233 346.156 183.223 346.147C183.213 346.138 183.203 346.119 183.193 346.11C183.193 346.092 183.193 346.082 183.193 346.064C183.293 343.911 183.083 341.712 182.532 339.458L182.542 339.458Z" fill="#508FFF"/>
</g>
<g opacity="0.15" clip-path="url(#clip8_3142_21269)">
<path d="M214.718 27.5098C214.464 30.095 215.095 32.7354 217.058 34.649C217.343 34.925 217.628 35.201 217.913 35.477C219.408 36.8938 221.219 37.8138 223.345 38.2462C224.108 38.4026 225.36 38.4762 227.099 38.467C235.726 38.4486 250.121 38.4486 258.769 38.4578C258.769 38.4578 258.789 38.4578 258.799 38.4578C258.799 38.4578 258.819 38.4578 258.819 38.467C258.819 38.467 258.83 38.4762 258.83 38.4854C258.83 38.4854 258.83 38.5038 258.83 38.513V45.2566C258.83 45.2566 258.83 45.275 258.819 45.2842C258.819 45.2842 258.799 45.2934 258.789 45.2934C249.979 45.2934 235.329 45.2934 226.346 45.2934C224.678 45.2934 223.386 45.2198 222.491 45.0818C216.346 44.1342 211.351 40.3346 208.848 35.201C208.421 34.3178 208.106 33.3426 207.892 32.2754C207.505 30.2698 207.394 28.255 207.536 26.2402C207.577 25.6422 207.699 25.0074 207.902 24.3266C209.123 20.2234 211.585 16.9942 215.288 14.639C217.923 12.9646 220.863 12.0078 224.078 11.7594C224.922 11.695 225.766 11.6582 226.611 11.6582C230.08 11.6582 233.549 11.6582 236.988 11.6582C237.11 11.6582 237.211 11.7042 237.283 11.787C238.91 13.581 239.409 16.2674 239.002 18.503C239.002 18.5306 238.982 18.5398 238.961 18.5398C234.882 18.5582 230.853 18.5582 226.886 18.5306C225.38 18.5214 224.21 18.6042 223.376 18.7698C220.029 19.4598 217.282 21.401 215.807 24.253C215.664 24.5198 215.532 24.7866 215.39 25.0534C215.023 25.7526 214.789 26.5714 214.698 27.5098H214.718Z" fill="#508FFF"/>
<path d="M258.936 11.7386V18.4822C258.936 18.4822 258.936 18.519 258.915 18.5282C258.905 18.5374 258.885 18.5466 258.865 18.5466H249.648C249.576 18.5466 249.546 18.519 249.546 18.4546C249.749 16.1178 249.525 13.8914 248.874 11.7662C248.854 11.7018 248.874 11.665 248.966 11.665H258.844C258.844 11.665 258.885 11.6742 258.905 11.6926C258.926 11.711 258.926 11.7294 258.926 11.7478L258.936 11.7386Z" fill="#508FFF"/>
<path d="M244.183 27.2879C240.826 31.1887 235.658 33.6083 230.134 33.6359C226.115 33.6543 222.158 33.6635 218.261 33.6543C218.17 33.6543 218.099 33.6267 218.038 33.5623C216.339 31.8235 215.962 29.3763 216.339 26.9383C216.349 26.8647 216.4 26.8279 216.481 26.8279C220.418 26.8095 224.304 26.8095 228.14 26.8279C229.808 26.8371 231.08 26.7635 231.955 26.5979C234.64 26.1011 236.817 24.8591 238.476 22.8719C240.938 19.9187 241.375 16.0915 239.696 12.7243C238.211 9.73432 235.678 7.85752 232.097 7.09392C231.334 6.92832 230.235 6.85472 228.821 6.85472C219.777 6.87312 203.276 6.87312 194.751 6.85472C194.731 6.85472 194.71 6.85472 194.7 6.83632C194.69 6.82712 194.68 6.80872 194.68 6.79032V0.101921C194.68 0.0559203 194.7 0.0283203 194.761 0.0283203C203.419 0.0375203 219.838 0.0283203 228.587 0.0283203C230.215 0.0283203 231.476 0.0743203 232.351 0.184721C239.432 1.04952 245.119 5.62192 247.286 11.7583C247.825 13.2947 248.1 14.9967 248.1 16.8827C248.11 20.7743 246.808 24.2427 244.183 27.2971V27.2879Z" fill="#508FFF"/>
<path d="M206.651 33.5416C206.651 33.5416 206.651 33.5692 206.651 33.5784C206.651 33.5876 206.64 33.606 206.63 33.6152C206.63 33.6244 206.61 33.6336 206.6 33.6428C206.59 33.6428 206.569 33.6428 206.559 33.6428H194.687C194.687 33.6428 194.677 33.6428 194.666 33.6428H194.656C194.656 33.6428 194.656 33.6428 194.656 33.6336C194.656 33.6336 194.656 33.6244 194.656 33.6152V26.8808C194.656 26.8808 194.656 26.844 194.677 26.8348C194.687 26.8256 194.707 26.8164 194.727 26.8164H205.867C205.867 26.8164 205.898 26.8164 205.918 26.8256C205.938 26.8256 205.949 26.844 205.959 26.8532C205.969 26.8624 205.979 26.8808 205.989 26.89C205.989 26.9084 205.989 26.9176 205.989 26.936C205.888 29.0888 206.101 31.2876 206.661 33.5416H206.651Z" fill="#508FFF"/>
</g>
<g opacity="0.15" clip-path="url(#clip9_3142_21269)">
<path d="M214.718 119.107C214.464 121.749 215.095 124.447 217.058 126.402C217.343 126.684 217.628 126.966 217.913 127.248C219.408 128.695 221.219 129.635 223.345 130.077C224.108 130.237 225.36 130.312 227.099 130.303C235.726 130.284 250.121 130.284 258.769 130.293C258.769 130.293 258.789 130.293 258.799 130.293C258.799 130.293 258.819 130.293 258.819 130.303C258.819 130.303 258.83 130.312 258.83 130.322C258.83 130.322 258.83 130.34 258.83 130.35V137.24C258.83 137.24 258.83 137.259 258.819 137.268C258.819 137.268 258.799 137.278 258.789 137.278C249.979 137.278 235.329 137.278 226.346 137.278C224.678 137.278 223.386 137.202 222.491 137.061C216.346 136.093 211.351 132.211 208.848 126.966C208.421 126.063 208.106 125.067 207.892 123.977C207.505 121.927 207.394 119.869 207.536 117.81C207.577 117.199 207.699 116.551 207.902 115.855C209.123 111.663 211.585 108.363 215.288 105.957C217.923 104.246 220.863 103.268 224.078 103.015C224.922 102.949 225.766 102.911 226.611 102.911C230.08 102.911 233.549 102.911 236.988 102.911C237.11 102.911 237.211 102.958 237.283 103.043C238.91 104.876 239.409 107.621 239.002 109.905C239.002 109.933 238.982 109.942 238.961 109.942C234.882 109.961 230.853 109.961 226.886 109.933C225.38 109.924 224.21 110.008 223.376 110.177C220.029 110.882 217.282 112.866 215.807 115.78C215.664 116.052 215.532 116.325 215.39 116.598C215.023 117.312 214.789 118.149 214.698 119.107H214.718Z" fill="#508FFF"/>
<path d="M258.936 102.994V109.884C258.936 109.884 258.936 109.922 258.915 109.931C258.905 109.941 258.885 109.95 258.865 109.95H249.648C249.576 109.95 249.546 109.922 249.546 109.856C249.749 107.469 249.525 105.194 248.874 103.022C248.854 102.957 248.874 102.919 248.966 102.919H258.844C258.844 102.919 258.885 102.928 258.905 102.947C258.926 102.966 258.926 102.985 258.926 103.004L258.936 102.994Z" fill="#508FFF"/>
<path d="M244.183 118.882C240.826 122.867 235.658 125.339 230.134 125.368C226.115 125.386 222.158 125.396 218.261 125.386C218.17 125.386 218.099 125.358 218.038 125.292C216.339 123.516 215.962 121.015 216.339 118.524C216.349 118.449 216.4 118.411 216.481 118.411C220.418 118.393 224.304 118.393 228.14 118.411C229.808 118.421 231.08 118.346 231.955 118.177C234.64 117.669 236.817 116.4 238.476 114.369C240.938 111.352 241.375 107.442 239.696 104.001C238.211 100.946 235.678 99.0287 232.097 98.2485C231.334 98.0793 230.235 98.0041 228.821 98.0041C219.777 98.0229 203.276 98.0229 194.751 98.0041C194.731 98.0041 194.71 98.0041 194.7 97.9853C194.69 97.9759 194.68 97.9571 194.68 97.9383V91.1045C194.68 91.0575 194.7 91.0293 194.761 91.0293C203.419 91.0387 219.838 91.0293 228.587 91.0293C230.215 91.0293 231.476 91.0763 232.351 91.1891C239.432 92.0727 245.119 96.7445 247.286 103.014C247.825 104.584 248.1 106.323 248.1 108.25C248.11 112.226 246.808 115.77 244.183 118.891V118.882Z" fill="#508FFF"/>
<path d="M206.651 125.271C206.651 125.271 206.651 125.299 206.651 125.308C206.651 125.318 206.64 125.337 206.63 125.346C206.63 125.355 206.61 125.365 206.6 125.374C206.59 125.374 206.569 125.374 206.559 125.374H194.687C194.687 125.374 194.677 125.374 194.666 125.374H194.656C194.656 125.374 194.656 125.374 194.656 125.365C194.656 125.365 194.656 125.355 194.656 125.346V118.465C194.656 118.465 194.656 118.428 194.677 118.418C194.687 118.409 194.707 118.399 194.727 118.399H205.867C205.867 118.399 205.898 118.399 205.918 118.409C205.938 118.409 205.949 118.428 205.959 118.437C205.969 118.446 205.979 118.465 205.989 118.475C205.989 118.493 205.989 118.503 205.989 118.522C205.888 120.721 206.101 122.968 206.661 125.271H206.651Z" fill="#508FFF"/>
</g>
<g opacity="0.15" clip-path="url(#clip10_3142_21269)">
<path d="M175.282 299.893C175.536 297.251 174.905 294.553 172.942 292.598C172.657 292.316 172.372 292.034 172.087 291.752C170.592 290.305 168.781 289.365 166.655 288.923C165.892 288.763 164.64 288.688 162.901 288.697C154.274 288.716 139.879 288.716 131.231 288.707C131.231 288.707 131.211 288.707 131.201 288.707C131.201 288.707 131.181 288.707 131.181 288.697C131.181 288.697 131.17 288.688 131.17 288.678C131.17 288.678 131.17 288.66 131.17 288.65L131.17 281.76C131.17 281.76 131.17 281.741 131.181 281.732C131.181 281.732 131.201 281.722 131.211 281.722C140.021 281.722 154.671 281.722 163.654 281.722C165.322 281.722 166.614 281.798 167.509 281.939C173.654 282.907 178.649 286.789 181.152 292.034C181.579 292.937 181.894 293.933 182.108 295.023C182.495 297.073 182.606 299.131 182.464 301.19C182.423 301.801 182.301 302.449 182.098 303.145C180.877 307.337 178.415 310.637 174.712 313.043C172.077 314.754 169.137 315.732 165.922 315.985C165.078 316.051 164.234 316.089 163.389 316.089C159.92 316.089 156.451 316.089 153.012 316.089C152.89 316.089 152.789 316.042 152.717 315.957C151.09 314.124 150.591 311.379 150.998 309.095C150.998 309.067 151.018 309.058 151.039 309.058C155.118 309.039 159.147 309.039 163.114 309.067C164.62 309.076 165.79 308.992 166.624 308.823C169.971 308.118 172.718 306.134 174.193 303.22C174.336 302.948 174.468 302.675 174.61 302.402C174.977 301.688 175.211 300.851 175.302 299.893L175.282 299.893Z" fill="#508FFF"/>
<path d="M131.064 316.006L131.064 309.116C131.064 309.116 131.064 309.078 131.085 309.069C131.095 309.059 131.115 309.05 131.135 309.05L140.352 309.05C140.424 309.05 140.454 309.078 140.454 309.144C140.251 311.531 140.475 313.806 141.126 315.978C141.146 316.043 141.126 316.081 141.034 316.081L131.156 316.081C131.156 316.081 131.115 316.072 131.095 316.053C131.074 316.034 131.074 316.015 131.074 315.996L131.064 316.006Z" fill="#508FFF"/>
<path d="M145.817 300.118C149.174 296.133 154.342 293.661 159.867 293.632C163.885 293.614 167.842 293.604 171.739 293.614C171.83 293.614 171.901 293.642 171.962 293.708C173.661 295.484 174.038 297.985 173.661 300.476C173.651 300.551 173.6 300.588 173.519 300.588C169.582 300.607 165.696 300.607 161.86 300.588C160.192 300.579 158.92 300.654 158.045 300.823C155.36 301.331 153.183 302.6 151.524 304.63C149.062 307.648 148.625 311.558 150.304 314.999C151.789 318.054 154.322 319.971 157.903 320.751C158.666 320.921 159.765 320.996 161.179 320.996C170.223 320.977 186.724 320.977 195.249 320.996C195.269 320.996 195.29 320.996 195.3 321.015C195.31 321.024 195.32 321.043 195.32 321.062L195.32 327.896C195.32 327.943 195.3 327.971 195.239 327.971C186.581 327.961 170.162 327.971 161.413 327.971C159.785 327.971 158.524 327.924 157.649 327.811C150.568 326.927 144.881 322.255 142.714 315.986C142.175 314.416 141.9 312.677 141.9 310.75C141.89 306.774 143.192 303.23 145.817 300.109L145.817 300.118Z" fill="#508FFF"/>
<path d="M183.349 293.729C183.349 293.729 183.349 293.701 183.349 293.692C183.349 293.682 183.36 293.663 183.37 293.654C183.37 293.645 183.39 293.635 183.4 293.626C183.41 293.626 183.431 293.626 183.441 293.626L195.313 293.626C195.313 293.626 195.323 293.626 195.334 293.626L195.344 293.626C195.344 293.626 195.344 293.626 195.344 293.635C195.344 293.635 195.344 293.645 195.344 293.654L195.344 300.535C195.344 300.535 195.344 300.572 195.323 300.582C195.313 300.591 195.293 300.601 195.273 300.601L184.133 300.601C184.133 300.601 184.102 300.601 184.082 300.591C184.062 300.591 184.051 300.572 184.041 300.563C184.031 300.554 184.021 300.535 184.011 300.525C184.011 300.507 184.011 300.497 184.011 300.478C184.112 298.279 183.899 296.032 183.339 293.729L183.349 293.729Z" fill="#508FFF"/>
</g>
<g opacity="0.15" clip-path="url(#clip11_3142_21269)">
<path d="M20.7183 27.5098C20.4639 30.095 21.0947 32.7354 23.0581 34.649C23.343 34.925 23.6278 35.201 23.9127 35.477C25.4082 36.8938 27.219 37.8138 29.3452 38.2462C30.1082 38.4026 31.3595 38.4762 33.0992 38.467C41.7261 38.4486 56.1213 38.4486 64.7686 38.4578C64.7686 38.4578 64.7889 38.4578 64.7991 38.4578C64.7991 38.4578 64.8194 38.4578 64.8194 38.467C64.8194 38.467 64.8296 38.4762 64.8296 38.4854C64.8296 38.4854 64.8296 38.5038 64.8296 38.513V45.2566C64.8296 45.2566 64.8296 45.275 64.8194 45.2842C64.8194 45.2842 64.7991 45.2934 64.7889 45.2934C55.9789 45.2934 41.3293 45.2934 32.3463 45.2934C30.6779 45.2934 29.3859 45.2198 28.4907 45.0818C22.346 44.1342 17.3509 40.3346 14.8483 35.201C14.421 34.3178 14.1056 33.3426 13.892 32.2754C13.5054 30.2698 13.3935 28.255 13.5359 26.2402C13.5766 25.6422 13.6987 25.0074 13.9022 24.3266C15.123 20.2234 17.5849 16.9942 21.288 14.639C23.9229 12.9646 26.8629 12.0078 30.0777 11.7594C30.9221 11.695 31.7665 11.6582 32.6108 11.6582C36.0799 11.6582 39.549 11.6582 42.9876 11.6582C43.1097 11.6582 43.2114 11.7042 43.2826 11.787C44.9103 13.581 45.4088 16.2674 45.0019 18.503C45.0019 18.5306 44.9815 18.5398 44.9612 18.5398C40.8817 18.5582 36.8531 18.5582 32.8855 18.5306C31.3799 18.5214 30.2099 18.6042 29.3757 18.7698C26.0287 19.4598 23.2819 21.401 21.8068 24.253C21.6644 24.5198 21.5321 24.7866 21.3897 25.0534C21.0235 25.7526 20.7895 26.5714 20.6979 27.5098H20.7183Z" fill="#508FFF"/>
<path d="M64.9358 11.7386V18.4822C64.9358 18.4822 64.9358 18.519 64.9154 18.5282C64.9052 18.5374 64.8849 18.5466 64.8646 18.5466H55.6476C55.5764 18.5466 55.5458 18.519 55.5458 18.4546C55.7493 16.1178 55.5255 13.8914 54.8744 11.7662C54.8541 11.7018 54.8744 11.665 54.966 11.665H64.8442C64.8442 11.665 64.8849 11.6742 64.9052 11.6926C64.9256 11.711 64.9256 11.7294 64.9256 11.7478L64.9358 11.7386Z" fill="#508FFF"/>
<path d="M50.5032 27.2596C47.146 31.1604 41.9779 33.58 36.4538 33.6076C32.4354 33.626 28.478 33.6352 24.5816 33.626C24.49 33.626 24.4189 33.5984 24.3579 33.534C22.659 31.7952 22.2825 29.348 22.659 26.91C22.6691 26.8364 22.7199 26.7996 22.8013 26.7996C26.7383 26.7812 30.6246 26.7812 34.46 26.7996C36.1284 26.8088 37.4 26.7352 38.2749 26.5696C40.9607 26.0728 43.1378 24.8308 44.796 22.8436C47.2579 19.8904 47.6954 16.0632 46.0168 12.696C44.5315 9.706 41.9983 7.8292 38.4173 7.0656C37.6543 6.9 36.5555 6.8264 35.1415 6.8264C26.0974 6.8448 9.59642 6.8448 1.07121 6.8264C1.05087 6.8264 1.03052 6.8264 1.02035 6.808C1.01017 6.7988 1 6.7804 1 6.762V0.0736002C1 0.0276 1.02035 0 1.08139 0C9.73884 0.0092 26.1585 0 34.9075 0C36.5352 0 37.7967 0.046 38.6716 0.1564C45.7522 1.0212 51.4392 5.5936 53.6061 11.73C54.1452 13.2664 54.4198 14.9684 54.4198 16.8544C54.43 20.746 53.1279 24.2144 50.5032 27.2688V27.2596Z" fill="#508FFF"/>
<path d="M12.6506 33.5416C12.6506 33.5416 12.6506 33.5692 12.6506 33.5784C12.6506 33.5876 12.6404 33.606 12.6302 33.6152C12.6302 33.6244 12.6099 33.6336 12.5997 33.6428C12.5896 33.6428 12.5692 33.6428 12.559 33.6428H0.68677C0.68677 33.6428 0.676597 33.6428 0.666423 33.6428H0.65625C0.65625 33.6428 0.65625 33.6428 0.65625 33.6336C0.65625 33.6336 0.65625 33.6244 0.65625 33.6152V26.8808C0.65625 26.8808 0.65625 26.844 0.676597 26.8348C0.68677 26.8256 0.707116 26.8164 0.727463 26.8164H11.8672C11.8672 26.8164 11.8978 26.8164 11.9181 26.8256C11.9385 26.8256 11.9486 26.844 11.9588 26.8532C11.969 26.8624 11.9792 26.8808 11.9893 26.89C11.9893 26.9084 11.9893 26.9176 11.9893 26.936C11.8876 29.0888 12.1012 31.2876 12.6608 33.5416H12.6506Z" fill="#508FFF"/>
</g>
<g opacity="0.15" clip-path="url(#clip12_3142_21269)">
<path d="M214.718 73.5088C214.464 76.094 215.095 78.7344 217.058 80.648C217.343 80.924 217.628 81.2 217.913 81.476C219.408 82.8928 221.219 83.8128 223.345 84.2452C224.108 84.4016 225.36 84.4752 227.099 84.466C235.726 84.4476 250.121 84.4476 258.769 84.4568C258.769 84.4568 258.789 84.4568 258.799 84.4568C258.799 84.4568 258.819 84.4568 258.819 84.466C258.819 84.466 258.83 84.4752 258.83 84.4844C258.83 84.4844 258.83 84.5028 258.83 84.512V91.2556C258.83 91.2556 258.83 91.274 258.819 91.2832C258.819 91.2832 258.799 91.2924 258.789 91.2924C249.979 91.2924 235.329 91.2924 226.346 91.2924C224.678 91.2924 223.386 91.2188 222.491 91.0808C216.346 90.1332 211.351 86.3336 208.848 81.2C208.421 80.3168 208.106 79.3416 207.892 78.2744C207.505 76.2688 207.394 74.254 207.536 72.2392C207.577 71.6412 207.699 71.0064 207.902 70.3256C209.123 66.2224 211.585 62.9932 215.288 60.638C217.923 58.9636 220.863 58.0068 224.078 57.7584C224.922 57.694 225.766 57.6572 226.611 57.6572C230.08 57.6572 233.549 57.6572 236.988 57.6572C237.11 57.6572 237.211 57.7032 237.283 57.786C238.91 59.58 239.409 62.2664 239.002 64.502C239.002 64.5296 238.982 64.5388 238.961 64.5388C234.882 64.5572 230.853 64.5572 226.886 64.5296C225.38 64.5204 224.21 64.6032 223.376 64.7688C220.029 65.4588 217.282 67.4 215.807 70.252C215.664 70.5188 215.532 70.7856 215.39 71.0524C215.023 71.7516 214.789 72.5704 214.698 73.5088H214.718Z" fill="#508FFF"/>
<path d="M258.936 57.7386V64.4822C258.936 64.4822 258.936 64.519 258.915 64.5282C258.905 64.5374 258.885 64.5466 258.865 64.5466H249.648C249.576 64.5466 249.546 64.519 249.546 64.4546C249.749 62.1178 249.525 59.8914 248.874 57.7662C248.854 57.7018 248.874 57.665 248.966 57.665H258.844C258.844 57.665 258.885 57.6742 258.905 57.6926C258.926 57.711 258.926 57.7294 258.926 57.7478L258.936 57.7386Z" fill="#508FFF"/>
<path d="M244.183 73.2879C240.826 77.1887 235.658 79.6083 230.134 79.6359C226.115 79.6543 222.158 79.6635 218.261 79.6543C218.17 79.6543 218.099 79.6267 218.038 79.5623C216.339 77.8235 215.962 75.3763 216.339 72.9383C216.349 72.8647 216.4 72.8279 216.481 72.8279C220.418 72.8095 224.304 72.8095 228.14 72.8279C229.808 72.8371 231.08 72.7635 231.955 72.5979C234.64 72.1011 236.817 70.8591 238.476 68.8719C240.938 65.9187 241.375 62.0915 239.696 58.7243C238.211 55.7343 235.678 53.8575 232.097 53.0939C231.334 52.9283 230.235 52.8547 228.821 52.8547C219.777 52.8731 203.276 52.8731 194.751 52.8547C194.731 52.8547 194.71 52.8547 194.7 52.8363C194.69 52.8271 194.68 52.8087 194.68 52.7903V46.1019C194.68 46.0559 194.7 46.0283 194.761 46.0283C203.419 46.0375 219.838 46.0283 228.587 46.0283C230.215 46.0283 231.476 46.0743 232.351 46.1847C239.432 47.0495 245.119 51.6219 247.286 57.7583C247.825 59.2947 248.1 60.9967 248.1 62.8827C248.11 66.7743 246.808 70.2427 244.183 73.2971V73.2879Z" fill="#508FFF"/>
<path d="M206.651 79.5416C206.651 79.5416 206.651 79.5692 206.651 79.5784C206.651 79.5876 206.64 79.606 206.63 79.6152C206.63 79.6244 206.61 79.6336 206.6 79.6428C206.59 79.6428 206.569 79.6428 206.559 79.6428H194.687C194.687 79.6428 194.677 79.6428 194.666 79.6428H194.656C194.656 79.6428 194.656 79.6428 194.656 79.6336C194.656 79.6336 194.656 79.6244 194.656 79.6152V72.8808C194.656 72.8808 194.656 72.844 194.677 72.8348C194.687 72.8256 194.707 72.8164 194.727 72.8164H205.867C205.867 72.8164 205.898 72.8164 205.918 72.8256C205.938 72.8256 205.949 72.844 205.959 72.8532C205.969 72.8624 205.979 72.8808 205.989 72.89C205.989 72.9084 205.989 72.9176 205.989 72.936C205.888 75.0888 206.101 77.2876 206.661 79.5416H206.651Z" fill="#508FFF"/>
</g>
<g opacity="0.15" clip-path="url(#clip13_3142_21269)">
<path d="M110.282 345.491C110.536 342.906 109.905 340.266 107.942 338.352C107.657 338.076 107.372 337.8 107.087 337.524C105.592 336.107 103.781 335.187 101.655 334.755C100.892 334.598 99.6405 334.525 97.9008 334.534C89.2739 334.552 74.8787 334.552 66.2314 334.543C66.2314 334.543 66.2111 334.543 66.2009 334.543C66.2009 334.543 66.1806 334.543 66.1806 334.534C66.1806 334.534 66.1704 334.525 66.1704 334.516C66.1704 334.516 66.1704 334.497 66.1704 334.488L66.1704 327.744C66.1704 327.744 66.1704 327.726 66.1806 327.717C66.1806 327.717 66.2009 327.708 66.2111 327.708C75.0211 327.708 89.6707 327.708 98.6537 327.708C100.322 327.708 101.614 327.781 102.509 327.919C108.654 328.867 113.649 332.666 116.152 337.8C116.579 338.683 116.894 339.658 117.108 340.726C117.495 342.731 117.606 344.746 117.464 346.761C117.423 347.359 117.301 347.994 117.098 348.674C115.877 352.778 113.415 356.007 109.712 358.362C107.077 360.036 104.137 360.993 100.922 361.242C100.078 361.306 99.2335 361.343 98.3892 361.343C94.9201 361.343 91.451 361.343 88.0124 361.343C87.8903 361.343 87.7886 361.297 87.7174 361.214C86.0897 359.42 85.5912 356.734 85.9981 354.498C85.9981 354.47 86.0185 354.461 86.0388 354.461C90.1183 354.443 94.1469 354.443 98.1145 354.47C99.6201 354.48 100.79 354.397 101.624 354.231C104.971 353.541 107.718 351.6 109.193 348.748C109.336 348.481 109.468 348.214 109.61 347.948C109.977 347.248 110.211 346.43 110.302 345.491L110.282 345.491Z" fill="#508FFF"/>
<path d="M66.0642 361.261L66.0642 354.518C66.0642 354.518 66.0642 354.481 66.0846 354.472C66.0948 354.463 66.1151 354.453 66.1354 354.453L75.3524 354.453C75.4236 354.453 75.4542 354.481 75.4542 354.545C75.2507 356.882 75.4745 359.109 76.1256 361.234C76.1459 361.298 76.1256 361.335 76.034 361.335L66.1558 361.335C66.1558 361.335 66.1151 361.326 66.0948 361.307C66.0744 361.289 66.0744 361.271 66.0744 361.252L66.0642 361.261Z" fill="#508FFF"/>
<path d="M80.8171 345.712C84.1743 341.811 89.3424 339.392 94.8665 339.364C98.8849 339.346 102.842 339.336 106.739 339.346C106.83 339.346 106.901 339.373 106.962 339.438C108.661 341.176 109.038 343.624 108.661 346.062C108.651 346.135 108.6 346.172 108.519 346.172C104.582 346.19 100.696 346.19 96.8604 346.172C95.1919 346.163 93.9203 346.236 93.0454 346.402C90.3596 346.899 88.1826 348.141 86.5243 350.128C84.0624 353.081 83.6249 356.908 85.3035 360.276C86.7888 363.266 89.3221 365.142 92.9031 365.906C93.6661 366.072 94.7648 366.145 96.1788 366.145C105.223 366.127 121.724 366.127 130.249 366.145C130.269 366.145 130.29 366.145 130.3 366.164C130.31 366.173 130.32 366.191 130.32 366.21L130.32 372.898C130.32 372.944 130.3 372.972 130.239 372.972C121.581 372.962 105.162 372.972 96.4128 372.972C94.7851 372.972 93.5236 372.926 92.6487 372.815C85.5681 371.95 79.8812 367.378 77.7142 361.242C77.1751 359.705 76.9005 358.003 76.9005 356.117C76.8903 352.226 78.1924 348.757 80.8171 345.703L80.8171 345.712Z" fill="#508FFF"/>
<path d="M118.349 339.458C118.349 339.458 118.349 339.431 118.349 339.422C118.349 339.412 118.36 339.394 118.37 339.385C118.37 339.376 118.39 339.366 118.4 339.357C118.41 339.357 118.431 339.357 118.441 339.357L130.313 339.357C130.313 339.357 130.323 339.357 130.334 339.357L130.344 339.357C130.344 339.357 130.344 339.357 130.344 339.366C130.344 339.366 130.344 339.376 130.344 339.385L130.344 346.119C130.344 346.119 130.344 346.156 130.323 346.165C130.313 346.174 130.293 346.184 130.273 346.184L119.133 346.184C119.133 346.184 119.102 346.184 119.082 346.174C119.062 346.174 119.051 346.156 119.041 346.147C119.031 346.138 119.021 346.119 119.011 346.11C119.011 346.092 119.011 346.082 119.011 346.064C119.112 343.911 118.899 341.712 118.339 339.458L118.349 339.458Z" fill="#508FFF"/>
</g>
<g opacity="0.15" clip-path="url(#clip14_3142_21269)">
<path d="M214.718 166.107C214.464 168.749 215.095 171.447 217.058 173.402C217.343 173.684 217.628 173.966 217.913 174.248C219.408 175.695 221.219 176.635 223.345 177.077C224.108 177.237 225.36 177.312 227.099 177.303C235.726 177.284 250.121 177.284 258.769 177.293C258.769 177.293 258.789 177.293 258.799 177.293C258.799 177.293 258.819 177.293 258.819 177.303C258.819 177.303 258.83 177.312 258.83 177.322C258.83 177.322 258.83 177.34 258.83 177.35V184.24C258.83 184.24 258.83 184.259 258.819 184.268C258.819 184.268 258.799 184.278 258.789 184.278C249.979 184.278 235.329 184.278 226.346 184.278C224.678 184.278 223.386 184.202 222.491 184.061C216.346 183.093 211.351 179.211 208.848 173.966C208.421 173.063 208.106 172.067 207.892 170.977C207.505 168.927 207.394 166.869 207.536 164.81C207.577 164.199 207.699 163.551 207.902 162.855C209.123 158.663 211.585 155.363 215.288 152.957C217.923 151.246 220.863 150.268 224.078 150.015C224.922 149.949 225.766 149.911 226.611 149.911C230.08 149.911 233.549 149.911 236.988 149.911C237.11 149.911 237.211 149.958 237.283 150.043C238.91 151.876 239.409 154.621 239.002 156.905C239.002 156.933 238.982 156.942 238.961 156.942C234.882 156.961 230.853 156.961 226.886 156.933C225.38 156.924 224.21 157.008 223.376 157.177C220.029 157.882 217.282 159.866 215.807 162.78C215.664 163.052 215.532 163.325 215.39 163.598C215.023 164.312 214.789 165.149 214.698 166.107H214.718Z" fill="#508FFF"/>
<path d="M258.936 149.994V156.884C258.936 156.884 258.936 156.922 258.915 156.931C258.905 156.941 258.885 156.95 258.865 156.95H249.648C249.576 156.95 249.546 156.922 249.546 156.856C249.749 154.469 249.525 152.194 248.874 150.022C248.854 149.957 248.874 149.919 248.966 149.919H258.844C258.844 149.919 258.885 149.928 258.905 149.947C258.926 149.966 258.926 149.985 258.926 150.004L258.936 149.994Z" fill="#508FFF"/>
<path d="M244.183 165.882C240.826 169.867 235.658 172.339 230.134 172.368C226.115 172.386 222.158 172.396 218.261 172.386C218.17 172.386 218.099 172.358 218.038 172.292C216.339 170.516 215.962 168.015 216.339 165.524C216.349 165.449 216.4 165.411 216.481 165.411C220.418 165.393 224.304 165.393 228.14 165.411C229.808 165.421 231.08 165.346 231.955 165.177C234.64 164.669 236.817 163.4 238.476 161.369C240.938 158.352 241.375 154.442 239.696 151.001C238.211 147.946 235.678 146.029 232.097 145.248C231.334 145.079 230.235 145.004 228.821 145.004C219.777 145.023 203.276 145.023 194.751 145.004C194.731 145.004 194.71 145.004 194.7 144.985C194.69 144.976 194.68 144.957 194.68 144.938V138.104C194.68 138.057 194.7 138.029 194.761 138.029C203.419 138.039 219.838 138.029 228.587 138.029C230.215 138.029 231.476 138.076 232.351 138.189C239.432 139.073 245.119 143.744 247.286 150.014C247.825 151.584 248.1 153.323 248.1 155.25C248.11 159.226 246.808 162.77 244.183 165.891V165.882Z" fill="#508FFF"/>
<path d="M206.651 172.271C206.651 172.271 206.651 172.299 206.651 172.308C206.651 172.318 206.64 172.337 206.63 172.346C206.63 172.355 206.61 172.365 206.6 172.374C206.59 172.374 206.569 172.374 206.559 172.374H194.687C194.687 172.374 194.677 172.374 194.666 172.374H194.656C194.656 172.374 194.656 172.374 194.656 172.365C194.656 172.365 194.656 172.355 194.656 172.346V165.465C194.656 165.465 194.656 165.428 194.677 165.418C194.687 165.409 194.707 165.399 194.727 165.399H205.867C205.867 165.399 205.898 165.399 205.918 165.409C205.938 165.409 205.949 165.428 205.959 165.437C205.969 165.446 205.979 165.465 205.989 165.475C205.989 165.493 205.989 165.503 205.989 165.522C205.888 167.721 206.101 169.968 206.661 172.271H206.651Z" fill="#508FFF"/>
</g>
<g opacity="0.15" clip-path="url(#clip15_3142_21269)">
<path d="M239.282 252.893C239.536 250.251 238.905 247.553 236.942 245.598C236.657 245.316 236.372 245.034 236.087 244.752C234.592 243.305 232.781 242.365 230.655 241.923C229.892 241.763 228.64 241.688 226.901 241.697C218.274 241.716 203.879 241.716 195.231 241.707C195.231 241.707 195.211 241.707 195.201 241.707C195.201 241.707 195.181 241.707 195.181 241.697C195.181 241.697 195.17 241.688 195.17 241.678C195.17 241.678 195.17 241.66 195.17 241.65L195.17 234.76C195.17 234.76 195.17 234.741 195.181 234.732C195.181 234.732 195.201 234.722 195.211 234.722C204.021 234.722 218.671 234.722 227.654 234.722C229.322 234.722 230.614 234.798 231.509 234.939C237.654 235.907 242.649 239.789 245.152 245.034C245.579 245.937 245.894 246.933 246.108 248.023C246.495 250.073 246.606 252.131 246.464 254.19C246.423 254.801 246.301 255.449 246.098 256.145C244.877 260.337 242.415 263.637 238.712 266.043C236.077 267.754 233.137 268.732 229.922 268.985C229.078 269.051 228.234 269.089 227.389 269.089C223.92 269.089 220.451 269.089 217.012 269.089C216.89 269.089 216.789 269.042 216.717 268.957C215.09 267.124 214.591 264.379 214.998 262.095C214.998 262.067 215.018 262.058 215.039 262.058C219.118 262.039 223.147 262.039 227.114 262.067C228.62 262.076 229.79 261.992 230.624 261.823C233.971 261.118 236.718 259.134 238.193 256.22C238.336 255.948 238.468 255.675 238.61 255.402C238.977 254.688 239.211 253.851 239.302 252.893L239.282 252.893Z" fill="#508FFF"/>
<path d="M195.064 269.006L195.064 262.116C195.064 262.116 195.064 262.078 195.085 262.069C195.095 262.059 195.115 262.05 195.135 262.05L204.352 262.05C204.424 262.05 204.454 262.078 204.454 262.144C204.251 264.531 204.475 266.806 205.126 268.978C205.146 269.043 205.126 269.081 205.034 269.081L195.156 269.081C195.156 269.081 195.115 269.072 195.095 269.053C195.074 269.034 195.074 269.015 195.074 268.996L195.064 269.006Z" fill="#508FFF"/>
<path d="M209.817 253.118C213.174 249.133 218.342 246.661 223.867 246.632C227.885 246.614 231.842 246.604 235.739 246.614C235.83 246.614 235.901 246.642 235.962 246.708C237.661 248.484 238.038 250.985 237.661 253.476C237.651 253.551 237.6 253.588 237.519 253.588C233.582 253.607 229.696 253.607 225.86 253.588C224.192 253.579 222.92 253.654 222.045 253.823C219.36 254.331 217.183 255.6 215.524 257.63C213.062 260.648 212.625 264.558 214.304 267.999C215.789 271.054 218.322 272.971 221.903 273.751C222.666 273.921 223.765 273.996 225.179 273.996C234.223 273.977 250.724 273.977 259.249 273.996C259.269 273.996 259.29 273.996 259.3 274.015C259.31 274.024 259.32 274.043 259.32 274.062L259.32 280.896C259.32 280.943 259.3 280.971 259.239 280.971C250.581 280.961 234.162 280.971 225.413 280.971C223.785 280.971 222.524 280.924 221.649 280.811C214.568 279.927 208.881 275.255 206.714 268.986C206.175 267.416 205.9 265.677 205.9 263.75C205.89 259.774 207.192 256.23 209.817 253.109L209.817 253.118Z" fill="#508FFF"/>
<path d="M247.349 246.729C247.349 246.729 247.349 246.701 247.349 246.692C247.349 246.682 247.36 246.663 247.37 246.654C247.37 246.645 247.39 246.635 247.4 246.626C247.41 246.626 247.431 246.626 247.441 246.626L259.313 246.626C259.313 246.626 259.323 246.626 259.334 246.626L259.344 246.626C259.344 246.626 259.344 246.626 259.344 246.635C259.344 246.635 259.344 246.645 259.344 246.654L259.344 253.535C259.344 253.535 259.344 253.572 259.323 253.582C259.313 253.591 259.293 253.601 259.273 253.601L248.133 253.601C248.133 253.601 248.102 253.601 248.082 253.591C248.062 253.591 248.051 253.572 248.041 253.563C248.031 253.554 248.021 253.535 248.011 253.525C248.011 253.507 248.011 253.497 248.011 253.478C248.112 251.279 247.899 249.032 247.339 246.729L247.349 246.729Z" fill="#508FFF"/>
</g>
<defs>
<clipPath id="clip0_3142_21269">
<rect width="65" height="46" fill="white" transform="translate(65)"/>
</clipPath>
<clipPath id="clip1_3142_21269">
<rect width="65" height="46" fill="white" transform="translate(65 46)"/>
</clipPath>
<clipPath id="clip2_3142_21269">
<rect width="65" height="46" fill="white" transform="translate(260 373) rotate(-180)"/>
</clipPath>
<clipPath id="clip3_3142_21269">
<rect width="64" height="46" fill="white" transform="translate(130)"/>
</clipPath>
<clipPath id="clip4_3142_21269">
<rect width="64" height="47" fill="white" transform="translate(130 91)"/>
</clipPath>
<clipPath id="clip5_3142_21269">
<rect width="64" height="47" fill="white" transform="translate(260 328) rotate(-180)"/>
</clipPath>
<clipPath id="clip6_3142_21269">
<rect width="64" height="46" fill="white" transform="translate(130 46)"/>
</clipPath>
<clipPath id="clip7_3142_21269">
<rect width="64" height="46" fill="white" transform="translate(195 373) rotate(-180)"/>
</clipPath>
<clipPath id="clip8_3142_21269">
<rect width="65" height="46" fill="white" transform="translate(194)"/>
</clipPath>
<clipPath id="clip9_3142_21269">
<rect width="65" height="47" fill="white" transform="translate(194 91)"/>
</clipPath>
<clipPath id="clip10_3142_21269">
<rect width="65" height="47" fill="white" transform="translate(196 328) rotate(-180)"/>
</clipPath>
<clipPath id="clip11_3142_21269">
<rect width="65" height="46" fill="white"/>
</clipPath>
<clipPath id="clip12_3142_21269">
<rect width="65" height="46" fill="white" transform="translate(194 46)"/>
</clipPath>
<clipPath id="clip13_3142_21269">
<rect width="65" height="46" fill="white" transform="translate(131 373) rotate(-180)"/>
</clipPath>
<clipPath id="clip14_3142_21269">
<rect width="65" height="47" fill="white" transform="translate(194 138)"/>
</clipPath>
<clipPath id="clip15_3142_21269">
<rect width="65" height="47" fill="white" transform="translate(260 281) rotate(-180)"/>
</clipPath>
</defs>
</svg>
