<svg width="473" height="601" viewBox="0 0 473 601" fill="none" xmlns="http://www.w3.org/2000/svg">
<g opacity="0.15">
<path d="M156.938 481.234C156.472 485.955 157.627 490.777 161.221 494.271C161.743 494.775 162.264 495.279 162.786 495.783C165.524 498.37 168.839 500.05 172.732 500.84C174.128 501.126 176.419 501.26 179.604 501.243C195.398 501.21 221.752 501.21 237.584 501.226C237.584 501.226 237.621 501.226 237.639 501.226C237.639 501.226 237.677 501.226 237.677 501.243C237.677 501.243 237.695 501.26 237.695 501.277C237.695 501.277 237.695 501.31 237.695 501.327V513.642C237.695 513.642 237.695 513.675 237.677 513.692C237.677 513.692 237.639 513.709 237.621 513.709C221.492 513.709 194.672 513.709 178.226 513.709C175.171 513.709 172.806 513.574 171.167 513.322C159.918 511.592 150.773 504.654 146.191 495.279C145.409 493.666 144.831 491.886 144.44 489.937C143.733 486.274 143.528 482.595 143.788 478.916C143.863 477.824 144.086 476.665 144.459 475.422C146.694 467.929 151.201 462.032 157.981 457.731C162.804 454.674 168.187 452.926 174.073 452.473C175.618 452.355 177.164 452.288 178.71 452.288C185.061 452.288 191.412 452.288 197.708 452.288C197.931 452.288 198.117 452.372 198.248 452.523C201.228 455.799 202.14 460.705 201.395 464.787C201.395 464.838 201.358 464.854 201.321 464.854C193.852 464.888 186.477 464.888 179.213 464.838C176.457 464.821 174.315 464.972 172.787 465.274C166.66 466.534 161.631 470.079 158.93 475.287C158.67 475.774 158.428 476.262 158.167 476.749C157.496 478.026 157.068 479.521 156.9 481.234H156.938Z" fill="#508FFF"/>
<path d="M237.879 452.436V464.751C237.879 464.751 237.879 464.818 237.841 464.835C237.823 464.851 237.785 464.868 237.748 464.868H220.874C220.744 464.868 220.688 464.818 220.688 464.7C221.06 460.433 220.651 456.367 219.459 452.487C219.421 452.369 219.459 452.302 219.626 452.302H237.711C237.711 452.302 237.785 452.319 237.823 452.352C237.86 452.386 237.86 452.419 237.86 452.453L237.879 452.436Z" fill="#508FFF"/>
<path d="M210.871 480.831C204.725 487.954 195.263 492.373 185.15 492.423C177.793 492.457 170.548 492.474 163.415 492.457C163.247 492.457 163.117 492.406 163.005 492.289C159.895 489.114 159.206 484.645 159.895 480.193C159.913 480.058 160.006 479.991 160.155 479.991C167.363 479.958 174.478 479.958 181.5 479.991C184.554 480.008 186.882 479.874 188.484 479.571C193.401 478.664 197.387 476.396 200.423 472.767C204.93 467.374 205.731 460.386 202.658 454.237C199.938 448.777 195.301 445.35 188.745 443.955C187.348 443.653 185.336 443.518 182.747 443.518C166.19 443.552 135.98 443.552 120.373 443.518C120.335 443.518 120.298 443.518 120.279 443.485C120.261 443.468 120.242 443.434 120.242 443.401V431.187C120.242 431.103 120.279 431.053 120.391 431.053C136.241 431.07 166.302 431.053 182.319 431.053C185.299 431.053 187.608 431.137 189.21 431.338C202.173 432.918 212.585 441.267 216.552 452.473C217.539 455.278 218.042 458.386 218.042 461.83C218.06 468.937 215.676 475.27 210.871 480.848V480.831Z" fill="#508FFF"/>
<path d="M142.17 492.251C142.17 492.251 142.17 492.301 142.17 492.318C142.17 492.335 142.151 492.368 142.133 492.385C142.133 492.402 142.095 492.419 142.077 492.435C142.058 492.435 142.021 492.435 142.002 492.435H120.267C120.267 492.435 120.248 492.435 120.23 492.435H120.211C120.211 492.435 120.211 492.435 120.211 492.419C120.211 492.419 120.211 492.402 120.211 492.385V480.087C120.211 480.087 120.211 480.02 120.248 480.003C120.267 479.987 120.304 479.97 120.341 479.97H140.736C140.736 479.97 140.792 479.97 140.829 479.987C140.866 479.987 140.885 480.02 140.903 480.037C140.922 480.054 140.941 480.087 140.959 480.104C140.959 480.138 140.959 480.155 140.959 480.188C140.773 484.119 141.164 488.135 142.188 492.251H142.17Z" fill="#508FFF"/>
</g>
<g opacity="0.15">
<path d="M156.938 566.431C156.472 571.264 157.627 576.2 161.221 579.778C161.743 580.294 162.264 580.81 162.786 581.326C165.524 583.975 168.839 585.695 172.732 586.503C174.128 586.795 176.419 586.933 179.604 586.916C195.398 586.881 221.752 586.881 237.584 586.899C237.584 586.899 237.621 586.899 237.639 586.899C237.639 586.899 237.677 586.899 237.677 586.916C237.677 586.916 237.695 586.933 237.695 586.95C237.695 586.95 237.695 586.985 237.695 587.002V599.609C237.695 599.609 237.695 599.644 237.677 599.661C237.677 599.661 237.639 599.678 237.621 599.678C221.492 599.678 194.672 599.678 178.226 599.678C175.171 599.678 172.806 599.541 171.167 599.283C159.918 597.511 150.773 590.407 146.191 580.81C145.409 579.159 144.831 577.335 144.44 575.34C143.733 571.591 143.528 567.824 143.788 564.057C143.863 562.939 144.086 561.752 144.459 560.479C146.694 552.808 151.201 546.771 157.981 542.368C162.804 539.237 168.187 537.449 174.073 536.984C175.618 536.864 177.164 536.795 178.71 536.795C185.061 536.795 191.412 536.795 197.708 536.795C197.931 536.795 198.117 536.881 198.248 537.036C201.228 540.39 202.14 545.412 201.395 549.592C201.395 549.643 201.358 549.661 201.321 549.661C193.852 549.695 186.477 549.695 179.213 549.643C176.457 549.626 174.315 549.781 172.787 550.091C166.66 551.381 161.631 555.01 158.93 560.342C158.67 560.841 158.428 561.339 158.167 561.838C157.496 563.145 157.068 564.676 156.9 566.431H156.938Z" fill="#508FFF"/>
<path d="M237.879 536.947V549.555C237.879 549.555 237.879 549.624 237.841 549.641C237.823 549.658 237.785 549.675 237.748 549.675H220.874C220.744 549.675 220.688 549.624 220.688 549.503C221.06 545.134 220.651 540.972 219.459 536.999C219.421 536.878 219.459 536.81 219.626 536.81H237.711C237.711 536.81 237.785 536.827 237.823 536.861C237.86 536.896 237.86 536.93 237.86 536.964L237.879 536.947Z" fill="#508FFF"/>
<path d="M210.871 566.017C204.725 573.31 195.263 577.834 185.15 577.885C177.793 577.92 170.548 577.937 163.415 577.92C163.247 577.92 163.117 577.868 163.005 577.748C159.895 574.497 159.206 569.922 159.895 565.364C159.913 565.226 160.006 565.157 160.155 565.157C167.363 565.123 174.478 565.123 181.5 565.157C184.554 565.175 186.882 565.037 188.484 564.727C193.401 563.799 197.387 561.477 200.423 557.761C204.93 552.24 205.731 545.085 202.658 538.79C199.938 533.2 195.301 529.691 188.745 528.263C187.348 527.954 185.336 527.816 182.747 527.816C166.19 527.851 135.98 527.851 120.373 527.816C120.335 527.816 120.298 527.816 120.279 527.782C120.261 527.765 120.242 527.73 120.242 527.696V515.191C120.242 515.105 120.279 515.054 120.391 515.054C136.241 515.071 166.302 515.054 182.319 515.054C185.299 515.054 187.608 515.14 189.21 515.346C202.173 516.963 212.585 525.511 216.552 536.984C217.539 539.856 218.042 543.038 218.042 546.564C218.06 553.84 215.676 560.324 210.871 566.035V566.017Z" fill="#508FFF"/>
<path d="M142.17 577.708C142.17 577.708 142.17 577.76 142.17 577.777C142.17 577.794 142.151 577.828 142.133 577.846C142.133 577.863 142.095 577.88 142.077 577.897C142.058 577.897 142.021 577.897 142.002 577.897H120.267C120.267 577.897 120.248 577.897 120.23 577.897H120.211C120.211 577.897 120.211 577.897 120.211 577.88C120.211 577.88 120.211 577.863 120.211 577.846V565.255C120.211 565.255 120.211 565.186 120.248 565.169C120.267 565.152 120.304 565.135 120.341 565.135H140.736C140.736 565.135 140.792 565.135 140.829 565.152C140.866 565.152 140.885 565.186 140.903 565.204C140.922 565.221 140.941 565.255 140.959 565.272C140.959 565.307 140.959 565.324 140.959 565.358C140.773 569.383 141.164 573.494 142.188 577.708H142.17Z" fill="#508FFF"/>
</g>
<g opacity="0.15">
<path d="M274.978 481.234C274.524 485.955 275.65 490.777 279.154 494.271C279.662 494.775 280.171 495.279 280.679 495.783C283.348 498.37 286.58 500.05 290.374 500.84C291.736 501.126 293.969 501.26 297.073 501.243C312.469 501.21 338.159 501.21 353.591 501.226C353.591 501.226 353.627 501.226 353.646 501.226C353.646 501.226 353.682 501.226 353.682 501.243C353.682 501.243 353.7 501.26 353.7 501.277C353.7 501.277 353.7 501.31 353.7 501.327V513.642C353.7 513.642 353.7 513.675 353.682 513.692C353.682 513.692 353.646 513.709 353.627 513.709C337.905 513.709 311.761 513.709 295.73 513.709C292.752 513.709 290.447 513.574 288.849 513.322C277.883 511.592 268.969 504.654 264.503 495.279C263.74 493.666 263.177 491.886 262.796 489.937C262.106 486.274 261.906 482.595 262.161 478.916C262.233 477.824 262.451 476.665 262.814 475.422C264.993 467.929 269.387 462.032 275.995 457.731C280.697 454.674 285.944 452.926 291.681 452.473C293.188 452.355 294.695 452.288 296.202 452.288C302.393 452.288 308.584 452.288 314.721 452.288C314.938 452.288 315.12 452.372 315.247 452.523C318.152 455.799 319.041 460.705 318.315 464.787C318.315 464.838 318.279 464.854 318.243 464.854C310.962 464.888 303.773 464.888 296.692 464.838C294.005 464.821 291.917 464.972 290.429 465.274C284.455 466.534 279.554 470.079 276.921 475.287C276.667 475.774 276.431 476.262 276.177 476.749C275.523 478.026 275.105 479.521 274.942 481.234H274.978Z" fill="#508FFF"/>
<path d="M353.883 452.436V464.751C353.883 464.751 353.883 464.818 353.846 464.835C353.828 464.851 353.792 464.868 353.756 464.868H337.307C337.18 464.868 337.125 464.818 337.125 464.7C337.488 460.433 337.089 456.367 335.927 452.487C335.891 452.369 335.927 452.302 336.09 452.302H353.719C353.719 452.302 353.792 452.319 353.828 452.352C353.864 452.386 353.864 452.419 353.864 452.453L353.883 452.436Z" fill="#508FFF"/>
<path d="M327.555 480.831C321.564 487.954 312.341 492.373 302.482 492.423C295.311 492.457 288.249 492.474 281.295 492.457C281.132 492.457 281.005 492.406 280.896 492.289C277.864 489.114 277.192 484.645 277.864 480.193C277.882 480.058 277.973 479.991 278.118 479.991C285.144 479.958 292.08 479.958 298.924 479.991C301.902 480.008 304.171 479.874 305.732 479.571C310.525 478.664 314.411 476.396 317.37 472.767C321.764 467.374 322.544 460.386 319.549 454.237C316.898 448.777 312.377 445.35 305.986 443.955C304.625 443.653 302.664 443.518 300.14 443.518C284 443.552 254.552 443.552 239.338 443.518C239.302 443.518 239.265 443.518 239.247 443.485C239.229 443.468 239.211 443.434 239.211 443.401V431.187C239.211 431.103 239.247 431.053 239.356 431.053C254.806 431.07 284.109 431.053 299.723 431.053C302.628 431.053 304.879 431.137 306.44 431.338C319.076 432.918 329.225 441.267 333.093 452.473C334.055 455.278 334.545 458.386 334.545 461.83C334.563 468.937 332.239 475.27 327.555 480.848V480.831Z" fill="#508FFF"/>
<path d="M260.585 492.251C260.585 492.251 260.585 492.301 260.585 492.318C260.585 492.335 260.567 492.368 260.549 492.385C260.549 492.402 260.512 492.419 260.494 492.435C260.476 492.435 260.44 492.435 260.422 492.435H239.234C239.234 492.435 239.216 492.435 239.198 492.435H239.18C239.18 492.435 239.18 492.435 239.18 492.419C239.18 492.419 239.18 492.402 239.18 492.385V480.087C239.18 480.087 239.18 480.02 239.216 480.003C239.234 479.987 239.27 479.97 239.307 479.97H259.187C259.187 479.97 259.241 479.97 259.278 479.987C259.314 479.987 259.332 480.02 259.35 480.037C259.369 480.054 259.387 480.087 259.405 480.104C259.405 480.138 259.405 480.155 259.405 480.188C259.223 484.119 259.605 488.135 260.603 492.251H260.585Z" fill="#508FFF"/>
</g>
<g opacity="0.15">
<path d="M274.978 566.431C274.524 571.264 275.65 576.2 279.154 579.778C279.662 580.294 280.171 580.81 280.679 581.326C283.348 583.975 286.58 585.695 290.374 586.503C291.736 586.795 293.969 586.933 297.073 586.916C312.469 586.881 338.159 586.881 353.591 586.899C353.591 586.899 353.627 586.899 353.646 586.899C353.646 586.899 353.682 586.899 353.682 586.916C353.682 586.916 353.7 586.933 353.7 586.95C353.7 586.95 353.7 586.985 353.7 587.002V599.609C353.7 599.609 353.7 599.644 353.682 599.661C353.682 599.661 353.646 599.678 353.627 599.678C337.905 599.678 311.761 599.678 295.73 599.678C292.752 599.678 290.447 599.541 288.849 599.283C277.883 597.511 268.969 590.407 264.503 580.81C263.74 579.159 263.177 577.335 262.796 575.34C262.106 571.591 261.906 567.824 262.161 564.057C262.233 562.939 262.451 561.752 262.814 560.479C264.993 552.808 269.387 546.771 275.995 542.368C280.697 539.237 285.944 537.449 291.681 536.984C293.188 536.864 294.695 536.795 296.202 536.795C302.393 536.795 308.584 536.795 314.721 536.795C314.938 536.795 315.12 536.881 315.247 537.036C318.152 540.39 319.041 545.412 318.315 549.592C318.315 549.643 318.279 549.661 318.243 549.661C310.962 549.695 303.773 549.695 296.692 549.643C294.005 549.626 291.917 549.781 290.429 550.091C284.455 551.381 279.554 555.01 276.921 560.342C276.667 560.841 276.431 561.339 276.177 561.838C275.523 563.145 275.105 564.676 274.942 566.431H274.978Z" fill="#508FFF"/>
<path d="M353.883 536.947V549.555C353.883 549.555 353.883 549.624 353.846 549.641C353.828 549.658 353.792 549.675 353.756 549.675H337.307C337.18 549.675 337.125 549.624 337.125 549.503C337.488 545.134 337.089 540.972 335.927 536.999C335.891 536.878 335.927 536.81 336.09 536.81H353.719C353.719 536.81 353.792 536.827 353.828 536.861C353.864 536.896 353.864 536.93 353.864 536.964L353.883 536.947Z" fill="#508FFF"/>
<path d="M327.555 566.017C321.564 573.31 312.341 577.834 302.482 577.885C295.311 577.92 288.249 577.937 281.295 577.92C281.132 577.92 281.005 577.868 280.896 577.748C277.864 574.497 277.192 569.922 277.864 565.364C277.882 565.226 277.973 565.157 278.118 565.157C285.144 565.123 292.08 565.123 298.924 565.157C301.902 565.175 304.171 565.037 305.732 564.727C310.525 563.799 314.411 561.477 317.37 557.761C321.764 552.24 322.544 545.085 319.549 538.79C316.898 533.2 312.377 529.691 305.986 528.263C304.625 527.954 302.664 527.816 300.14 527.816C284 527.851 254.552 527.851 239.338 527.816C239.302 527.816 239.265 527.816 239.247 527.782C239.229 527.765 239.211 527.73 239.211 527.696V515.191C239.211 515.105 239.247 515.054 239.356 515.054C254.806 515.071 284.109 515.054 299.723 515.054C302.628 515.054 304.879 515.14 306.44 515.346C319.076 516.963 329.225 525.511 333.093 536.984C334.055 539.856 334.545 543.038 334.545 546.564C334.563 553.84 332.239 560.324 327.555 566.035V566.017Z" fill="#508FFF"/>
<path d="M260.585 577.708C260.585 577.708 260.585 577.76 260.585 577.777C260.585 577.794 260.567 577.828 260.549 577.846C260.549 577.863 260.512 577.88 260.494 577.897C260.476 577.897 260.44 577.897 260.422 577.897H239.234C239.234 577.897 239.216 577.897 239.198 577.897H239.18C239.18 577.897 239.18 577.897 239.18 577.88C239.18 577.88 239.18 577.863 239.18 577.846V565.255C239.18 565.255 239.18 565.186 239.216 565.169C239.234 565.152 239.27 565.135 239.307 565.135H259.187C259.187 565.135 259.241 565.135 259.278 565.152C259.314 565.152 259.332 565.186 259.35 565.204C259.369 565.221 259.387 565.255 259.405 565.272C259.405 565.307 259.405 565.324 259.405 565.358C259.223 569.383 259.605 573.494 260.603 577.708H260.585Z" fill="#508FFF"/>
</g>
<g opacity="0.15">
<path d="M391.938 481.234C391.472 485.955 392.627 490.777 396.221 494.271C396.743 494.775 397.264 495.279 397.786 495.783C400.524 498.37 403.839 500.05 407.732 500.84C409.128 501.126 411.419 501.26 414.604 501.243C430.398 501.21 456.752 501.21 472.584 501.226C472.584 501.226 472.621 501.226 472.639 501.226C472.639 501.226 472.677 501.226 472.677 501.243C472.677 501.243 472.695 501.26 472.695 501.277C472.695 501.277 472.695 501.31 472.695 501.327V513.642C472.695 513.642 472.695 513.675 472.677 513.692C472.677 513.692 472.639 513.709 472.621 513.709C456.492 513.709 429.672 513.709 413.226 513.709C410.171 513.709 407.806 513.574 406.167 513.322C394.918 511.592 385.773 504.654 381.191 495.279C380.409 493.666 379.831 491.886 379.44 489.937C378.733 486.274 378.528 482.595 378.788 478.916C378.863 477.824 379.086 476.665 379.459 475.422C381.694 467.929 386.201 462.032 392.981 457.731C397.804 454.674 403.187 452.926 409.073 452.473C410.618 452.355 412.164 452.288 413.71 452.288C420.061 452.288 426.412 452.288 432.708 452.288C432.931 452.288 433.117 452.372 433.248 452.523C436.228 455.799 437.14 460.705 436.395 464.787C436.395 464.838 436.358 464.854 436.321 464.854C428.852 464.888 421.477 464.888 414.213 464.838C411.457 464.821 409.315 464.972 407.787 465.274C401.66 466.534 396.631 470.079 393.93 475.287C393.67 475.774 393.428 476.262 393.167 476.749C392.496 478.026 392.068 479.521 391.9 481.234H391.938Z" fill="#508FFF"/>
<path d="M472.879 452.436V464.751C472.879 464.751 472.879 464.818 472.841 464.835C472.823 464.851 472.785 464.868 472.748 464.868H455.874C455.744 464.868 455.688 464.818 455.688 464.7C456.06 460.433 455.651 456.367 454.459 452.487C454.421 452.369 454.459 452.302 454.626 452.302H472.711C472.711 452.302 472.785 452.319 472.823 452.352C472.86 452.386 472.86 452.419 472.86 452.453L472.879 452.436Z" fill="#508FFF"/>
<path d="M445.871 480.831C439.725 487.954 430.263 492.373 420.15 492.423C412.793 492.457 405.548 492.474 398.415 492.457C398.247 492.457 398.117 492.406 398.005 492.289C394.895 489.114 394.206 484.645 394.895 480.193C394.913 480.058 395.006 479.991 395.155 479.991C402.363 479.958 409.478 479.958 416.5 479.991C419.554 480.008 421.882 479.874 423.484 479.571C428.401 478.664 432.387 476.396 435.423 472.767C439.93 467.374 440.731 460.386 437.658 454.237C434.938 448.777 430.301 445.35 423.745 443.955C422.348 443.653 420.336 443.518 417.747 443.518C401.19 443.552 370.98 443.552 355.373 443.518C355.335 443.518 355.298 443.518 355.279 443.485C355.261 443.468 355.242 443.434 355.242 443.401V431.187C355.242 431.103 355.279 431.053 355.391 431.053C371.241 431.07 401.302 431.053 417.319 431.053C420.299 431.053 422.608 431.137 424.21 431.338C437.173 432.918 447.585 441.267 451.552 452.473C452.539 455.278 453.042 458.386 453.042 461.83C453.06 468.937 450.676 475.27 445.871 480.848V480.831Z" fill="#508FFF"/>
<path d="M377.17 492.251C377.17 492.251 377.17 492.301 377.17 492.318C377.17 492.335 377.151 492.368 377.133 492.385C377.133 492.402 377.095 492.419 377.077 492.435C377.058 492.435 377.021 492.435 377.002 492.435H355.267C355.267 492.435 355.248 492.435 355.23 492.435H355.211C355.211 492.435 355.211 492.435 355.211 492.419C355.211 492.419 355.211 492.402 355.211 492.385V480.087C355.211 480.087 355.211 480.02 355.248 480.003C355.267 479.987 355.304 479.97 355.341 479.97H375.736C375.736 479.97 375.792 479.97 375.829 479.987C375.866 479.987 375.885 480.02 375.903 480.037C375.922 480.054 375.941 480.087 375.959 480.104C375.959 480.138 375.959 480.155 375.959 480.188C375.773 484.119 376.164 488.135 377.188 492.251H377.17Z" fill="#508FFF"/>
</g>
<g opacity="0.15">
<path d="M391.938 566.431C391.472 571.264 392.627 576.2 396.221 579.778C396.743 580.294 397.264 580.81 397.786 581.326C400.524 583.975 403.839 585.695 407.732 586.503C409.128 586.795 411.419 586.933 414.604 586.916C430.398 586.881 456.752 586.881 472.584 586.899C472.584 586.899 472.621 586.899 472.639 586.899C472.639 586.899 472.677 586.899 472.677 586.916C472.677 586.916 472.695 586.933 472.695 586.95C472.695 586.95 472.695 586.985 472.695 587.002V599.609C472.695 599.609 472.695 599.644 472.677 599.661C472.677 599.661 472.639 599.678 472.621 599.678C456.492 599.678 429.672 599.678 413.226 599.678C410.171 599.678 407.806 599.541 406.167 599.283C394.918 597.511 385.773 590.407 381.191 580.81C380.409 579.159 379.831 577.335 379.44 575.34C378.733 571.591 378.528 567.824 378.788 564.057C378.863 562.939 379.086 561.752 379.459 560.479C381.694 552.808 386.201 546.771 392.981 542.368C397.804 539.237 403.187 537.449 409.073 536.984C410.618 536.864 412.164 536.795 413.71 536.795C420.061 536.795 426.412 536.795 432.708 536.795C432.931 536.795 433.117 536.881 433.248 537.036C436.228 540.39 437.14 545.412 436.395 549.592C436.395 549.643 436.358 549.661 436.321 549.661C428.852 549.695 421.477 549.695 414.213 549.643C411.457 549.626 409.315 549.781 407.787 550.091C401.66 551.381 396.631 555.01 393.93 560.342C393.67 560.841 393.428 561.339 393.167 561.838C392.496 563.145 392.068 564.676 391.9 566.431H391.938Z" fill="#508FFF"/>
<path d="M472.879 536.947V549.555C472.879 549.555 472.879 549.624 472.841 549.641C472.823 549.658 472.785 549.675 472.748 549.675H455.874C455.744 549.675 455.688 549.624 455.688 549.503C456.06 545.134 455.651 540.972 454.459 536.999C454.421 536.878 454.459 536.81 454.626 536.81H472.711C472.711 536.81 472.785 536.827 472.823 536.861C472.86 536.896 472.86 536.93 472.86 536.964L472.879 536.947Z" fill="#508FFF"/>
<path d="M445.871 566.017C439.725 573.31 430.263 577.834 420.15 577.885C412.793 577.92 405.548 577.937 398.415 577.92C398.247 577.92 398.117 577.868 398.005 577.748C394.895 574.497 394.206 569.922 394.895 565.364C394.913 565.226 395.006 565.157 395.155 565.157C402.363 565.123 409.478 565.123 416.5 565.157C419.554 565.175 421.882 565.037 423.484 564.727C428.401 563.799 432.387 561.477 435.423 557.761C439.93 552.24 440.731 545.085 437.658 538.79C434.938 533.2 430.301 529.691 423.745 528.263C422.348 527.954 420.336 527.816 417.747 527.816C401.19 527.851 370.98 527.851 355.373 527.816C355.335 527.816 355.298 527.816 355.279 527.782C355.261 527.765 355.242 527.73 355.242 527.696V515.191C355.242 515.105 355.279 515.054 355.391 515.054C371.241 515.071 401.302 515.054 417.319 515.054C420.299 515.054 422.608 515.14 424.21 515.346C437.173 516.963 447.585 525.511 451.552 536.984C452.539 539.856 453.042 543.038 453.042 546.564C453.06 553.84 450.676 560.324 445.871 566.035V566.017Z" fill="#508FFF"/>
<path d="M377.17 577.708C377.17 577.708 377.17 577.76 377.17 577.777C377.17 577.794 377.151 577.828 377.133 577.846C377.133 577.863 377.095 577.88 377.077 577.897C377.058 577.897 377.021 577.897 377.002 577.897H355.267C355.267 577.897 355.248 577.897 355.23 577.897H355.211C355.211 577.897 355.211 577.897 355.211 577.88C355.211 577.88 355.211 577.863 355.211 577.846V565.255C355.211 565.255 355.211 565.186 355.248 565.169C355.267 565.152 355.304 565.135 355.341 565.135H375.736C375.736 565.135 375.792 565.135 375.829 565.152C375.866 565.152 375.885 565.186 375.903 565.204C375.922 565.221 375.941 565.255 375.959 565.272C375.959 565.307 375.959 565.324 375.959 565.358C375.773 569.383 376.164 573.494 377.188 577.708H377.17Z" fill="#508FFF"/>
</g>
<g opacity="0.15">
<path d="M37.9376 566.431C37.472 571.264 38.6267 576.2 42.2213 579.778C42.7428 580.294 43.2643 580.81 43.7858 581.326C46.5237 583.975 49.8389 585.695 53.7315 586.503C55.1284 586.795 57.4193 586.933 60.6041 586.916C76.3981 586.881 102.752 586.881 118.584 586.899C118.584 586.899 118.621 586.899 118.639 586.899C118.639 586.899 118.677 586.899 118.677 586.916C118.677 586.916 118.695 586.933 118.695 586.95C118.695 586.95 118.695 586.985 118.695 587.002V599.609C118.695 599.609 118.695 599.644 118.677 599.661C118.677 599.661 118.639 599.678 118.621 599.678C102.492 599.678 75.6717 599.678 59.2259 599.678C56.1714 599.678 53.806 599.541 52.167 599.283C40.9176 597.511 31.7727 590.407 27.191 580.81C26.4088 579.159 25.8314 577.335 25.4403 575.34C24.7325 571.591 24.5276 567.824 24.7884 564.057C24.8629 562.939 25.0864 561.752 25.4589 560.479C27.6939 552.808 32.2011 546.771 38.9806 542.368C43.8044 539.237 49.187 537.449 55.0725 536.984C56.6184 536.864 58.1643 536.795 59.7101 536.795C66.0612 536.795 72.4123 536.795 78.7076 536.795C78.9311 536.795 79.1173 536.881 79.2477 537.036C82.2277 540.39 83.1403 545.412 82.3953 549.592C82.3953 549.643 82.358 549.661 82.3208 549.661C74.8522 549.695 67.4767 549.695 60.213 549.643C57.4565 549.626 55.3146 549.781 53.7874 550.091C47.6598 551.381 42.6311 555.01 39.9305 560.342C39.6697 560.841 39.4276 561.339 39.1668 561.838C38.4963 563.145 38.068 564.676 37.9003 566.431H37.9376Z" fill="#508FFF"/>
<path d="M118.879 536.947V549.555C118.879 549.555 118.879 549.624 118.841 549.641C118.823 549.658 118.785 549.675 118.748 549.675H101.874C101.744 549.675 101.688 549.624 101.688 549.503C102.06 545.134 101.651 540.972 100.459 536.999C100.421 536.878 100.459 536.81 100.626 536.81H118.711C118.711 536.81 118.785 536.827 118.823 536.861C118.86 536.896 118.86 536.93 118.86 536.964L118.879 536.947Z" fill="#508FFF"/>
<path d="M91.8711 566.017C85.7249 573.31 76.2633 577.834 66.1499 577.885C58.7931 577.92 51.548 577.937 44.4147 577.92C44.247 577.92 44.1168 577.868 44.0051 577.748C40.8947 574.497 40.2056 569.922 40.8947 565.364C40.9134 565.226 41.0063 565.157 41.1553 565.157C48.3631 565.123 55.4781 565.123 62.4996 565.157C65.5541 565.175 67.8822 565.037 69.484 564.727C74.401 563.799 78.3867 561.477 81.4226 557.761C85.9298 552.24 86.7307 545.085 83.6576 538.79C80.9383 533.2 76.3005 529.691 69.7446 528.263C68.3477 527.954 66.3362 527.816 63.7473 527.816C47.1898 527.851 16.9802 527.851 1.37256 527.816C1.33531 527.816 1.29806 527.816 1.27944 527.782C1.26081 527.765 1.24219 527.73 1.24219 527.696V515.191C1.24219 515.105 1.27944 515.054 1.39119 515.054C17.241 515.071 47.3015 515.054 63.319 515.054C66.2989 515.054 68.6084 515.14 70.2102 515.346C83.1731 516.963 93.5846 525.511 97.5518 536.984C98.5389 539.856 99.0416 543.038 99.0416 546.564C99.0602 553.84 96.6764 560.324 91.8711 566.035V566.017Z" fill="#508FFF"/>
<path d="M23.1698 577.708C23.1698 577.708 23.1698 577.76 23.1698 577.777C23.1698 577.794 23.1512 577.828 23.1326 577.846C23.1326 577.863 23.0953 577.88 23.0767 577.897C23.0581 577.897 23.0208 577.897 23.0022 577.897H1.26681C1.26681 577.897 1.24819 577.897 1.22956 577.897H1.21094C1.21094 577.897 1.21094 577.897 1.21094 577.88C1.21094 577.88 1.21094 577.863 1.21094 577.846V565.255C1.21094 565.255 1.21094 565.186 1.24819 565.169C1.26681 565.152 1.30406 565.135 1.34131 565.135H21.7357C21.7357 565.135 21.7916 565.135 21.8288 565.152C21.8661 565.152 21.8847 565.186 21.9033 565.204C21.9219 565.221 21.9406 565.255 21.9592 565.272C21.9592 565.307 21.9592 565.324 21.9592 565.358C21.7729 569.383 22.1641 573.494 23.1884 577.708H23.1698Z" fill="#508FFF"/>
</g>
<g opacity="0.15">
<path d="M156.938 218.234C156.472 222.955 157.627 227.777 161.221 231.271C161.743 231.775 162.264 232.279 162.786 232.783C165.524 235.37 168.839 237.05 172.732 237.84C174.128 238.126 176.419 238.26 179.604 238.243C195.398 238.21 221.752 238.21 237.584 238.226C237.584 238.226 237.621 238.226 237.639 238.226C237.639 238.226 237.677 238.226 237.677 238.243C237.677 238.243 237.695 238.26 237.695 238.277C237.695 238.277 237.695 238.31 237.695 238.327V250.642C237.695 250.642 237.695 250.675 237.677 250.692C237.677 250.692 237.639 250.709 237.621 250.709C221.492 250.709 194.672 250.709 178.226 250.709C175.171 250.709 172.806 250.574 171.167 250.322C159.918 248.592 150.773 241.654 146.191 232.279C145.409 230.666 144.831 228.886 144.44 226.937C143.733 223.274 143.528 219.595 143.788 215.916C143.863 214.824 144.086 213.665 144.459 212.422C146.694 204.929 151.201 199.032 157.981 194.731C162.804 191.674 168.187 189.926 174.073 189.473C175.618 189.355 177.164 189.288 178.71 189.288C185.061 189.288 191.412 189.288 197.708 189.288C197.931 189.288 198.117 189.372 198.248 189.523C201.228 192.799 202.14 197.705 201.395 201.787C201.395 201.838 201.358 201.854 201.321 201.854C193.852 201.888 186.477 201.888 179.213 201.838C176.457 201.821 174.315 201.972 172.787 202.274C166.66 203.534 161.631 207.079 158.93 212.287C158.67 212.774 158.428 213.262 158.167 213.749C157.496 215.026 157.068 216.521 156.9 218.234H156.938Z" fill="#508FFF"/>
<path d="M237.879 189.436V201.751C237.879 201.751 237.879 201.818 237.841 201.835C237.823 201.851 237.785 201.868 237.748 201.868H220.874C220.744 201.868 220.688 201.818 220.688 201.7C221.06 197.433 220.651 193.367 219.459 189.487C219.421 189.369 219.459 189.302 219.626 189.302H237.711C237.711 189.302 237.785 189.319 237.823 189.352C237.86 189.386 237.86 189.419 237.86 189.453L237.879 189.436Z" fill="#508FFF"/>
<path d="M210.871 217.831C204.725 224.954 195.263 229.373 185.15 229.423C177.793 229.457 170.548 229.474 163.415 229.457C163.247 229.457 163.117 229.406 163.005 229.289C159.895 226.114 159.206 221.645 159.895 217.193C159.913 217.058 160.006 216.991 160.155 216.991C167.363 216.958 174.478 216.958 181.5 216.991C184.554 217.008 186.882 216.874 188.484 216.571C193.401 215.664 197.387 213.396 200.423 209.767C204.93 204.374 205.731 197.386 202.658 191.237C199.938 185.777 195.301 182.35 188.745 180.955C187.348 180.653 185.336 180.518 182.747 180.518C166.19 180.552 135.98 180.552 120.373 180.518C120.335 180.518 120.298 180.518 120.279 180.485C120.261 180.468 120.242 180.434 120.242 180.401V168.187C120.242 168.103 120.279 168.053 120.391 168.053C136.241 168.07 166.302 168.053 182.319 168.053C185.299 168.053 187.608 168.137 189.21 168.338C202.173 169.918 212.585 178.267 216.552 189.473C217.539 192.278 218.042 195.386 218.042 198.83C218.06 205.937 215.676 212.27 210.871 217.848V217.831Z" fill="#508FFF"/>
<path d="M142.17 229.251C142.17 229.251 142.17 229.301 142.17 229.318C142.17 229.335 142.151 229.368 142.133 229.385C142.133 229.402 142.095 229.419 142.077 229.435C142.058 229.435 142.021 229.435 142.002 229.435H120.267C120.267 229.435 120.248 229.435 120.23 229.435H120.211C120.211 229.435 120.211 229.435 120.211 229.419C120.211 229.419 120.211 229.402 120.211 229.385V217.087C120.211 217.087 120.211 217.02 120.248 217.003C120.267 216.987 120.304 216.97 120.341 216.97H140.736C140.736 216.97 140.792 216.97 140.829 216.987C140.866 216.987 140.885 217.02 140.903 217.037C140.922 217.054 140.941 217.087 140.959 217.104C140.959 217.138 140.959 217.155 140.959 217.188C140.773 221.119 141.164 225.135 142.188 229.251H142.17Z" fill="#508FFF"/>
</g>
<g opacity="0.15">
<path d="M156.938 302.234C156.472 306.955 157.627 311.777 161.221 315.271C161.743 315.775 162.264 316.279 162.786 316.783C165.524 319.37 168.839 321.05 172.732 321.84C174.128 322.126 176.419 322.26 179.604 322.243C195.398 322.21 221.752 322.21 237.584 322.226C237.584 322.226 237.621 322.226 237.639 322.226C237.639 322.226 237.677 322.226 237.677 322.243C237.677 322.243 237.695 322.26 237.695 322.277C237.695 322.277 237.695 322.31 237.695 322.327V334.642C237.695 334.642 237.695 334.675 237.677 334.692C237.677 334.692 237.639 334.709 237.621 334.709C221.492 334.709 194.672 334.709 178.226 334.709C175.171 334.709 172.806 334.574 171.167 334.322C159.918 332.592 150.773 325.654 146.191 316.279C145.409 314.666 144.831 312.886 144.44 310.937C143.733 307.274 143.528 303.595 143.788 299.916C143.863 298.824 144.086 297.665 144.459 296.422C146.694 288.929 151.201 283.032 157.981 278.731C162.804 275.674 168.187 273.926 174.073 273.473C175.618 273.355 177.164 273.288 178.71 273.288C185.061 273.288 191.412 273.288 197.708 273.288C197.931 273.288 198.117 273.372 198.248 273.523C201.228 276.799 202.14 281.705 201.395 285.787C201.395 285.838 201.358 285.854 201.321 285.854C193.852 285.888 186.477 285.888 179.213 285.838C176.457 285.821 174.315 285.972 172.787 286.274C166.66 287.534 161.631 291.079 158.93 296.287C158.67 296.774 158.428 297.262 158.167 297.749C157.496 299.026 157.068 300.521 156.9 302.234H156.938Z" fill="#508FFF"/>
<path d="M237.879 273.436V285.751C237.879 285.751 237.879 285.818 237.841 285.835C237.823 285.851 237.785 285.868 237.748 285.868H220.874C220.744 285.868 220.688 285.818 220.688 285.7C221.06 281.433 220.651 277.367 219.459 273.487C219.421 273.369 219.459 273.302 219.626 273.302H237.711C237.711 273.302 237.785 273.319 237.823 273.352C237.86 273.386 237.86 273.419 237.86 273.453L237.879 273.436Z" fill="#508FFF"/>
<path d="M210.871 301.831C204.725 308.954 195.263 313.373 185.15 313.423C177.793 313.457 170.548 313.474 163.415 313.457C163.247 313.457 163.117 313.406 163.005 313.289C159.895 310.114 159.206 305.645 159.895 301.193C159.913 301.058 160.006 300.991 160.155 300.991C167.363 300.958 174.478 300.958 181.5 300.991C184.554 301.008 186.882 300.874 188.484 300.571C193.401 299.664 197.387 297.396 200.423 293.767C204.93 288.374 205.731 281.386 202.658 275.237C199.938 269.777 195.301 266.35 188.745 264.955C187.348 264.653 185.336 264.518 182.747 264.518C166.19 264.552 135.98 264.552 120.373 264.518C120.335 264.518 120.298 264.518 120.279 264.485C120.261 264.468 120.242 264.434 120.242 264.401V252.187C120.242 252.103 120.279 252.053 120.391 252.053C136.241 252.07 166.302 252.053 182.319 252.053C185.299 252.053 187.608 252.137 189.21 252.338C202.173 253.918 212.585 262.267 216.552 273.473C217.539 276.278 218.042 279.386 218.042 282.83C218.06 289.937 215.676 296.27 210.871 301.848V301.831Z" fill="#508FFF"/>
<path d="M142.17 313.251C142.17 313.251 142.17 313.301 142.17 313.318C142.17 313.335 142.151 313.368 142.133 313.385C142.133 313.402 142.095 313.419 142.077 313.435C142.058 313.435 142.021 313.435 142.002 313.435H120.267C120.267 313.435 120.248 313.435 120.23 313.435H120.211C120.211 313.435 120.211 313.435 120.211 313.419C120.211 313.419 120.211 313.402 120.211 313.385V301.087C120.211 301.087 120.211 301.02 120.248 301.003C120.267 300.987 120.304 300.97 120.341 300.97H140.736C140.736 300.97 140.792 300.97 140.829 300.987C140.866 300.987 140.885 301.02 140.903 301.037C140.922 301.054 140.941 301.087 140.959 301.104C140.959 301.138 140.959 301.155 140.959 301.188C140.773 305.119 141.164 309.135 142.188 313.251H142.17Z" fill="#508FFF"/>
</g>
<g opacity="0.15">
<path d="M37.9376 302.234C37.472 306.955 38.6267 311.777 42.2213 315.271C42.7428 315.775 43.2643 316.279 43.7858 316.783C46.5237 319.37 49.8389 321.05 53.7315 321.84C55.1284 322.126 57.4193 322.26 60.6041 322.243C76.3981 322.21 102.752 322.21 118.584 322.226C118.584 322.226 118.621 322.226 118.639 322.226C118.639 322.226 118.677 322.226 118.677 322.243C118.677 322.243 118.695 322.26 118.695 322.277C118.695 322.277 118.695 322.31 118.695 322.327V334.642C118.695 334.642 118.695 334.675 118.677 334.692C118.677 334.692 118.639 334.709 118.621 334.709C102.492 334.709 75.6717 334.709 59.2259 334.709C56.1714 334.709 53.806 334.574 52.167 334.322C40.9176 332.592 31.7727 325.654 27.191 316.279C26.4088 314.666 25.8314 312.886 25.4403 310.937C24.7325 307.274 24.5276 303.595 24.7884 299.916C24.8629 298.824 25.0864 297.665 25.4589 296.422C27.6939 288.929 32.2011 283.032 38.9806 278.731C43.8044 275.674 49.187 273.926 55.0725 273.473C56.6184 273.355 58.1643 273.288 59.7101 273.288C66.0612 273.288 72.4123 273.288 78.7076 273.288C78.9311 273.288 79.1173 273.372 79.2477 273.523C82.2277 276.799 83.1403 281.705 82.3953 285.787C82.3953 285.838 82.358 285.854 82.3208 285.854C74.8522 285.888 67.4767 285.888 60.213 285.838C57.4565 285.821 55.3146 285.972 53.7874 286.274C47.6598 287.534 42.6311 291.079 39.9305 296.287C39.6697 296.774 39.4276 297.262 39.1668 297.749C38.4963 299.026 38.068 300.521 37.9003 302.234H37.9376Z" fill="#508FFF"/>
<path d="M118.879 273.436V285.751C118.879 285.751 118.879 285.818 118.841 285.835C118.823 285.851 118.785 285.868 118.748 285.868H101.874C101.744 285.868 101.688 285.818 101.688 285.7C102.06 281.433 101.651 277.367 100.459 273.487C100.421 273.369 100.459 273.302 100.626 273.302H118.711C118.711 273.302 118.785 273.319 118.823 273.352C118.86 273.386 118.86 273.419 118.86 273.453L118.879 273.436Z" fill="#508FFF"/>
<path d="M91.8711 301.831C85.7249 308.954 76.2633 313.373 66.1499 313.423C58.7931 313.457 51.548 313.474 44.4147 313.457C44.247 313.457 44.1168 313.406 44.0051 313.289C40.8947 310.114 40.2056 305.645 40.8947 301.193C40.9134 301.058 41.0063 300.991 41.1553 300.991C48.3631 300.958 55.4781 300.958 62.4996 300.991C65.5541 301.008 67.8822 300.874 69.484 300.571C74.401 299.664 78.3867 297.396 81.4226 293.767C85.9298 288.374 86.7307 281.386 83.6576 275.237C80.9383 269.777 76.3005 266.35 69.7446 264.955C68.3477 264.653 66.3362 264.518 63.7473 264.518C47.1898 264.552 16.9802 264.552 1.37256 264.518C1.33531 264.518 1.29806 264.518 1.27944 264.485C1.26081 264.468 1.24219 264.434 1.24219 264.401V252.187C1.24219 252.103 1.27944 252.053 1.39119 252.053C17.241 252.07 47.3015 252.053 63.319 252.053C66.2989 252.053 68.6084 252.137 70.2102 252.338C83.1731 253.918 93.5846 262.267 97.5518 273.473C98.5389 276.278 99.0416 279.386 99.0416 282.83C99.0602 289.937 96.6764 296.27 91.8711 301.848V301.831Z" fill="#508FFF"/>
<path d="M23.1698 313.251C23.1698 313.251 23.1698 313.301 23.1698 313.318C23.1698 313.335 23.1512 313.368 23.1326 313.385C23.1326 313.402 23.0953 313.419 23.0767 313.435C23.0581 313.435 23.0208 313.435 23.0022 313.435H1.26681C1.26681 313.435 1.24819 313.435 1.22956 313.435H1.21094C1.21094 313.435 1.21094 313.435 1.21094 313.419C1.21094 313.419 1.21094 313.402 1.21094 313.385V301.087C1.21094 301.087 1.21094 301.02 1.24819 301.003C1.26681 300.987 1.30406 300.97 1.34131 300.97H21.7357C21.7357 300.97 21.7916 300.97 21.8288 300.987C21.8661 300.987 21.8847 301.02 21.9033 301.037C21.9219 301.054 21.9406 301.087 21.9592 301.104C21.9592 301.138 21.9592 301.155 21.9592 301.188C21.7729 305.119 22.1641 309.135 23.1884 313.251H23.1698Z" fill="#508FFF"/>
</g>
<g opacity="0.15">
<path d="M156.938 134.234C156.472 138.955 157.627 143.777 161.221 147.271C161.743 147.775 162.264 148.279 162.786 148.783C165.524 151.37 168.839 153.05 172.732 153.84C174.128 154.126 176.419 154.26 179.604 154.243C195.398 154.21 221.752 154.21 237.584 154.226C237.584 154.226 237.621 154.226 237.639 154.226C237.639 154.226 237.677 154.226 237.677 154.243C237.677 154.243 237.695 154.26 237.695 154.277C237.695 154.277 237.695 154.31 237.695 154.327V166.642C237.695 166.642 237.695 166.675 237.677 166.692C237.677 166.692 237.639 166.709 237.621 166.709C221.492 166.709 194.672 166.709 178.226 166.709C175.171 166.709 172.806 166.574 171.167 166.322C159.918 164.592 150.773 157.654 146.191 148.279C145.409 146.666 144.831 144.886 144.44 142.937C143.733 139.274 143.528 135.595 143.788 131.916C143.863 130.824 144.086 129.665 144.459 128.422C146.694 120.929 151.201 115.032 157.981 110.731C162.804 107.674 168.187 105.926 174.073 105.473C175.618 105.355 177.164 105.288 178.71 105.288C185.061 105.288 191.412 105.288 197.708 105.288C197.931 105.288 198.117 105.372 198.248 105.523C201.228 108.799 202.14 113.705 201.395 117.787C201.395 117.838 201.358 117.854 201.321 117.854C193.852 117.888 186.477 117.888 179.213 117.838C176.457 117.821 174.315 117.972 172.787 118.274C166.66 119.534 161.631 123.079 158.93 128.287C158.67 128.774 158.428 129.262 158.167 129.749C157.496 131.026 157.068 132.521 156.9 134.234H156.938Z" fill="#508FFF"/>
<path d="M237.879 105.436V117.751C237.879 117.751 237.879 117.818 237.841 117.835C237.823 117.851 237.785 117.868 237.748 117.868H220.874C220.744 117.868 220.688 117.818 220.688 117.7C221.06 113.433 220.651 109.367 219.459 105.487C219.421 105.369 219.459 105.302 219.626 105.302H237.711C237.711 105.302 237.785 105.319 237.823 105.352C237.86 105.386 237.86 105.419 237.86 105.453L237.879 105.436Z" fill="#508FFF"/>
<path d="M210.871 133.831C204.725 140.954 195.263 145.373 185.15 145.423C177.793 145.457 170.548 145.474 163.415 145.457C163.247 145.457 163.117 145.406 163.005 145.289C159.895 142.114 159.206 137.645 159.895 133.193C159.913 133.058 160.006 132.991 160.155 132.991C167.363 132.958 174.478 132.958 181.5 132.991C184.554 133.008 186.882 132.874 188.484 132.571C193.401 131.664 197.387 129.396 200.423 125.767C204.93 120.374 205.731 113.386 202.658 107.237C199.938 101.777 195.301 98.3495 188.745 96.9551C187.348 96.6527 185.336 96.5183 182.747 96.5183C166.19 96.5519 135.98 96.5519 120.373 96.5183C120.335 96.5183 120.298 96.5183 120.279 96.4847C120.261 96.4679 120.242 96.4343 120.242 96.4007V84.1871C120.242 84.1031 120.279 84.0527 120.391 84.0527C136.241 84.0695 166.302 84.0527 182.319 84.0527C185.299 84.0527 187.608 84.1367 189.21 84.3383C202.173 85.9175 212.585 94.2671 216.552 105.473C217.539 108.278 218.042 111.386 218.042 114.83C218.06 121.937 215.676 128.27 210.871 133.848V133.831Z" fill="#508FFF"/>
<path d="M142.17 145.251C142.17 145.251 142.17 145.301 142.17 145.318C142.17 145.335 142.151 145.368 142.133 145.385C142.133 145.402 142.095 145.419 142.077 145.435C142.058 145.435 142.021 145.435 142.002 145.435H120.267C120.267 145.435 120.248 145.435 120.23 145.435H120.211C120.211 145.435 120.211 145.435 120.211 145.419C120.211 145.419 120.211 145.402 120.211 145.385V133.087C120.211 133.087 120.211 133.02 120.248 133.003C120.267 132.987 120.304 132.97 120.341 132.97H140.736C140.736 132.97 140.792 132.97 140.829 132.987C140.866 132.987 140.885 133.02 140.903 133.037C140.922 133.054 140.941 133.087 140.959 133.104C140.959 133.138 140.959 133.155 140.959 133.188C140.773 137.119 141.164 141.135 142.188 145.251H142.17Z" fill="#508FFF"/>
</g>
<g opacity="0.15">
<path d="M274.978 218.234C274.524 222.955 275.65 227.777 279.154 231.271C279.662 231.775 280.171 232.279 280.679 232.783C283.348 235.37 286.58 237.05 290.374 237.84C291.736 238.126 293.969 238.26 297.073 238.243C312.469 238.21 338.159 238.21 353.591 238.226C353.591 238.226 353.627 238.226 353.646 238.226C353.646 238.226 353.682 238.226 353.682 238.243C353.682 238.243 353.7 238.26 353.7 238.277C353.7 238.277 353.7 238.31 353.7 238.327V250.642C353.7 250.642 353.7 250.675 353.682 250.692C353.682 250.692 353.646 250.709 353.627 250.709C337.905 250.709 311.761 250.709 295.73 250.709C292.752 250.709 290.447 250.574 288.849 250.322C277.883 248.592 268.969 241.654 264.503 232.279C263.74 230.666 263.177 228.886 262.796 226.937C262.106 223.274 261.906 219.595 262.161 215.916C262.233 214.824 262.451 213.665 262.814 212.422C264.993 204.929 269.387 199.032 275.995 194.731C280.697 191.674 285.944 189.926 291.681 189.473C293.188 189.355 294.695 189.288 296.202 189.288C302.393 189.288 308.584 189.288 314.721 189.288C314.938 189.288 315.12 189.372 315.247 189.523C318.152 192.799 319.041 197.705 318.315 201.787C318.315 201.838 318.279 201.854 318.243 201.854C310.962 201.888 303.773 201.888 296.692 201.838C294.005 201.821 291.917 201.972 290.429 202.274C284.455 203.534 279.554 207.079 276.921 212.287C276.667 212.774 276.431 213.262 276.177 213.749C275.523 215.026 275.105 216.521 274.942 218.234H274.978Z" fill="#508FFF"/>
<path d="M353.883 189.436V201.751C353.883 201.751 353.883 201.818 353.846 201.835C353.828 201.851 353.792 201.868 353.756 201.868H337.307C337.18 201.868 337.125 201.818 337.125 201.7C337.488 197.433 337.089 193.367 335.927 189.487C335.891 189.369 335.927 189.302 336.09 189.302H353.719C353.719 189.302 353.792 189.319 353.828 189.352C353.864 189.386 353.864 189.419 353.864 189.453L353.883 189.436Z" fill="#508FFF"/>
<path d="M327.555 217.831C321.564 224.954 312.341 229.373 302.482 229.423C295.311 229.457 288.249 229.474 281.295 229.457C281.132 229.457 281.005 229.406 280.896 229.289C277.864 226.114 277.192 221.645 277.864 217.193C277.882 217.058 277.973 216.991 278.118 216.991C285.144 216.958 292.08 216.958 298.924 216.991C301.902 217.008 304.171 216.874 305.732 216.571C310.525 215.664 314.411 213.396 317.37 209.767C321.764 204.374 322.544 197.386 319.549 191.237C316.898 185.777 312.377 182.35 305.986 180.955C304.625 180.653 302.664 180.518 300.14 180.518C284 180.552 254.552 180.552 239.338 180.518C239.302 180.518 239.265 180.518 239.247 180.485C239.229 180.468 239.211 180.434 239.211 180.401V168.187C239.211 168.103 239.247 168.053 239.356 168.053C254.806 168.07 284.109 168.053 299.723 168.053C302.628 168.053 304.879 168.137 306.44 168.338C319.076 169.918 329.225 178.267 333.093 189.473C334.055 192.278 334.545 195.386 334.545 198.83C334.563 205.937 332.239 212.27 327.555 217.848V217.831Z" fill="#508FFF"/>
<path d="M260.585 229.251C260.585 229.251 260.585 229.301 260.585 229.318C260.585 229.335 260.567 229.368 260.549 229.385C260.549 229.402 260.512 229.419 260.494 229.435C260.476 229.435 260.44 229.435 260.422 229.435H239.234C239.234 229.435 239.216 229.435 239.198 229.435H239.18C239.18 229.435 239.18 229.435 239.18 229.419C239.18 229.419 239.18 229.402 239.18 229.385V217.087C239.18 217.087 239.18 217.02 239.216 217.003C239.234 216.987 239.27 216.97 239.307 216.97H259.187C259.187 216.97 259.241 216.97 259.278 216.987C259.314 216.987 259.332 217.02 259.35 217.037C259.369 217.054 259.387 217.087 259.405 217.104C259.405 217.138 259.405 217.155 259.405 217.188C259.223 221.119 259.605 225.135 260.603 229.251H260.585Z" fill="#508FFF"/>
</g>
<g opacity="0.15">
<path d="M274.978 134.234C274.524 138.955 275.65 143.777 279.154 147.271C279.662 147.775 280.171 148.279 280.679 148.783C283.348 151.37 286.58 153.05 290.374 153.84C291.736 154.126 293.969 154.26 297.073 154.243C312.469 154.21 338.159 154.21 353.591 154.226C353.591 154.226 353.627 154.226 353.646 154.226C353.646 154.226 353.682 154.226 353.682 154.243C353.682 154.243 353.7 154.26 353.7 154.277C353.7 154.277 353.7 154.31 353.7 154.327V166.642C353.7 166.642 353.7 166.675 353.682 166.692C353.682 166.692 353.646 166.709 353.627 166.709C337.905 166.709 311.761 166.709 295.73 166.709C292.752 166.709 290.447 166.574 288.849 166.322C277.883 164.592 268.969 157.654 264.503 148.279C263.74 146.666 263.177 144.886 262.796 142.937C262.106 139.274 261.906 135.595 262.161 131.916C262.233 130.824 262.451 129.665 262.814 128.422C264.993 120.929 269.387 115.032 275.995 110.731C280.697 107.674 285.944 105.926 291.681 105.473C293.188 105.355 294.695 105.288 296.202 105.288C302.393 105.288 308.584 105.288 314.721 105.288C314.938 105.288 315.12 105.372 315.247 105.523C318.152 108.799 319.041 113.705 318.315 117.787C318.315 117.838 318.279 117.854 318.243 117.854C310.962 117.888 303.773 117.888 296.692 117.838C294.005 117.821 291.917 117.972 290.429 118.274C284.455 119.534 279.554 123.079 276.921 128.287C276.667 128.774 276.431 129.262 276.177 129.749C275.523 131.026 275.105 132.521 274.942 134.234H274.978Z" fill="#508FFF"/>
<path d="M353.883 105.436V117.751C353.883 117.751 353.883 117.818 353.846 117.835C353.828 117.851 353.792 117.868 353.756 117.868H337.307C337.18 117.868 337.125 117.818 337.125 117.7C337.488 113.433 337.089 109.367 335.927 105.487C335.891 105.369 335.927 105.302 336.09 105.302H353.719C353.719 105.302 353.792 105.319 353.828 105.352C353.864 105.386 353.864 105.419 353.864 105.453L353.883 105.436Z" fill="#508FFF"/>
<path d="M327.555 133.831C321.564 140.954 312.341 145.373 302.482 145.423C295.311 145.457 288.249 145.474 281.295 145.457C281.132 145.457 281.005 145.406 280.896 145.289C277.864 142.114 277.192 137.645 277.864 133.193C277.882 133.058 277.973 132.991 278.118 132.991C285.144 132.958 292.08 132.958 298.924 132.991C301.902 133.008 304.171 132.874 305.732 132.571C310.525 131.664 314.411 129.396 317.37 125.767C321.764 120.374 322.544 113.386 319.549 107.237C316.898 101.777 312.377 98.3495 305.986 96.9551C304.625 96.6527 302.664 96.5183 300.14 96.5183C284 96.5519 254.552 96.5519 239.338 96.5183C239.302 96.5183 239.265 96.5183 239.247 96.4847C239.229 96.4679 239.211 96.4343 239.211 96.4007V84.1871C239.211 84.1031 239.247 84.0527 239.356 84.0527C254.806 84.0695 284.109 84.0527 299.723 84.0527C302.628 84.0527 304.879 84.1367 306.44 84.3383C319.076 85.9175 329.225 94.2671 333.093 105.473C334.055 108.278 334.545 111.386 334.545 114.83C334.563 121.937 332.239 128.27 327.555 133.848V133.831Z" fill="#508FFF"/>
<path d="M260.585 145.251C260.585 145.251 260.585 145.301 260.585 145.318C260.585 145.335 260.567 145.368 260.549 145.385C260.549 145.402 260.512 145.419 260.494 145.435C260.476 145.435 260.44 145.435 260.422 145.435H239.234C239.234 145.435 239.216 145.435 239.198 145.435H239.18C239.18 145.435 239.18 145.435 239.18 145.419C239.18 145.419 239.18 145.402 239.18 145.385V133.087C239.18 133.087 239.18 133.02 239.216 133.003C239.234 132.987 239.27 132.97 239.307 132.97H259.187C259.187 132.97 259.241 132.97 259.278 132.987C259.314 132.987 259.332 133.02 259.35 133.037C259.369 133.054 259.387 133.087 259.405 133.104C259.405 133.138 259.405 133.155 259.405 133.188C259.223 137.119 259.605 141.135 260.603 145.251H260.585Z" fill="#508FFF"/>
</g>
<g opacity="0.15">
<path d="M391.938 218.234C391.472 222.955 392.627 227.777 396.221 231.271C396.743 231.775 397.264 232.279 397.786 232.783C400.524 235.37 403.839 237.05 407.732 237.84C409.128 238.126 411.419 238.26 414.604 238.243C430.398 238.21 456.752 238.21 472.584 238.226C472.584 238.226 472.621 238.226 472.639 238.226C472.639 238.226 472.677 238.226 472.677 238.243C472.677 238.243 472.695 238.26 472.695 238.277C472.695 238.277 472.695 238.31 472.695 238.327V250.642C472.695 250.642 472.695 250.675 472.677 250.692C472.677 250.692 472.639 250.709 472.621 250.709C456.492 250.709 429.672 250.709 413.226 250.709C410.171 250.709 407.806 250.574 406.167 250.322C394.918 248.592 385.773 241.654 381.191 232.279C380.409 230.666 379.831 228.886 379.44 226.937C378.733 223.274 378.528 219.595 378.788 215.916C378.863 214.824 379.086 213.665 379.459 212.422C381.694 204.929 386.201 199.032 392.981 194.731C397.804 191.674 403.187 189.926 409.073 189.473C410.618 189.355 412.164 189.288 413.71 189.288C420.061 189.288 426.412 189.288 432.708 189.288C432.931 189.288 433.117 189.372 433.248 189.523C436.228 192.799 437.14 197.705 436.395 201.787C436.395 201.838 436.358 201.854 436.321 201.854C428.852 201.888 421.477 201.888 414.213 201.838C411.457 201.821 409.315 201.972 407.787 202.274C401.66 203.534 396.631 207.079 393.93 212.287C393.67 212.774 393.428 213.262 393.167 213.749C392.496 215.026 392.068 216.521 391.9 218.234H391.938Z" fill="#508FFF"/>
<path d="M472.879 189.436V201.751C472.879 201.751 472.879 201.818 472.841 201.835C472.823 201.851 472.785 201.868 472.748 201.868H455.874C455.744 201.868 455.688 201.818 455.688 201.7C456.06 197.433 455.651 193.367 454.459 189.487C454.421 189.369 454.459 189.302 454.626 189.302H472.711C472.711 189.302 472.785 189.319 472.823 189.352C472.86 189.386 472.86 189.419 472.86 189.453L472.879 189.436Z" fill="#508FFF"/>
<path d="M445.871 217.831C439.725 224.954 430.263 229.373 420.15 229.423C412.793 229.457 405.548 229.474 398.415 229.457C398.247 229.457 398.117 229.406 398.005 229.289C394.895 226.114 394.206 221.645 394.895 217.193C394.913 217.058 395.006 216.991 395.155 216.991C402.363 216.958 409.478 216.958 416.5 216.991C419.554 217.008 421.882 216.874 423.484 216.571C428.401 215.664 432.387 213.396 435.423 209.767C439.93 204.374 440.731 197.386 437.658 191.237C434.938 185.777 430.301 182.35 423.745 180.955C422.348 180.653 420.336 180.518 417.747 180.518C401.19 180.552 370.98 180.552 355.373 180.518C355.335 180.518 355.298 180.518 355.279 180.485C355.261 180.468 355.242 180.434 355.242 180.401V168.187C355.242 168.103 355.279 168.053 355.391 168.053C371.241 168.07 401.302 168.053 417.319 168.053C420.299 168.053 422.608 168.137 424.21 168.338C437.173 169.918 447.585 178.267 451.552 189.473C452.539 192.278 453.042 195.386 453.042 198.83C453.06 205.937 450.676 212.27 445.871 217.848V217.831Z" fill="#508FFF"/>
<path d="M377.17 229.251C377.17 229.251 377.17 229.301 377.17 229.318C377.17 229.335 377.151 229.368 377.133 229.385C377.133 229.402 377.095 229.419 377.077 229.435C377.058 229.435 377.021 229.435 377.002 229.435H355.267C355.267 229.435 355.248 229.435 355.23 229.435H355.211C355.211 229.435 355.211 229.435 355.211 229.419C355.211 229.419 355.211 229.402 355.211 229.385V217.087C355.211 217.087 355.211 217.02 355.248 217.003C355.267 216.987 355.304 216.97 355.341 216.97H375.736C375.736 216.97 375.792 216.97 375.829 216.987C375.866 216.987 375.885 217.02 375.903 217.037C375.922 217.054 375.941 217.087 375.959 217.104C375.959 217.138 375.959 217.155 375.959 217.188C375.773 221.119 376.164 225.135 377.188 229.251H377.17Z" fill="#508FFF"/>
</g>
<g opacity="0.15">
<path d="M391.938 50.2345C391.472 54.9553 392.627 59.7769 396.221 63.2713C396.743 63.7753 397.264 64.2793 397.786 64.7833C400.524 67.3705 403.839 69.0505 407.732 69.8401C409.128 70.1257 411.419 70.2601 414.604 70.2433C430.398 70.2097 456.752 70.2097 472.584 70.2265C472.584 70.2265 472.621 70.2265 472.639 70.2265C472.639 70.2265 472.677 70.2265 472.677 70.2433C472.677 70.2433 472.695 70.2601 472.695 70.2769C472.695 70.2769 472.695 70.3105 472.695 70.3273V82.6417C472.695 82.6417 472.695 82.6753 472.677 82.6921C472.677 82.6921 472.639 82.7089 472.621 82.7089C456.492 82.7089 429.672 82.7089 413.226 82.7089C410.171 82.7089 407.806 82.5745 406.167 82.3225C394.918 80.5921 385.773 73.6537 381.191 64.2793C380.409 62.6665 379.831 60.8857 379.44 58.9369C378.733 55.2745 378.528 51.5953 378.788 47.9161C378.863 46.8241 379.086 45.6649 379.459 44.4217C381.694 36.9289 386.201 31.0321 392.981 26.7313C397.804 23.6737 403.187 21.9265 409.073 21.4729C410.618 21.3553 412.164 21.2881 413.71 21.2881C420.061 21.2881 426.412 21.2881 432.708 21.2881C432.931 21.2881 433.117 21.3721 433.248 21.5233C436.228 24.7993 437.14 29.7049 436.395 33.7873C436.395 33.8377 436.358 33.8545 436.321 33.8545C428.852 33.8881 421.477 33.8881 414.213 33.8377C411.457 33.8209 409.315 33.9721 407.787 34.2745C401.66 35.5345 396.631 39.0793 393.93 44.2873C393.67 44.7745 393.428 45.2617 393.167 45.7489C392.496 47.0257 392.068 48.5209 391.9 50.2345H391.938Z" fill="#508FFF"/>
<path d="M472.879 21.4362V33.7506C472.879 33.7506 472.879 33.8178 472.841 33.8346C472.823 33.8514 472.785 33.8682 472.748 33.8682H455.874C455.744 33.8682 455.688 33.8178 455.688 33.7002C456.06 29.433 455.651 25.3674 454.459 21.4866C454.421 21.369 454.459 21.3018 454.626 21.3018H472.711C472.711 21.3018 472.785 21.3186 472.823 21.3522C472.86 21.3858 472.86 21.4194 472.86 21.453L472.879 21.4362Z" fill="#508FFF"/>
<path d="M445.871 49.8311C439.725 56.9543 430.263 61.3727 420.15 61.4231C412.793 61.4567 405.548 61.4735 398.415 61.4567C398.247 61.4567 398.117 61.4063 398.005 61.2887C394.895 58.1135 394.206 53.6447 394.895 49.1927C394.913 49.0583 395.006 48.9911 395.155 48.9911C402.363 48.9575 409.478 48.9575 416.5 48.9911C419.554 49.0079 421.882 48.8735 423.484 48.5711C428.401 47.6639 432.387 45.3959 435.423 41.7671C439.93 36.3743 440.731 29.3855 437.658 23.2367C434.938 17.7767 430.301 14.3495 423.745 12.9551C422.348 12.6527 420.336 12.5183 417.747 12.5183C401.19 12.5519 370.98 12.5519 355.373 12.5183C355.335 12.5183 355.298 12.5183 355.279 12.4847C355.261 12.4679 355.242 12.4343 355.242 12.4007V0.187135C355.242 0.103134 355.279 0.0527344 355.391 0.0527344C371.241 0.0695344 401.302 0.0527344 417.319 0.0527344C420.299 0.0527344 422.608 0.136734 424.21 0.338335C437.173 1.91754 447.585 10.2671 451.552 21.4727C452.539 24.2783 453.042 27.3863 453.042 30.8303C453.06 37.9367 450.676 44.2703 445.871 49.8479V49.8311Z" fill="#508FFF"/>
<path d="M377.17 61.2505C377.17 61.2505 377.17 61.3009 377.17 61.3177C377.17 61.3345 377.151 61.3681 377.133 61.3849C377.133 61.4017 377.095 61.4185 377.077 61.4353C377.058 61.4353 377.021 61.4353 377.002 61.4353H355.267C355.267 61.4353 355.248 61.4353 355.23 61.4353H355.211C355.211 61.4353 355.211 61.4353 355.211 61.4185C355.211 61.4185 355.211 61.4017 355.211 61.3849V49.0873C355.211 49.0873 355.211 49.0201 355.248 49.0033C355.267 48.9865 355.304 48.9697 355.341 48.9697H375.736C375.736 48.9697 375.792 48.9697 375.829 48.9865C375.866 48.9865 375.885 49.0201 375.903 49.0369C375.922 49.0537 375.941 49.0873 375.959 49.1041C375.959 49.1377 375.959 49.1545 375.959 49.1881C375.773 53.1193 376.164 57.1345 377.188 61.2505H377.17Z" fill="#508FFF"/>
</g>
<g opacity="0.15">
<path d="M391.938 303.431C391.472 308.264 392.627 313.2 396.221 316.778C396.743 317.294 397.264 317.81 397.786 318.326C400.524 320.975 403.839 322.695 407.732 323.503C409.128 323.795 411.419 323.933 414.604 323.916C430.398 323.881 456.752 323.881 472.584 323.899C472.584 323.899 472.621 323.899 472.639 323.899C472.639 323.899 472.677 323.899 472.677 323.916C472.677 323.916 472.695 323.933 472.695 323.95C472.695 323.95 472.695 323.985 472.695 324.002V336.609C472.695 336.609 472.695 336.644 472.677 336.661C472.677 336.661 472.639 336.678 472.621 336.678C456.492 336.678 429.672 336.678 413.226 336.678C410.171 336.678 407.806 336.541 406.167 336.283C394.918 334.511 385.773 327.407 381.191 317.81C380.409 316.159 379.831 314.335 379.44 312.34C378.733 308.591 378.528 304.824 378.788 301.057C378.863 299.939 379.086 298.752 379.459 297.479C381.694 289.808 386.201 283.771 392.981 279.368C397.804 276.237 403.187 274.449 409.073 273.984C410.618 273.864 412.164 273.795 413.71 273.795C420.061 273.795 426.412 273.795 432.708 273.795C432.931 273.795 433.117 273.881 433.248 274.036C436.228 277.39 437.14 282.412 436.395 286.592C436.395 286.643 436.358 286.661 436.321 286.661C428.852 286.695 421.477 286.695 414.213 286.643C411.457 286.626 409.315 286.781 407.787 287.091C401.66 288.381 396.631 292.01 393.93 297.342C393.67 297.841 393.428 298.339 393.167 298.838C392.496 300.145 392.068 301.676 391.9 303.431H391.938Z" fill="#508FFF"/>
<path d="M472.879 273.947V286.555C472.879 286.555 472.879 286.624 472.841 286.641C472.823 286.658 472.785 286.675 472.748 286.675H455.874C455.744 286.675 455.688 286.624 455.688 286.503C456.06 282.134 455.651 277.972 454.459 273.999C454.421 273.878 454.459 273.81 454.626 273.81H472.711C472.711 273.81 472.785 273.827 472.823 273.861C472.86 273.896 472.86 273.93 472.86 273.964L472.879 273.947Z" fill="#508FFF"/>
<path d="M445.871 303.017C439.725 310.31 430.263 314.834 420.15 314.885C412.793 314.92 405.548 314.937 398.415 314.92C398.247 314.92 398.117 314.868 398.005 314.748C394.895 311.497 394.206 306.922 394.895 302.364C394.913 302.226 395.006 302.157 395.155 302.157C402.363 302.123 409.478 302.123 416.5 302.157C419.554 302.175 421.882 302.037 423.484 301.727C428.401 300.799 432.387 298.477 435.423 294.761C439.93 289.24 440.731 282.085 437.658 275.79C434.938 270.2 430.301 266.691 423.745 265.263C422.348 264.954 420.336 264.816 417.747 264.816C401.19 264.851 370.98 264.851 355.373 264.816C355.335 264.816 355.298 264.816 355.279 264.782C355.261 264.765 355.242 264.73 355.242 264.696V252.191C355.242 252.105 355.279 252.054 355.391 252.054C371.241 252.071 401.302 252.054 417.319 252.054C420.299 252.054 422.608 252.14 424.21 252.346C437.173 253.963 447.585 262.511 451.552 273.984C452.539 276.856 453.042 280.038 453.042 283.564C453.06 290.84 450.676 297.324 445.871 303.035V303.017Z" fill="#508FFF"/>
<path d="M377.17 314.708C377.17 314.708 377.17 314.76 377.17 314.777C377.17 314.794 377.151 314.828 377.133 314.846C377.133 314.863 377.095 314.88 377.077 314.897C377.058 314.897 377.021 314.897 377.002 314.897H355.267C355.267 314.897 355.248 314.897 355.23 314.897H355.211C355.211 314.897 355.211 314.897 355.211 314.88C355.211 314.88 355.211 314.863 355.211 314.846V302.255C355.211 302.255 355.211 302.186 355.248 302.169C355.267 302.152 355.304 302.135 355.341 302.135H375.736C375.736 302.135 375.792 302.135 375.829 302.152C375.866 302.152 375.885 302.186 375.903 302.204C375.922 302.221 375.941 302.255 375.959 302.272C375.959 302.307 375.959 302.324 375.959 302.358C375.773 306.383 376.164 310.494 377.188 314.708H377.17Z" fill="#508FFF"/>
</g>
</svg>
