<svg width="26" height="18" viewBox="0 0 26 18" fill="none" xmlns="http://www.w3.org/2000/svg">
<path fill-rule="evenodd" clip-rule="evenodd" d="M8.3125 9C8.3125 7.7568 8.80636 6.56451 9.68544 5.68544C10.5645 4.80636 11.7568 4.3125 13 4.3125C14.2432 4.3125 15.4355 4.80636 16.3146 5.68544C17.1936 6.56451 17.6875 7.7568 17.6875 9C17.6875 10.2432 17.1936 11.4355 16.3146 12.3146C15.4355 13.1936 14.2432 13.6875 13 13.6875C11.7568 13.6875 10.5645 13.1936 9.68544 12.3146C8.80636 11.4355 8.3125 10.2432 8.3125 9ZM13 6.1875C12.2541 6.1875 11.5387 6.48382 11.0113 7.01126C10.4838 7.53871 10.1875 8.25408 10.1875 9C10.1875 9.74592 10.4838 10.4613 11.0113 10.9887C11.5387 11.5162 12.2541 11.8125 13 11.8125C13.7459 11.8125 14.4613 11.5162 14.9887 10.9887C15.5162 10.4613 15.8125 9.74592 15.8125 9C15.8125 8.25408 15.5162 7.53871 14.9887 7.01126C14.4613 6.48382 13.7459 6.1875 13 6.1875Z" fill="#BABAC0"/>
<path fill-rule="evenodd" clip-rule="evenodd" d="M3.40375 7.3075C2.88 8.0625 2.6875 8.65375 2.6875 9C2.6875 9.34625 2.88 9.9375 3.40375 10.6925C3.91125 11.4213 4.66375 12.2125 5.61625 12.9437C7.525 14.4087 10.1412 15.5625 13 15.5625C15.8588 15.5625 18.475 14.4087 20.3837 12.9437C21.3363 12.2125 22.0888 11.4213 22.5963 10.6925C23.12 9.9375 23.3125 9.34625 23.3125 9C23.3125 8.65375 23.12 8.0625 22.5963 7.3075C22.0888 6.57875 21.3363 5.7875 20.3837 5.05625C18.475 3.59125 15.8588 2.4375 13 2.4375C10.1412 2.4375 7.525 3.59125 5.61625 5.05625C4.66375 5.7875 3.91125 6.57875 3.40375 7.3075ZM4.47375 3.56875C6.6375 1.90875 9.645 0.5625 13 0.5625C16.355 0.5625 19.3625 1.90875 21.525 3.56875C22.6087 4.4 23.5037 5.3275 24.1362 6.23875C24.7513 7.125 25.1875 8.09625 25.1875 9C25.1875 9.90375 24.75 10.875 24.1362 11.7612C23.5037 12.6725 22.6087 13.5987 21.5262 14.4312C19.3637 16.0912 16.355 17.4375 13 17.4375C9.645 17.4375 6.6375 16.0912 4.475 14.4312C3.39125 13.6 2.49625 12.6725 1.86375 11.7612C1.25 10.875 0.8125 9.90375 0.8125 9C0.8125 8.09625 1.25 7.125 1.86375 6.23875C2.49625 5.3275 3.39125 4.40125 4.47375 3.56875Z" fill="#BABAC0"/>
</svg>
