<svg width="11" height="11" viewBox="0 0 11 11" fill="none" xmlns="http://www.w3.org/2000/svg">
<path fill-rule="evenodd" clip-rule="evenodd" d="M1.8189 4.30564C1.93388 4.19469 2.08784 4.13334 2.24762 4.1348C2.40739 4.13627 2.5602 4.20043 2.67313 4.31346C2.78606 4.4265 2.85008 4.57937 2.85139 4.73915C2.8527 4.89892 2.79121 5.05282 2.68015 5.1677L2.08946 5.75839C1.6783 6.17773 1.44926 6.74241 1.45215 7.32969C1.45504 7.91697 1.68962 8.47937 2.10489 8.89465C2.52017 9.30992 3.08257 9.5445 3.66985 9.54739C4.25713 9.55028 4.82181 9.32124 5.24115 8.91008L5.83184 8.31939C5.94736 8.21175 6.10014 8.15315 6.25801 8.15593C6.41588 8.15872 6.56651 8.22267 6.67816 8.33432C6.7898 8.44597 6.85376 8.5966 6.85654 8.75447C6.85933 8.91234 6.80073 9.06512 6.69309 9.18064L6.10321 9.77133C5.4539 10.404 4.58153 10.7554 3.675 10.7495C2.76848 10.7436 1.90076 10.3808 1.25973 9.73981C0.618706 9.09878 0.255972 8.23106 0.250073 7.32454C0.244174 6.41801 0.595585 5.54564 1.22821 4.89633L1.8189 4.30564ZM8.3189 5.83233C8.21126 5.94784 8.15266 6.10063 8.15545 6.2585C8.15823 6.41637 8.22219 6.567 8.33383 6.67864C8.44548 6.79029 8.59611 6.85425 8.75398 6.85703C8.91185 6.85982 9.06463 6.80122 9.18015 6.69358L9.77084 6.1037C10.4035 5.45439 10.7549 4.58202 10.749 3.67549C10.7431 2.76897 10.3803 1.90124 9.73932 1.26022C9.0983 0.619194 8.23057 0.25646 7.32405 0.250561C6.41752 0.244662 5.54515 0.596074 4.89584 1.2287L4.30515 1.81939C4.1942 1.93437 4.13285 2.08833 4.13431 2.24811C4.13578 2.40788 4.19994 2.56069 4.31297 2.67362C4.42601 2.78655 4.57888 2.85057 4.73866 2.85188C4.89844 2.85319 5.05234 2.7917 5.16721 2.68064L5.7579 2.08995C6.17724 1.67878 6.74192 1.44975 7.3292 1.45264C7.91648 1.45553 8.47888 1.69011 8.89416 2.10538C9.30943 2.52066 9.54401 3.08306 9.5469 3.67034C9.54979 4.25762 9.32076 4.8223 8.90959 5.24164L8.3189 5.83233ZM7.55515 4.30564C7.61502 4.24985 7.66304 4.18258 7.69635 4.10783C7.72965 4.03308 7.74756 3.95238 7.74901 3.87056C7.75045 3.78874 7.7354 3.70747 7.70475 3.63159C7.6741 3.55571 7.62849 3.48679 7.57062 3.42892C7.51275 3.37106 7.44383 3.32544 7.36795 3.29479C7.29207 3.26414 7.2108 3.24909 7.12898 3.25053C7.04716 3.25198 6.96646 3.26989 6.89171 3.30319C6.81696 3.3365 6.74969 3.38452 6.6939 3.44439L3.4439 6.69439C3.38403 6.75018 3.33601 6.81745 3.3027 6.8922C3.2694 6.96695 3.25149 7.04764 3.25005 7.12947C3.2486 7.21129 3.26365 7.29256 3.2943 7.36844C3.32495 7.44432 3.37057 7.51324 3.42843 7.57111C3.4863 7.62897 3.55522 7.67459 3.6311 7.70524C3.70698 7.73589 3.78825 7.75094 3.87008 7.7495C3.9519 7.74805 4.03259 7.73014 4.10734 7.69684C4.18209 7.66353 4.24936 7.61551 4.30515 7.55564L7.55515 4.30564Z" fill="#161616"/>
</svg>
