<svg width="343" height="36" viewBox="0 0 343 36" fill="none" xmlns="http://www.w3.org/2000/svg">
<path d="M140.769 21.841C140.557 23.8956 141.083 25.9941 142.721 27.515C142.959 27.7344 143.197 27.9537 143.434 28.1731C144.682 29.2991 146.193 30.0303 147.967 30.374C148.604 30.4983 149.648 30.5568 151.099 30.5495C158.297 30.5348 170.307 30.5348 177.522 30.5421C177.522 30.5421 177.539 30.5421 177.548 30.5421C177.548 30.5421 177.565 30.5421 177.565 30.5495C177.565 30.5495 177.573 30.5568 177.573 30.5641C177.573 30.5641 177.573 30.5787 177.573 30.586V35.9456C177.573 35.9456 177.573 35.9603 177.565 35.9676C177.565 35.9676 177.548 35.9749 177.539 35.9749C170.189 35.9749 157.966 35.9749 150.471 35.9749C149.079 35.9749 148.001 35.9164 147.254 35.8067C142.127 35.0536 137.96 32.0338 135.872 27.9537C135.515 27.2518 135.252 26.4767 135.074 25.6285C134.751 24.0346 134.658 22.4332 134.777 20.8319C134.811 20.3567 134.913 19.8521 135.082 19.3111C136.101 16.05 138.155 13.4835 141.245 11.6116C143.443 10.2809 145.896 9.52042 148.578 9.323C149.283 9.27182 149.987 9.24257 150.692 9.24257C153.586 9.24257 156.48 9.24257 159.349 9.24257C159.451 9.24257 159.536 9.27913 159.596 9.34494C160.954 10.7708 161.37 12.9058 161.03 14.6826C161.03 14.7046 161.013 14.7119 160.996 14.7119C157.592 14.7265 154.231 14.7265 150.921 14.7046C149.665 14.6973 148.689 14.7631 147.993 14.8947C145.2 15.4431 142.908 16.9859 141.677 19.2526C141.559 19.4646 141.448 19.6767 141.329 19.8887C141.024 20.4444 140.829 21.0952 140.752 21.841H140.769Z" fill="#10367D"/>
<path d="M177.657 9.30699V14.6666C177.657 14.6666 177.657 14.6959 177.64 14.7032C177.632 14.7105 177.615 14.7178 177.598 14.7178H169.908C169.848 14.7178 169.823 14.6959 169.823 14.6447C169.992 12.7875 169.806 11.018 169.262 9.32892C169.245 9.27774 169.262 9.24849 169.339 9.24849H177.581C177.581 9.24849 177.615 9.2558 177.632 9.27043C177.649 9.28505 177.649 9.29967 177.649 9.3143L177.657 9.30699Z" fill="#10367D"/>
<path d="M165.351 21.6652C162.55 24.7654 158.238 26.6885 153.629 26.7104C150.276 26.725 146.974 26.7323 143.723 26.725C143.647 26.725 143.588 26.7031 143.537 26.6519C142.119 25.2699 141.805 23.325 142.119 21.3873C142.128 21.3288 142.17 21.2996 142.238 21.2996C145.523 21.285 148.765 21.285 151.965 21.2996C153.357 21.3069 154.418 21.2484 155.148 21.1168C157.389 20.7219 159.206 19.7348 160.589 18.1555C162.643 15.8083 163.008 12.7666 161.608 10.0904C160.368 7.71406 158.255 6.22243 155.267 5.61554C154.63 5.48393 153.714 5.42544 152.534 5.42544C144.988 5.44006 131.221 5.44006 124.108 5.42544C124.091 5.42544 124.074 5.42544 124.065 5.41081C124.057 5.4035 124.048 5.38888 124.048 5.37425V0.0584954C124.048 0.0219357 124.065 0 124.116 0C131.339 0.00731191 145.039 0 152.339 0C153.697 0 154.749 0.0365595 155.479 0.124303C161.387 0.811622 166.132 4.44564 167.94 9.32268C168.389 10.5438 168.619 11.8965 168.619 13.3954C168.627 16.4883 167.541 19.2449 165.351 21.6725V21.6652Z" fill="#10367D"/>
<path d="M134.039 26.6352C134.039 26.6352 134.039 26.6572 134.039 26.6645C134.039 26.6718 134.031 26.6864 134.022 26.6937C134.022 26.7011 134.005 26.7084 133.997 26.7157C133.988 26.7157 133.971 26.7157 133.963 26.7157H124.057C124.057 26.7157 124.049 26.7157 124.04 26.7157H124.032C124.032 26.7157 124.032 26.7157 124.032 26.7084C124.032 26.7084 124.032 26.7011 124.032 26.6937V21.3414C124.032 21.3414 124.032 21.3122 124.049 21.3049C124.057 21.2976 124.074 21.2902 124.091 21.2902H133.386C133.386 21.2902 133.411 21.2902 133.428 21.2976C133.445 21.2976 133.454 21.3122 133.462 21.3195C133.47 21.3268 133.479 21.3414 133.487 21.3487C133.487 21.3634 133.487 21.3707 133.487 21.3853C133.403 23.0963 133.581 24.8438 134.048 26.6352H134.039Z" fill="#10367D"/>
<path d="M90.8563 18.6761C90.8563 19.5508 90.6994 20.4965 90.3928 21.5205C90.0862 22.5232 89.58 23.4618 88.8812 24.3365C88.1967 25.1969 87.2984 25.9151 86.1789 26.4982C85.0738 27.0813 83.7262 27.3729 82.1362 27.3729H70.7067V21.3712H82.1362C82.9989 21.3712 83.662 21.1152 84.1326 20.5961C84.6032 20.0628 84.8385 19.4086 84.8385 18.6263C84.8385 17.8015 84.5675 17.1544 84.0328 16.685C83.5123 16.2157 82.8777 15.9811 82.1291 15.9811H70.6995C69.8368 15.9811 69.1737 16.2513 68.7031 16.7846C68.2325 17.3037 67.9972 17.9508 67.9972 18.7259V27.5506C67.9972 28.3897 68.3117 28.7966 68.825 29.2659C69.3598 29.7352 70.0158 29.9699 70.8001 29.9699H84.9533V36H70.7502C69.8732 36 68.9249 35.8436 67.8981 35.5378C66.8928 35.232 65.9516 34.7342 65.0746 34.0587C64.2119 33.3618 63.4917 32.4658 62.9071 31.3636C62.3224 30.2472 61.9795 29.1435 61.9795 27.5578V18.6832C61.9795 17.8086 62.1363 16.8699 62.4429 15.8673C62.7495 14.8433 63.2486 13.9046 63.9331 13.0513C64.6319 12.1767 65.5302 11.4442 66.6354 10.8611C67.7548 10.278 69.1167 9.98649 70.7067 9.98649H82.1362C83.0132 9.98649 83.9543 10.1429 84.9597 10.4487C85.9864 10.7545 86.9276 11.2594 87.7832 11.9562C88.6602 12.6389 89.3946 13.5349 89.9793 14.6513C90.5639 15.7535 90.8563 17.0975 90.8563 18.6832V18.6761Z" fill="#10367D"/>
<path d="M28.8245 36L28.8173 27.2563H6.38395L6.39113 36H0.00718257L0 18.346C0 15.79 0.445229 13.441 1.3285 11.292C2.21176 9.14292 3.43972 7.30088 5.01237 5.75157C6.58502 4.2094 8.43773 3.00279 10.5849 2.13889C12.732 1.27499 15.0656 0.846608 17.6077 0.846608H31.9913C32.4365 0.846608 32.853 0.925145 33.2408 1.08936C33.6358 1.25357 33.9805 1.48204 34.2749 1.77477C34.5693 2.06749 34.7991 2.4102 34.9643 2.80288C35.1294 3.19556 35.2084 3.60967 35.2084 4.04519L35.2156 36H28.8245ZM6.38395 20.9163H28.8173V7.20093H17.6005C17.4066 7.20093 16.9901 7.23663 16.351 7.30088C15.7263 7.35086 15.001 7.48652 14.168 7.71499C13.3493 7.94346 12.4806 8.2933 11.5687 8.76452C10.6495 9.23574 9.8093 9.88545 9.04093 10.7137C8.27256 11.5419 7.63345 12.5843 7.1236 13.8337C6.63528 15.0689 6.38395 16.5753 6.38395 18.346V20.9163Z" fill="#10367D"/>
<path d="M93.6735 36H100.222V23.485C100.222 19.458 103.604 16.1935 107.777 16.1935H115.507V10.0097H106.17C103.313 10.0097 100.84 11.9264 100.222 14.6189V10.0097L93.675 9.98649C93.675 9.98649 93.6735 14.2662 93.6735 18.1911V36Z" fill="#10367D"/>
<path d="M38.0329 0.846608H44.4003V29.6471H59.1622V36H45.1954C41.2417 36 38.0329 32.7985 38.0329 28.8539V0.846608Z" fill="#10367D"/>
<path fill-rule="evenodd" clip-rule="evenodd" d="M343 26.8078C343 27.8909 342.855 28.9018 342.566 29.7683C342.277 30.6348 341.915 31.429 341.481 32.0789C341.047 32.7288 340.469 33.3064 339.89 33.8119C339.311 34.2451 338.66 34.6784 337.937 34.9672C337.286 35.256 336.635 35.4726 335.912 35.6171C335.261 35.7615 334.61 35.8337 333.959 35.8337H322.387C321.519 35.8337 320.507 35.6893 319.494 35.3282C318.409 35.0394 317.469 34.5339 316.529 33.8119C315.661 33.0898 314.865 32.1511 314.287 30.9958C313.708 29.8405 313.419 28.4686 313.419 26.8078V18.143C313.419 16.4822 313.708 15.1103 314.287 13.955C314.865 12.7997 315.661 11.861 316.529 11.1389C317.469 10.4168 318.409 9.91137 319.494 9.55034C320.579 9.26151 321.519 9.1171 322.387 9.1171H333.959C335.623 9.1171 336.997 9.40592 338.154 9.98358C339.311 10.5612 340.252 11.3555 340.975 12.222C341.698 13.0885 342.204 14.0994 342.494 15.1103C342.855 16.1934 343 17.1321 343 18.0708V26.8078ZM336.563 18.2152C336.563 17.3487 336.346 16.6988 335.912 16.2656C335.478 15.8323 334.827 15.6157 333.959 15.6157H322.387C321.519 15.6157 320.868 15.8323 320.434 16.2656C320.001 16.6988 319.784 17.3487 319.784 18.143V26.8078C319.784 27.6743 320.001 28.2519 320.434 28.7574C320.868 29.1906 321.519 29.4073 322.387 29.4073H333.959C334.827 29.4073 335.478 29.1906 335.912 28.7574C336.346 28.3241 336.563 27.6743 336.563 26.8078V18.2152Z" fill="#10367D"/>
<path fill-rule="evenodd" clip-rule="evenodd" d="M310.602 35.8337H301.232L288.13 23.4224C287.398 22.7767 287.032 21.9158 287.106 20.9832C287.106 20.5527 287.252 20.1223 287.472 19.6918C287.691 19.2614 287.984 18.9744 288.35 18.6874L300.208 9.28928H310.602L295.304 21.3419L310.602 35.8337ZM285.422 35.8337H278.908V0.680282H285.422V35.8337Z" fill="#10367D"/>
<path fill-rule="evenodd" clip-rule="evenodd" d="M276.09 17.9986C276.09 18.865 275.947 19.8759 275.66 20.8868C275.374 21.8977 274.872 22.8364 274.156 23.7751C273.439 24.6416 272.579 25.3637 271.433 25.9413C270.358 26.519 268.997 26.8078 267.348 26.8078H255.884V20.7424H267.348C268.208 20.7424 268.853 20.4536 269.355 19.9481C269.856 19.3705 270.071 18.7206 270.071 17.9263C270.071 17.0599 269.785 16.41 269.283 15.9768C268.782 15.4713 268.137 15.2547 267.348 15.2547H255.884C255.024 15.2547 254.379 15.5435 253.877 16.049C253.376 16.5544 253.161 17.2043 253.161 17.9986V26.9522C253.161 27.8187 253.447 28.4686 253.949 28.974C254.522 29.4795 255.167 29.6961 255.955 29.6961H267.42V35.8337H255.955C255.096 35.8337 254.092 35.6893 253.089 35.3282C252.086 35.0394 251.155 34.5339 250.223 33.8119C249.363 33.0898 248.647 32.2233 248.073 31.068C247.5 29.9127 247.214 28.5408 247.214 26.9522V17.9986C247.214 17.1321 247.357 16.1212 247.643 15.1103C247.93 14.0994 248.432 13.0885 249.148 12.222C249.865 11.3555 250.725 10.5612 251.871 9.98358C253.018 9.40592 254.379 9.1171 255.955 9.1171H267.42C268.28 9.1171 269.283 9.26151 270.286 9.55034C271.289 9.83917 272.293 10.3446 273.152 11.0667C274.012 11.7888 274.801 12.6552 275.374 13.8105C275.804 15.0381 276.09 16.41 276.09 17.9986Z" fill="#10367D"/>
<path fill-rule="evenodd" clip-rule="evenodd" d="M223.267 0.680282H229.642V29.4487H244.396V35.8337H230.429C226.49 35.8337 223.267 32.6053 223.267 28.6595V0.680282Z" fill="#10367D"/>
<path fill-rule="evenodd" clip-rule="evenodd" d="M220.45 35.8337H214.053V27.2422H191.63V35.8337H185.234V18.2928C185.234 15.7153 185.665 13.3527 186.528 11.2048C187.39 9.05696 188.612 7.19547 190.193 5.62037C191.774 4.04527 193.643 2.82815 195.799 1.969C197.955 1.10985 200.255 0.680282 202.842 0.680282H217.216C217.647 0.680282 218.078 0.751877 218.437 0.895068C218.797 1.03826 219.156 1.25305 219.444 1.61102C219.731 1.89741 219.947 2.25538 220.162 2.61336C220.306 2.97134 220.378 3.40091 220.378 3.83048V35.8337H220.45ZM191.63 20.8702H214.053V7.12388H202.842C202.626 7.12388 202.195 7.12388 201.62 7.19547C200.973 7.26707 200.255 7.41026 199.464 7.62505C198.673 7.83983 197.811 8.19781 196.877 8.69898C195.942 9.20015 195.152 9.84451 194.361 10.6321C193.571 11.4912 192.924 12.4935 192.421 13.7823C191.918 14.9994 191.702 16.5029 191.702 18.2928V20.8702H191.63Z" fill="#10367D"/>
</svg>
